<svg width="30" height="28" viewBox="0 0 30 28" fill="none" xmlns="http://www.w3.org/2000/svg">
<g clip-path="url(#clip0_4345_3216)">
<path d="M18.0429 5.97502C22.115 4.22131 25.1766 9.45273 21.6246 12.1279L23.7201 15.7988C24.3295 17.2107 23.3783 18.7861 21.8624 18.9495C20.3465 19.113 18.7117 18.6969 17.3741 18.682C16.1554 18.6672 14.7584 18.7861 13.5843 19.0982C13.3019 19.1725 12.3359 19.4846 12.1575 19.6332C11.9792 19.7818 12.217 19.9007 12.2615 19.9899C12.8709 21.1343 14.7435 23.7946 14.8624 24.8943C15.1596 27.7627 11.6076 29.1449 9.88363 26.871L7.29764 22.3827C6.82205 22.4718 6.37619 22.6799 5.88575 22.7245C0.208466 23.2149 -2.25863 16.096 2.57152 12.9453C7.40167 9.79456 7.81781 10.5079 9.95794 6.89647C10.6564 5.72237 11.8454 2.61621 12.7223 1.9177C13.9558 0.936808 15.3826 1.47184 16.1702 2.67566C16.7796 3.61197 17.3741 4.75634 17.9388 5.75209C18.5036 6.74785 18.0131 5.90071 18.028 5.98989L18.0429 5.97502ZM13.9855 2.88373C13.7477 2.91345 13.5694 3.06207 13.4356 3.25528C12.8263 4.13214 12.3061 5.6332 11.786 6.62895C10.7456 8.59074 9.4229 10.4485 7.56516 11.7118V11.7861C7.55029 11.7861 11.3847 18.3997 11.3847 18.3997C12.648 17.8052 14.0301 17.4336 15.4272 17.3147C17.5376 17.1215 19.4845 17.5228 21.5503 17.5525C23.6161 17.5822 22.6501 17.0175 22.4272 16.4379L14.7435 3.12152C14.5206 2.91345 14.2828 2.82428 13.9855 2.86887V2.88373ZM18.8454 7.19371L20.9558 10.82C22.7987 9.20008 21.149 6.45061 18.8454 7.19371ZM6.31675 12.4994L6.15327 12.5292C4.42927 13.6884 2.05135 14.2977 1.54605 16.5865C0.877256 19.6629 3.76048 22.1003 6.6883 21.0302L10.0768 19.113L6.31675 12.5143V12.4994ZM8.57577 21.6247L8.62036 21.8328C9.52694 23.0515 10.166 24.9092 11.0874 26.0684C11.994 27.2128 13.8369 26.2319 13.3613 24.7754L10.8348 20.3763L8.59063 21.6247H8.57577Z" fill="currentColor"/>
<path d="M26.6784 4.32446C27.362 4.22042 27.7782 5.02297 27.3174 5.54314L24.345 7.25227C23.5722 7.4752 23.0818 6.46458 23.706 5.97414C24.1221 5.63231 25.861 4.65142 26.3663 4.42849C26.8716 4.20556 26.5595 4.32446 26.6635 4.30959L26.6784 4.32446Z" fill="currentColor"/>
<path d="M21.5946 3.83463C21.0299 4.39938 20.0787 3.71573 20.4354 2.9875L22.0553 0.223164C22.6349 -0.297006 23.4672 0.19344 23.2592 0.966264L21.5946 3.83463Z" fill="currentColor"/>
<path d="M25.2956 10.1514C25.7117 10.0771 28.2234 10.0771 28.6098 10.1514C29.3083 10.2852 29.3381 11.4593 28.5058 11.5782C27.6735 11.6971 25.7266 11.6525 25.2956 11.5782C24.5525 11.4296 24.5525 10.3001 25.2956 10.1663V10.1514Z" fill="currentColor"/>
</g>
<defs>
<clipPath id="clip0_4345_3216">
<rect width="29.1295" height="28" fill="white"/>
</clipPath>
</defs>
</svg>
