<svg width="43" height="39" viewBox="0 0 43 39" fill="none" xmlns="http://www.w3.org/2000/svg">
<path d="M14.3046 27.7098L10.4283 16.9127C14.224 15.2767 17.0908 12.3345 18.7429 8.57119C20.395 4.80789 19.7213 5.56901 20.469 4.8633C21.6898 3.74182 23.6932 4.19771 24.4085 5.66263L32.248 27.499C32.6278 29.0843 31.4024 30.6448 29.7732 30.6285C28.1439 30.6121 27.0886 29.4059 26.1242 28.905C22.4143 27.012 18.3134 26.5166 14.3046 27.7098Z" fill="currentColor"/>
<path d="M6.40178 18.3583L8.82242 17.4892L8.95305 17.5516L12.7511 28.1309L12.69 28.2621L10.1975 29.157C8.20825 29.8711 6.04677 28.2968 5.2664 26.5C3.97088 23.4943 2.86077 20.1761 6.39309 18.334L6.40178 18.3583Z" fill="currentColor"/>
<path d="M14.0611 29.5189L15.6255 33.8765C15.7211 34.1428 15.5112 35.0654 15.3411 35.3451C14.3769 37.0304 11.6107 37.0123 10.9415 35.1482L9.4292 30.9359C11.0542 30.7898 12.5338 30.0126 14.0611 29.5189Z" fill="currentColor"/>
<path d="M32.532 14.1971C33.2075 13.8179 36.5149 12.6305 37.2774 12.4934C38.0398 12.3564 38.7096 13.619 37.7225 14.11C36.7354 14.6011 34.5241 15.149 33.0969 15.7707C32.182 15.9352 31.706 14.6849 32.5407 14.2213L32.532 14.1971Z" fill="currentColor"/>
<path d="M33.8223 20.7301C34.0206 20.6043 34.2842 20.5096 34.5281 20.586C35.1028 20.981 37.8703 21.9824 38.1552 22.3994C38.4402 22.8163 38.0844 23.7093 37.3896 23.6581C36.6948 23.6069 34.5112 22.4231 34.0933 22.1632C33.6753 21.9034 33.2513 21.0991 33.8462 20.7215L33.8223 20.7301Z" fill="currentColor"/>
<path d="M31.0173 5.23037C31.7016 4.8754 32.3632 5.51242 32.173 6.26391C31.9829 7.0154 30.9094 9.14986 30.6913 9.44678C30.1069 10.2305 29.1553 9.91623 29.1627 8.95707L30.7427 5.52029C30.8124 5.41325 30.9062 5.2976 31.0173 5.23037Z" fill="currentColor"/>
</svg>
