<svg width="18" height="22" viewBox="0 0 18 22" fill="none" xmlns="http://www.w3.org/2000/svg">
<path d="M17.3399 7.50055C17.2123 7.59956 14.9593 8.86909 14.9593 11.692C14.9593 14.9571 17.8262 16.1122 17.912 16.1408C17.8988 16.2112 17.4565 17.7228 16.4004 19.2629C15.4587 20.6183 14.4752 21.9714 12.9791 21.9714C11.4829 21.9714 11.0979 21.1023 9.37073 21.1023C7.68756 21.1023 7.08911 22 5.72057 22C4.35203 22 3.39713 20.7459 2.29922 19.2057C1.0275 17.3971 0 14.5875 0 11.9208C0 7.64356 2.78108 5.37514 5.51815 5.37514C6.9725 5.37514 8.18482 6.33003 9.09791 6.33003C9.96699 6.33003 11.3223 5.31793 12.9769 5.31793C13.604 5.31793 15.857 5.37514 17.3399 7.50055ZM12.1914 3.50715C12.8757 2.69527 13.3597 1.56876 13.3597 0.442244C13.3597 0.286029 13.3465 0.127613 13.3179 0C12.2046 0.0418044 10.8801 0.741475 10.0814 1.66777C9.45434 2.38064 8.86909 3.50715 8.86909 4.64906C8.86909 4.82068 8.89769 4.9923 8.91089 5.0473C8.98129 5.0605 9.09571 5.07591 9.21012 5.07591C10.209 5.07591 11.4653 4.40704 12.1914 3.50715Z" fill="white"/>
</svg>
