<svg width="17" height="19" viewBox="0 0 17 19" fill="none" xmlns="http://www.w3.org/2000/svg">
<path d="M9.86958 16.6252C9.7304 16.8651 9.53063 17.0643 9.29026 17.2027C9.0499 17.3412 8.77738 17.414 8.5 17.414C8.22262 17.414 7.9501 17.3412 7.70974 17.2027C7.46937 17.0643 7.2696 16.8651 7.13042 16.6252M13.25 6.3335C13.25 5.07372 12.7496 3.86554 11.8588 2.97474C10.968 2.08394 9.75978 1.5835 8.5 1.5835C7.24022 1.5835 6.03204 2.08394 5.14124 2.97474C4.25045 3.86554 3.75 5.07372 3.75 6.3335C3.75 11.8752 1.375 13.4585 1.375 13.4585H15.625C15.625 13.4585 13.25 11.8752 13.25 6.3335Z" stroke="currentColor" stroke-width="1.8" stroke-linecap="round" stroke-linejoin="round"/>
</svg>
