<svg xmlns="http://www.w3.org/2000/svg" width="35" height="52" viewBox="0 0 35 52" fill="none">
<path d="M2.14136 0H33.5232C34.3355 0 35 0.666667 35 1.48148V41.3148C35 42.1296 34.3355 42.7963 33.5232 42.7963H2.14136V0Z" fill="#EADF9F"/>
<path d="M7.6977 52L4.91025 49.0926L2.1228 52V42.7963H7.6977V52Z" fill="#6C7C5A"/>
<path d="M0 0H31.3819C32.1941 0 32.8587 0.666667 32.8587 1.48148V41.3148C32.8587 42.1296 32.1941 42.7963 31.3819 42.7963H0V0Z" fill="#8C6147"/>
<path d="M2.78737 0H1.45825V29.8704H2.78737V0Z" fill="#EADF9F"/>
<path d="M2.78737 33.2593H1.45825V42.7963H2.78737V33.2593Z" fill="#EADF9F"/>
<path d="M21.709 10.1481H11.1499V12.3148H21.709V10.1481Z" fill="#F1E7D7"/>
<path d="M17.5186 21.3889V6.11108H15.3587V21.3889H17.5186Z" fill="#F1E7D7"/>
<path d="M32.8588 41.7037V1.09259C32.6926 0.462963 32.1204 0 31.4374 0H16.4294V42.7963H31.4374C32.1204 42.7963 32.6926 42.3333 32.8588 41.7037Z" fill="#8C6147" opacity="0.5"/>
<path d="M4.9104 42.7963V49.0926L7.69785 52V42.7963H4.9104Z" fill="#6C7C5A" opacity="0.5"/>
</svg>