<svg width="21" height="21" viewBox="0 0 21 21" fill="none" xmlns="http://www.w3.org/2000/svg">
<path d="M10.5 6.125C10.5 5.19674 10.1313 4.3065 9.47487 3.65013C8.8185 2.99375 7.92826 2.625 7 2.625H1.75V15.75H7.875C8.57119 15.75 9.23887 16.0266 9.73116 16.5188C10.2234 17.0111 10.5 17.6788 10.5 18.375M10.5 6.125V18.375M10.5 6.125C10.5 5.19674 10.8687 4.3065 11.5251 3.65013C12.1815 2.99375 13.0717 2.625 14 2.625H19.25V15.75H13.125C12.4288 15.75 11.7611 16.0266 11.2688 16.5188C10.7766 17.0111 10.5 17.6788 10.5 18.375" stroke="currentColor" stroke-width="1.2" stroke-linecap="round" stroke-linejoin="round"/>
</svg>
