<svg xmlns="http://www.w3.org/2000/svg" width="44" height="50" viewBox="0 0 44 50" fill="none">
<path d="M29.5008 45.7407C29.5008 45.7933 29.5008 45.8609 29.4933 45.9135C29.4032 47.8891 27.6546 49.1587 25.4482 49.6995C21.6809 50.6235 16.6077 49.4291 16.3901 46.0337C16.3826 45.9811 16.3826 45.9135 16.3826 45.8609L29.5008 45.7407Z" fill="#454545"/>
<path d="M30.5966 38.9123C30.5966 39.6184 30.1088 40.2193 29.4409 40.3621C29.3509 40.3846 29.2458 40.3921 29.1482 40.3921L16.6454 40.5123C16.5404 40.5123 16.4428 40.5123 16.3452 40.4898C15.6773 40.3546 15.167 39.7686 15.167 39.0625C15.167 38.5442 15.4297 38.0859 15.8424 37.823C16.0601 37.6728 16.3302 37.5901 16.6154 37.5826L29.1182 37.4624C29.4034 37.4624 29.6736 37.5376 29.9062 37.6878C30.319 37.9432 30.5891 38.3939 30.5966 38.9123Z" fill="#454545"/>
<path d="M30.6267 41.7894C30.6267 42.3828 30.2814 42.8936 29.7786 43.134C29.591 43.2091 29.3884 43.2617 29.1783 43.2617L16.6754 43.3819C16.4653 43.3819 16.2702 43.3368 16.0826 43.2692C15.5723 43.0439 15.2045 42.533 15.197 41.9396C15.197 41.226 15.6848 40.6325 16.3527 40.4898C16.4428 40.4672 16.5479 40.4597 16.6529 40.4597L29.1557 40.3395C29.2533 40.3395 29.3584 40.347 29.4484 40.3621C30.1163 40.4973 30.6267 41.0757 30.6342 41.7894H30.6267Z" fill="#454545"/>
<path d="M30.6491 44.4636C30.6491 45.1698 30.1613 45.7707 29.4934 45.9135C29.4033 45.936 29.2983 45.9435 29.2007 45.9435L16.6979 46.0637C16.5928 46.0637 16.4953 46.0637 16.3977 46.0412C15.7298 45.906 15.227 45.32 15.2195 44.6139C15.2195 44.0204 15.5722 43.4946 16.075 43.2692C16.2626 43.1866 16.4503 43.134 16.6679 43.134L29.1707 43.0138C29.3808 43.0138 29.591 43.0589 29.7711 43.1415C30.2814 43.3669 30.6416 43.8777 30.6491 44.4712V44.4636Z" fill="#454545"/>
<path d="M30.5381 34.685L15.1016 34.8199L15.1278 37.8321L30.5644 37.6972L30.5381 34.685Z" fill="#454545"/>
<path d="M7.38456 21.905C7.33203 27.186 9.95117 31.866 13.9887 34.6605L31.2195 34.8182C35.302 32.0989 38.0112 27.4639 38.0562 22.1905C38.1388 13.7094 31.332 6.76833 22.8667 6.69321C20.9005 6.67819 19.0243 7.03125 17.2983 7.69231C11.5497 9.86328 7.4446 15.3921 7.38456 21.905Z" fill="#FFC800"/>
<path d="M35.6472 23.8657C36.1575 23.8657 36.5778 23.46 36.5853 22.9492C36.6378 17.5781 34.0412 12.5301 29.6359 9.45013C29.2157 9.15716 28.6378 9.25482 28.3451 9.67549C28.0525 10.0962 28.15 10.6746 28.5703 10.9676C32.4727 13.7019 34.7692 18.1716 34.7241 22.9342C34.7241 23.445 35.1294 23.8657 35.6397 23.8732L35.6472 23.8657Z" fill="white"/>
<path d="M7.38456 21.905C7.33203 27.186 9.95117 31.866 13.9887 34.6604L24.0675 34.7506C27.5422 31.9937 29.7786 27.7269 29.8236 22.9267C29.8911 15.3546 24.4878 9.01441 17.2983 7.68478C11.5497 9.85576 7.4446 15.3846 7.38456 21.8975V21.905Z" fill="#f2d459" opacity="0.3"/>
<path d="M25.9137 24.7371C24.668 24.7821 23.7149 24.5418 23.0169 23.5577C24.3077 21.1914 22.7243 19.8843 22.1614 20.9585C21.8537 21.5445 22.0413 22.6938 22.5742 23.5652C21.8987 24.6244 20.8781 24.9174 19.5573 24.8347C18.2139 22.168 16.3978 22.3032 16.3678 23.1746C16.3378 23.9107 17.4485 25 19.3171 25.1878C20.6905 28.1175 21.3209 33.1806 21.4935 34.7506H21.8762C21.7111 33.2332 21.1107 28.2903 19.7374 25.2178C21.0357 25.2253 22.0563 24.9624 22.7993 23.9032C23.7224 24.7296 23.925 25.1277 25.7411 25.1127C24.4128 28.2151 23.895 33.2106 23.7674 34.7356H24.1501C24.2927 33.1656 24.8331 28.0574 26.1614 25.0901C28.0301 24.9324 29.1333 23.8281 29.1107 23.0844C29.0732 22.1604 27.1595 22.1454 25.9213 24.7371H25.9137ZM17.6361 23.1595C18.1539 23.3699 18.6567 23.9183 19.107 24.7897C16.7655 24.4516 15.9625 22.4384 17.6361 23.1595ZM22.7843 23.1896C21.9588 21.6421 22.5742 20.4552 22.9794 21.1388C23.197 21.5144 23.1595 22.3858 22.7843 23.1896ZM26.349 24.692C27.3546 22.7614 28.7205 22.6112 28.728 23.0919C28.7505 23.5577 27.925 24.4817 26.349 24.692Z" fill="white"/>
<path d="M30.7691 39.6409L15.0092 39.7912C14.7541 39.7912 14.5439 39.5883 14.5439 39.3329C14.5439 39.0775 14.7466 38.8672 15.0017 38.8672L30.7616 38.7169C31.0167 38.7169 31.2269 38.9198 31.2269 39.1752C31.2269 39.4306 31.0242 39.6409 30.7691 39.6409Z" fill="#969696"/>
<path d="M30.7915 42.195L15.0317 42.3452C14.7765 42.3452 14.5664 42.1424 14.5664 41.887C14.5664 41.6316 14.769 41.4213 15.0242 41.4213L30.784 41.271C31.0392 41.271 31.2493 41.4738 31.2493 41.7293C31.2493 41.9847 31.0467 42.195 30.7915 42.195Z" fill="#969696"/>
<path d="M30.814 44.7566L15.0542 44.9069C14.799 44.9069 14.5889 44.704 14.5889 44.4486C14.5889 44.1932 14.7915 43.9829 15.0467 43.9829L30.8065 43.8326C31.0617 43.8326 31.2718 44.0355 31.2718 44.2909C31.2718 44.5463 31.0692 44.7566 30.814 44.7566Z" fill="#969696"/>
<path d="M21.9963 3.76352C21.7411 3.76352 21.531 3.55319 21.531 3.29778V0.465745C21.531 0.210337 21.7411 0 21.9963 0C22.2515 0 22.4616 0.210337 22.4616 0.465745V3.30529C22.4616 3.5607 22.2515 3.77103 21.9963 3.77103V3.76352Z" fill="#FFC800"/>
<path d="M35.227 9.24728C35.1069 9.24728 34.9869 9.20221 34.8968 9.11207C34.7167 8.93178 34.7167 8.63881 34.8968 8.45852L36.9006 6.45281C37.0807 6.27252 37.3734 6.27252 37.5535 6.45281C37.7336 6.6331 37.7336 6.92607 37.5535 7.10636L35.5497 9.11207C35.4597 9.20221 35.3396 9.24728 35.2195 9.24728H35.227Z" fill="#FFC800"/>
<path d="M6.76925 37.7254C6.64917 37.7254 6.5291 37.6803 6.43904 37.5902C6.25893 37.4099 6.25893 37.1169 6.43904 36.9366L8.44279 34.9309C8.6229 34.7506 8.91559 34.7506 9.0957 34.9309C9.27581 35.1112 9.27581 35.4042 9.0957 35.5844L7.09195 37.5902C7.00189 37.6803 6.88182 37.7254 6.76174 37.7254H6.76925Z" fill="#FFC800"/>
<path d="M43.5347 22.4835H40.698C40.4428 22.4835 40.2327 22.2731 40.2327 22.0177C40.2327 21.7623 40.4428 21.552 40.698 21.552H43.5347C43.7899 21.552 44 21.7623 44 22.0177C44 22.2731 43.7899 22.4835 43.5347 22.4835Z" fill="#FFC800"/>
<path d="M3.29456 22.4835H0.465291C0.210131 22.4835 0 22.2731 0 22.0177C0 21.7623 0.210131 21.552 0.465291 21.552H3.30206C3.55722 21.552 3.76735 21.7623 3.76735 22.0177C3.76735 22.2731 3.55722 22.4835 3.30206 22.4835H3.29456Z" fill="#FFC800"/>
<path d="M37.2232 37.7254C37.1031 37.7254 36.983 37.6803 36.893 37.5902L34.8892 35.5844C34.7091 35.4042 34.7091 35.1112 34.8892 34.9309C35.0693 34.7506 35.362 34.7506 35.5421 34.9309L37.5459 36.9366C37.726 37.1169 37.726 37.4099 37.5459 37.5902C37.4558 37.6803 37.3358 37.7254 37.2157 37.7254H37.2232Z" fill="#FFC800"/>
<path d="M8.773 9.24728C8.65292 9.24728 8.53285 9.20221 8.44279 9.11207L6.43904 7.10636C6.25893 6.92607 6.25893 6.6331 6.43904 6.45281C6.61915 6.27252 6.91183 6.27252 7.09195 6.45281L9.0957 8.45852C9.27581 8.63881 9.27581 8.93178 9.0957 9.11207C9.00564 9.20221 8.88557 9.24728 8.76549 9.24728H8.773Z" fill="#FFC800"/>
<path d="M29.2232 5.21335C29.1632 5.21335 29.1031 5.19833 29.0431 5.17579C28.8105 5.07814 28.6979 4.8077 28.7954 4.56732L29.8911 1.95314C29.9887 1.72026 30.2589 1.60758 30.499 1.70524C30.7317 1.8029 30.8442 2.07333 30.7467 2.31371L29.651 4.9279C29.5759 5.10818 29.4033 5.21335 29.2232 5.21335Z" fill="#FFC800"/>
<path d="M39.302 15.3846C39.1218 15.3846 38.9492 15.2794 38.8742 15.0992C38.7766 14.8588 38.8892 14.5883 39.1294 14.4982L41.7485 13.424C41.9811 13.3263 42.2588 13.439 42.3489 13.6794C42.4464 13.9198 42.3339 14.1902 42.0937 14.2803L39.4746 15.3546C39.4145 15.3771 39.3545 15.3921 39.302 15.3921V15.3846Z" fill="#FFC800"/>
<path d="M2.07125 30.6566C1.89114 30.6566 1.71853 30.5514 1.64348 30.3711C1.54592 30.1307 1.65849 29.8603 1.89864 29.7701L4.51778 28.6959C4.75042 28.5983 5.0281 28.7109 5.11815 28.9513C5.21571 29.1917 5.10314 29.4621 4.86299 29.5523L2.24386 30.6265C2.18382 30.649 2.12378 30.6641 2.07125 30.6641V30.6566Z" fill="#FFC800"/>
<path d="M41.8612 30.8068C41.8012 30.8068 41.7411 30.7918 41.6811 30.7692L39.0695 29.6725C38.8368 29.5748 38.7243 29.3044 38.8218 29.064C38.9194 28.8311 39.1895 28.7185 39.4297 28.8161L42.0413 29.9129C42.274 30.0105 42.3865 30.281 42.289 30.5213C42.2139 30.7016 42.0413 30.8068 41.8612 30.8068Z" fill="#FFC800"/>
<path d="M4.75037 15.2569C4.69034 15.2569 4.6303 15.2419 4.57026 15.2193L1.95863 14.1226C1.72598 14.0249 1.61341 13.7545 1.71097 13.5141C1.80853 13.2812 2.0787 13.1686 2.31885 13.2662L4.93049 14.363C5.16313 14.4606 5.2757 14.7311 5.17814 14.9714C5.10309 15.1517 4.93049 15.2569 4.75037 15.2569Z" fill="#FFC800"/>
<path d="M14.9044 5.16075C14.7243 5.16075 14.5517 5.05559 14.4767 4.8753L13.4035 2.2536C13.3059 2.01322 13.4185 1.74278 13.6587 1.65264C13.8913 1.55498 14.169 1.66766 14.259 1.90805L15.3322 4.52974C15.4298 4.77013 15.3172 5.04056 15.077 5.13071C15.017 5.15324 14.957 5.16827 14.9044 5.16827V5.16075Z" fill="#FFC800"/>
</svg>