<svg width="15" height="15" viewBox="0 0 15 15" fill="none" xmlns="http://www.w3.org/2000/svg">
<g clip-path="url(#clip0_2924_1465)">
<path d="M14.375 11.875C14.375 12.2065 14.2433 12.5245 14.0089 12.7589C13.7745 12.9933 13.4565 13.125 13.125 13.125H1.875C1.54348 13.125 1.22554 12.9933 0.991117 12.7589C0.756696 12.5245 0.625 12.2065 0.625 11.875V5C0.625 4.66848 0.756696 4.35054 0.991117 4.11612C1.22554 3.8817 1.54348 3.75 1.875 3.75H4.375L5.625 1.875H9.375L10.625 3.75H13.125C13.4565 3.75 13.7745 3.8817 14.0089 4.11612C14.2433 4.35054 14.375 4.66848 14.375 5V11.875Z" stroke="white" stroke-width="1.5" stroke-linecap="round" stroke-linejoin="round"/>
<path d="M7.5 10.625C8.88071 10.625 10 9.50571 10 8.125C10 6.74429 8.88071 5.625 7.5 5.625C6.11929 5.625 5 6.74429 5 8.125C5 9.50571 6.11929 10.625 7.5 10.625Z" stroke="white" stroke-width="1.5" stroke-linecap="round" stroke-linejoin="round"/>
</g>
<defs>
<clipPath id="clip0_2924_1465">
<rect width="15" height="15" fill="white"/>
</clipPath>
</defs>
</svg>
