<svg width="38" height="40" viewBox="0 0 38 40" fill="none" xmlns="http://www.w3.org/2000/svg">
<g clip-path="url(#clip0_2632_2250)">
<path d="M18.5843 -1.83657e-06C20.7218 -0.297621 22.1468 3.03571 23.5124 4.34524C24.8781 5.65476 23.9281 4.70238 24.4031 4.64286C25.8874 4.40476 28.3812 3.21428 29.7468 3.39286C31.1124 3.57143 31.0531 3.92857 31.3499 4.58333C31.6468 5.23809 31.7062 7.44047 31.7656 8.45238C31.8249 9.46428 31.5281 10.3571 32.1812 10.7143C33.1312 11.25 34.9124 11.7262 35.9812 12.1429C37.0499 12.5595 37.9406 12.9762 37.9999 14.1071C38.1187 15.7738 35.7437 18.0357 35.0312 19.5833C34.3187 21.131 35.0312 20.119 35.2093 20.5357C35.9218 21.7262 37.2874 23.3333 37.7624 24.5238C39.1281 27.9167 33.7249 28.2738 31.8843 29.4643C31.7062 30.1786 31.8249 30.8929 31.7656 31.6667C31.7062 32.4405 31.7062 33.5714 31.5874 34.4643C31.1718 38.3929 26.4218 35.5952 24.2249 35.2381H23.9874C22.8593 36.369 21.9687 37.8571 20.8999 39.0476C17.9906 42.2024 16.0906 36.6667 14.1312 35.2381L8.90618 36.6071C7.54055 36.6071 6.59055 35.5952 6.4718 34.2857C6.35305 32.9762 6.4718 31.369 6.29368 30C6.11555 28.631 6.2343 29.4643 5.87805 29.2857C4.21555 28.3333 -7.16466e-05 27.9762 -7.16466e-05 25.5357C-7.16466e-05 23.0952 2.25618 21.7262 2.9093 20.4167C3.56243 19.1071 3.08743 19.9405 2.9093 19.5238C2.25618 18.3929 0.118678 15.8333 -7.16466e-05 14.7619C-0.118822 13.6905 0.356178 13.0357 1.2468 12.5595C2.13743 12.0833 5.87805 10.8929 6.05618 10.5357C6.2343 10.1786 6.11555 10.3571 6.17493 10.2381C6.35305 8.69048 6.17493 6.84524 6.41243 5.29762C7.00618 1.78571 11.4593 4.34524 13.4187 4.64286C15.3781 4.94047 13.8343 4.64286 14.0124 4.64286C15.1406 3.57143 15.9718 2.08333 17.0406 0.952379C18.1093 -0.178573 17.9312 0.119046 18.5843 -1.83657e-06ZM25.0562 13.6905C24.7593 13.6905 24.4031 13.9286 24.1656 14.1071L16.1499 22.1429C15.1999 21.4286 13.7156 19.1667 12.5281 19.1071C11.3406 19.0476 10.3312 20.4167 10.9249 21.6071L15.2593 25.9524C15.7343 26.3095 16.5656 26.3095 17.0406 25.9524L26.7187 16.25C27.4906 15.0595 26.3624 13.4524 24.9968 13.6905H25.0562Z" fill="currentColor"/>
</g>
<defs>
<clipPath id="clip0_2632_2250">
<rect width="38" height="40" fill="currentColor"/>
</clipPath>
</defs>
</svg>
