<svg width="15" height="15" viewBox="0 0 15 15" fill="none" xmlns="http://www.w3.org/2000/svg">
<path d="M3.07032 11.8413C6.70912 15.5662 13.3068 13.1778 13.6101 7.9405C13.6484 7.28184 13.3611 6.17555 14.3921 6.26508C15.1039 6.32583 15.005 7.19232 14.9826 7.71988C14.7145 13.7246 7.99228 17.0882 3.08309 13.5711C-2.64324 9.46885 0.127358 0.311565 7.12088 0.00461697C8.07846 -0.0369489 9.71273 0.202854 10.5458 0.69525C11.1587 1.05655 10.8714 2.02856 10.1277 1.94542C9.84998 1.91345 9.26267 1.61929 8.91156 1.53296C6.13777 0.851921 3.40866 2.08291 2.06486 4.58006C0.839159 6.85979 1.26049 9.98682 3.07032 11.8381V11.8413Z" fill="currentColor"/>
<path d="M14.1108 1.35702C14.7077 1.2579 15.1482 1.96772 14.7556 2.45052L7.78761 9.4208C7.5546 9.56468 7.27371 9.56148 7.04709 9.40801L4.81912 7.16985C4.41374 6.46003 5.25961 5.763 5.86607 6.31295L7.37905 7.8317L7.45885 7.84769L13.7182 1.57124C13.8236 1.48491 13.9736 1.3794 14.1076 1.35702H14.1108Z" fill="currentColor"/>
</svg>
