<svg width="56" height="58" viewBox="0 0 56 58" fill="none" xmlns="http://www.w3.org/2000/svg">
<g filter="url(#filter0_d_3420_3007)">
<path d="M27.1405 1.44496C27.5282 0.793231 28.4718 0.79323 28.8595 1.44496L33.4353 9.138C33.6919 9.56937 34.2284 9.74372 34.6896 9.54555L42.9133 6.01134C43.61 5.71194 44.3734 6.26659 44.304 7.0217L43.484 15.9351C43.4381 16.4349 43.7697 16.8913 44.2592 17.0021L52.9898 18.9766C53.7294 19.1439 54.021 20.0414 53.5209 20.6114L47.6184 27.3406C47.2874 27.7179 47.2874 28.2821 47.6184 28.6594L53.5209 35.3886C54.021 35.9586 53.7294 36.8561 52.9898 37.0234L44.2592 38.9979C43.7697 39.1087 43.4381 39.5651 43.484 40.0649L44.304 48.9783C44.3734 49.7334 43.61 50.2881 42.9133 49.9887L34.6896 46.4545C34.2284 46.2563 33.6919 46.4306 33.4353 46.862L28.8595 54.555C28.4718 55.2068 27.5282 55.2068 27.1405 54.555L22.5647 46.862C22.3081 46.4306 21.7716 46.2563 21.3104 46.4545L13.0867 49.9887C12.39 50.2881 11.6266 49.7334 11.696 48.9783L12.516 40.0649C12.5619 39.5651 12.2303 39.1087 11.7408 38.9979L3.01024 37.0234C2.27062 36.8561 1.97903 35.9586 2.47906 35.3886L8.38158 28.6594C8.71255 28.2821 8.71255 27.7179 8.38158 27.3406L2.47906 20.6114C1.97903 20.0414 2.27062 19.1439 3.01024 18.9766L11.7408 17.0021C12.2303 16.8913 12.5619 16.4349 12.516 15.9351L11.696 7.0217C11.6266 6.26659 12.39 5.71194 13.0867 6.01134L21.3104 9.54555C21.7716 9.74372 22.3081 9.56937 22.5647 9.138L27.1405 1.44496Z" fill="#8FED91"/>
<path d="M27.5703 1.7002C27.7642 1.37471 28.2358 1.37472 28.4297 1.7002L33.0059 9.39355C33.3907 10.0405 34.1951 10.302 34.8867 10.0049L43.1104 6.4707C43.4586 6.32104 43.8402 6.59817 43.8057 6.97559L42.9863 15.8896C42.9175 16.6392 43.4152 17.3242 44.1494 17.4902L52.8799 19.4639C53.2493 19.5476 53.3949 19.9963 53.1455 20.2812L47.2422 27.0107C46.7459 27.5767 46.7459 28.4233 47.2422 28.9893L53.1455 35.7188C53.3949 36.0037 53.2493 36.4524 52.8799 36.5361L44.1494 38.5098C43.4152 38.6758 42.9175 39.3608 42.9863 40.1104L43.8057 49.0244C43.8402 49.4018 43.4586 49.679 43.1104 49.5293L34.8867 45.9951C34.1951 45.698 33.3907 45.9595 33.0059 46.6064L28.4297 54.2998C28.2358 54.6253 27.7642 54.6253 27.5703 54.2998L22.9941 46.6064C22.6093 45.9595 21.8049 45.698 21.1133 45.9951L12.8896 49.5293C12.5414 49.679 12.1598 49.4018 12.1943 49.0244L13.0137 40.1104C13.0825 39.3608 12.5848 38.6758 11.8506 38.5098L3.12012 36.5361C2.75074 36.4524 2.60514 36.0037 2.85449 35.7188L8.75781 28.9893C9.25415 28.4233 9.25415 27.5767 8.75781 27.0107L2.85449 20.2812C2.60514 19.9963 2.75074 19.5476 3.12012 19.4639L11.8506 17.4902C12.5848 17.3242 13.0825 16.6392 13.0137 15.8896L12.1943 6.97559C12.1598 6.59817 12.5414 6.32104 12.8896 6.4707L21.1133 10.0049C21.8049 10.302 22.6093 10.0405 22.9941 9.39355L27.5703 1.7002Z" stroke="black"/>
</g>
<path d="M17 29.4615L23.9474 36L39 21" stroke="#0D0D0D" stroke-width="4" stroke-linecap="round"/>
<defs>
<filter id="filter0_d_3420_3007" x="2.23047" y="0.956055" width="52.5391" height="56.0879" filterUnits="userSpaceOnUse" color-interpolation-filters="sRGB">
<feFlood flood-opacity="0" result="BackgroundImageFix"/>
<feColorMatrix in="SourceAlpha" type="matrix" values="0 0 0 0 0 0 0 0 0 0 0 0 0 0 0 0 0 0 127 0" result="hardAlpha"/>
<feOffset dx="1" dy="2"/>
<feComposite in2="hardAlpha" operator="out"/>
<feColorMatrix type="matrix" values="0 0 0 0 0 0 0 0 0 0 0 0 0 0 0 0 0 0 1 0"/>
<feBlend mode="normal" in2="BackgroundImageFix" result="effect1_dropShadow_3420_3007"/>
<feBlend mode="normal" in="SourceGraphic" in2="effect1_dropShadow_3420_3007" result="shape"/>
</filter>
</defs>
</svg>
