<svg width="15" height="14" viewBox="0 0 15 14" fill="none" xmlns="http://www.w3.org/2000/svg">
<path d="M7.66751 3.02024C7.90124 4.24544 8.51477 6.2246 9.6834 6.72724C10.852 7.22989 12.4297 5.43922 12.8387 4.15119C11.7577 3.39722 12.3713 1.60655 13.6568 1.82646C14.9423 2.04637 14.9715 3.74279 13.9197 4.21402C12.8679 4.68525 13.5983 4.27685 13.5691 4.3711L12.4589 10.5913H2.14572L1.03552 4.3711C1.03552 4.30827 0.684931 4.21402 0.597283 4.18261C-0.337623 3.64855 -0.133112 2.04637 0.918657 1.85788C1.97043 1.66939 2.8469 3.42864 1.76592 4.18261C2.05807 5.03082 2.67161 6.09894 3.43122 6.57017C5.47633 7.88961 6.67417 4.68525 6.93712 3.02024C6.00221 2.76892 5.56397 1.57514 6.06064 0.695512C6.55731 -0.184116 7.98889 -0.278362 8.54399 0.695512C9.09909 1.66939 8.60242 2.76892 7.66751 3.02024Z" fill="currentColor"/>
<path d="M2.43779 11.2822H12.1082C13.1308 11.4707 13.0723 13.0101 12.0498 13.1357H2.52544C1.5321 13.0101 1.44445 11.5335 2.40857 11.2822H2.43779Z" fill="currentColor"/>
</svg>
