<svg width="18" height="18" viewBox="0 0 18 18" fill="none" xmlns="http://www.w3.org/2000/svg">
<g clip-path="url(#clip0_450_1730)">
<path d="M10.9277 0.0280954L16.77 0.017565C16.791 0.017565 16.812 0.017565 16.8296 0.0210751C17.4429 0.119359 17.895 0.582698 17.9721 1.20048C18.0492 1.81827 17.9721 1.23207 17.9721 1.24962V9.23168C17.9721 9.24573 17.9721 9.25977 17.9721 9.27732C17.895 9.99338 17.3763 10.4462 16.6613 10.4988C14.8564 10.6357 12.8833 10.3971 11.0574 10.4953C11.0363 10.4953 11.0153 10.4953 10.9943 10.4953C10.4511 10.4322 10.02 10.1233 9.83073 9.61078C9.64147 9.0983 9.80619 9.53005 9.80619 9.49144C9.67652 6.78161 9.78517 4.0437 9.75012 1.32334C9.75012 1.3093 9.75012 1.29526 9.75012 1.28122C9.8132 0.63886 10.2268 0.15095 10.8611 0.0386258C11.4954 -0.0736987 10.9032 0.0316055 10.9277 0.0316055V0.0280954ZM10.8646 1.52342V8.993C10.8646 9.20711 11.0363 9.37911 11.2501 9.37911H16.4686C16.6824 9.37911 16.8541 9.20711 16.8541 8.993V1.52342C16.8541 1.3093 16.6824 1.1373 16.4686 1.1373H11.2501C11.0363 1.1373 10.8646 1.3093 10.8646 1.52342Z" fill="currentColor"/>
<path d="M1.23378 7.49781C1.25832 7.49781 1.28285 7.49781 1.30388 7.49781C3.72561 7.48377 4.62631 7.49079 6.99547 7.48728C8.47075 7.46484 8.27117 8.25898 8.27117 8.7755C8.27117 9.29203 8.27117 8.80709 8.27117 8.82114V16.6523C8.23962 17.3543 7.73846 17.958 7.02701 17.9651C4.65785 17.9966 3.85177 18.0107 1.26883 17.9615C1.23378 17.9615 1.19874 17.9615 1.16369 17.958C0.567895 17.8527 0.122802 17.3929 0.0456988 16.7892C-0.031404 16.1854 0.0421941 16.747 0.0421941 16.726V8.72636C0.0421941 8.7053 0.0421941 8.68775 0.0456988 8.66669C0.122802 8.05241 0.606447 7.5645 1.22327 7.50132L1.23378 7.49781ZM1.1707 9.10195V16.3469C1.1707 16.6207 1.39149 16.8453 1.66836 16.8453H6.66252C6.93589 16.8453 7.16019 16.6242 7.16019 16.3469V9.10195C7.16019 8.82815 6.93939 8.60351 6.66252 8.60351H1.66836C1.395 8.60351 1.1707 8.82464 1.1707 9.10195Z" fill="currentColor"/>
<path d="M10.9311 11.9836C10.9521 11.9836 10.9731 11.9836 10.9941 11.9836C12.8376 12.0644 14.8353 11.8327 16.6577 11.9696C17.3691 12.0222 17.9439 12.4856 17.9684 13.2157C18.014 14.4442 17.9965 15.5359 17.9649 16.7504C17.9334 17.9649 17.9649 16.8066 17.9614 16.8311C17.8598 17.4349 17.4077 17.8842 16.7979 17.9614C16.1881 18.0386 16.7523 17.9614 16.7278 17.9614C14.6776 18.0105 13.2932 18.007 10.9836 17.9614C10.4334 17.9509 9.96728 17.5507 9.80606 17.0277C9.64485 16.5047 9.79204 16.9645 9.79204 16.9294C9.77101 15.757 9.64485 14.4056 9.74298 13.2473C9.84111 12.0889 10.2617 12.0679 10.9276 11.9801L10.9311 11.9836ZM10.8645 13.4789V16.4555C10.8645 16.6697 11.0397 16.8452 11.2535 16.8452H16.4649C16.6787 16.8452 16.854 16.6697 16.854 16.4555V13.4789C16.854 13.2648 16.6787 13.0893 16.4649 13.0893H11.2535C11.0397 13.0893 10.8645 13.2648 10.8645 13.4789Z" fill="currentColor"/>
<path d="M1.11453 0.0387229C1.14607 0.0317026 1.18112 0.0317026 1.21616 0.0317026C3.37154 -0.0279698 5.03976 0.0211722 7.03742 0.017662C7.7664 0.017662 8.25705 0.621406 8.28158 1.33045C8.32364 2.72398 8.30612 3.26454 8.27808 4.69668C8.27808 4.71774 8.27808 4.74231 8.27808 4.76337C8.19397 5.47242 7.71383 5.93927 7.00238 6.00947C6.29093 6.07967 6.96383 6.00947 6.9428 6.00947C4.38439 6.03404 3.4942 6.02702 1.37037 6.00947C0.679947 6.00596 0.122704 5.50401 0.0596199 4.79847C-0.0420156 3.6647 0.0280779 2.63623 0.0596199 1.23217C0.0596199 1.20409 0.0596199 1.1725 0.0631246 1.14442C0.154246 0.582795 0.557284 0.161578 1.11453 0.0387229ZM1.1706 1.54457V4.48256C1.1706 4.70721 1.35284 4.88974 1.57714 4.88974H6.75355C6.97784 4.88974 7.16009 4.70721 7.16009 4.48256V1.54457C7.16009 1.31992 6.97784 1.1374 6.75355 1.1374H1.57714C1.35284 1.1374 1.1706 1.31992 1.1706 1.54457Z" fill="currentColor"/>
</g>
<defs>
<clipPath id="clip0_450_1730">
<rect width="18" height="18" fill="currentColor"/>
</clipPath>
</defs>
</svg>
