<svg width="18" height="20" viewBox="0 0 18 20" fill="none" xmlns="http://www.w3.org/2000/svg">
<path d="M10.8334 0.833008H3.50008C3.01385 0.833008 2.54754 1.02616 2.20372 1.36998C1.8599 1.7138 1.66675 2.18011 1.66675 2.66634V17.333C1.66675 17.8192 1.8599 18.2856 2.20372 18.6294C2.54754 18.9732 3.01385 19.1663 3.50008 19.1663H14.5001C14.9863 19.1663 15.4526 18.9732 15.7964 18.6294C16.1403 18.2856 16.3334 17.8192 16.3334 17.333V6.33301M10.8334 0.833008L16.3334 6.33301M10.8334 0.833008V6.33301H16.3334M12.6667 10.9163H5.33341M12.6667 14.583H5.33341M7.16675 7.24967H5.33341" stroke="#434343" stroke-width="1.5" stroke-linecap="round" stroke-linejoin="round"/>
</svg>
