<svg width="17" height="17" viewBox="0 0 17 17" fill="none" xmlns="http://www.w3.org/2000/svg">
<g clip-path="url(#clip0_3374_392)">
<path d="M7.79175 2.83366H2.83341C2.45769 2.83366 2.09736 2.98291 1.83168 3.24859C1.566 3.51427 1.41675 3.8746 1.41675 4.25032V14.167C1.41675 14.5427 1.566 14.903 1.83168 15.1687C2.09736 15.4344 2.45769 15.5837 2.83341 15.5837H12.7501C13.1258 15.5837 13.4861 15.4344 13.7518 15.1687C14.0175 14.903 14.1667 14.5427 14.1667 14.167V9.20866M13.1042 1.77116C13.386 1.48936 13.7682 1.33105 14.1667 1.33105C14.5653 1.33105 14.9475 1.48936 15.2292 1.77116C15.511 2.05295 15.6693 2.43514 15.6693 2.83366C15.6693 3.23217 15.511 3.61436 15.2292 3.89616L8.50008 10.6253L5.66675 11.3337L6.37508 8.50032L13.1042 1.77116Z" stroke="#1E1E1E" stroke-width="1.5" stroke-linecap="round" stroke-linejoin="round"/>
</g>
<defs>
<clipPath id="clip0_3374_392">
<rect width="17" height="17" fill="white"/>
</clipPath>
</defs>
</svg>
