<svg width="15" height="14" viewBox="0 0 15 14" fill="none" xmlns="http://www.w3.org/2000/svg">
<g clip-path="url(#clip0_3374_393)">
<path d="M11.2125 10.4647C10.1441 11.2248 8.84319 11.6458 7.5 11.6663C3.125 11.6663 0.625 6.99967 0.625 6.99967C1.40243 5.64745 2.48071 4.46603 3.7875 3.53467M6.1875 2.47301C6.61771 2.37902 7.05817 2.33204 7.5 2.33301C11.875 2.33301 14.375 6.99967 14.375 6.99967C13.9956 7.66211 13.5432 8.28577 13.025 8.86051M8.825 8.23634C8.65334 8.40828 8.44634 8.54618 8.21635 8.64183C7.98635 8.73748 7.73806 8.78891 7.48631 8.79305C7.23455 8.7972 6.98448 8.75398 6.75101 8.66596C6.51754 8.57795 6.30545 8.44694 6.1274 8.28076C5.94936 8.11459 5.809 7.91664 5.71469 7.69874C5.62039 7.48083 5.57408 7.24743 5.57852 7.01246C5.58296 6.77748 5.63807 6.54575 5.74055 6.33109C5.84303 6.11642 5.99078 5.92322 6.175 5.76301M0.625 0.583008L14.375 13.4163" stroke="currentColor" stroke-width="1.2" stroke-linecap="round" stroke-linejoin="round"/>
</g>
<defs>
<clipPath id="clip0_3374_393">
<rect width="15" height="14" fill="currentColor"/>
</clipPath>
</defs>
</svg>
