<svg width="19" height="25" viewBox="0 0 19 25" fill="none" xmlns="http://www.w3.org/2000/svg">
<g clip-path="url(#clip0_2962_1626)">
<path d="M9.53807 25C4.90954 25 0.971447 21.7413 0.153143 17.2607C-0.281581 14.8167 0.127571 10.5143 2.40348 8.57943C2.81263 8.22301 3.14507 8.07026 3.45193 8.07026C4.1168 8.07026 4.27024 8.75764 4.42367 9.31772C4.47481 9.49593 4.50038 9.67413 4.55153 9.82688C4.7561 10.4379 5.2164 11.4562 6.08585 11.9145C6.11142 10.2851 6.23928 8.57943 6.674 6.9501C7.3133 4.73523 8.84762 2.36762 10.7144 0.763747C11.5583 0.0763747 11.7373 0.0509165 11.8395 0C11.9163 0 11.993 0 12.0441 0C12.9136 0 12.9391 0.967413 12.9391 1.42566C12.9391 1.55295 12.9391 1.65479 12.9391 1.73116C13.1693 3.51324 14.4223 5.19348 15.5986 6.82281C16.2635 7.71385 16.9284 8.63035 17.4398 9.54684C18.7184 11.9399 19.2299 14.613 18.8463 17.057C18.4371 19.7301 17.0307 21.9196 14.7803 23.4216C13.1949 24.4654 11.3793 25.0255 9.5125 25.0255L9.53807 25ZM6.92972 19.501C6.77629 20.3411 6.80186 21.4104 7.49231 22.276C8.00375 22.9124 8.71976 23.2434 9.48692 23.2434C10.2541 23.2434 11.4815 22.6069 11.9163 21.5886C12.3254 20.5957 12.1976 19.3737 11.5583 18.2026C11.3793 17.8717 11.1491 17.5407 10.919 17.2098C10.6121 16.777 10.3052 16.3442 10.0751 15.8605C9.66593 16.4969 9.41021 17.3116 9.35906 18.3045C9.35906 18.3809 9.35906 18.5081 9.35906 18.6354C9.35906 19.0937 9.38464 19.6029 9.12892 19.9083C9.00106 20.0356 8.79648 20.2139 8.4129 20.2139C8.02932 20.2139 7.46674 19.9847 7.18544 19.7811C7.08316 19.7047 7.00644 19.6283 6.92972 19.5265V19.501ZM10.5865 13.111C11.3537 13.1365 11.4048 13.8493 11.4304 14.1548C11.4304 14.2057 11.4304 14.2821 11.4304 14.333C11.5583 15.0713 11.9674 15.6568 12.4277 16.2678C12.6579 16.5988 12.9136 16.9297 13.1181 17.3116C13.9876 18.89 14.141 20.5957 13.6296 22.0214C14.8826 21.2322 15.9311 20.0356 16.5448 18.6609C17.6955 16.0642 17.3375 12.7546 15.5475 9.77597C15.0872 9.01222 14.5502 8.27393 14.0132 7.5611C12.9391 6.13544 11.8395 4.65886 11.3793 2.85132C11.3793 2.77495 11.3537 2.72403 11.3281 2.64766C9.6915 4.30244 8.56633 6.28819 8.18275 8.32485C8.02932 9.06314 7.92703 9.95418 7.87589 10.998C7.87589 11.2525 7.87589 11.5326 7.87589 11.8381C7.87589 12.2963 7.87589 12.7546 7.82474 13.1619C7.79917 13.391 7.64574 13.9002 6.80186 13.9002C6.54614 13.9002 6.316 13.8493 6.13699 13.8238C4.90954 13.5692 3.78437 12.5509 3.1195 11.0489L2.96606 10.6925C2.37791 11.5835 1.99433 12.7291 1.86647 14.0275C1.66189 15.9114 1.86647 17.3371 2.45462 18.6864C3.06835 20.0611 4.1168 21.2576 5.36983 22.0468C5.01182 21.054 4.96068 19.8829 5.26754 18.7373C5.36983 18.3809 5.90684 16.9043 6.75072 16.7261C6.85301 16.7261 6.92972 16.7006 7.03201 16.7006C7.39002 16.7006 7.5946 16.8788 7.74803 17.0825C7.9526 16.0642 8.38733 15.1477 9.0522 14.3075C9.28235 14.0275 10.0239 13.1365 10.5865 13.1365H10.6121L10.5865 13.111Z" fill="#414141"/>
</g>
<defs>
<clipPath id="clip0_2962_1626">
<rect width="19" height="25" fill="white"/>
</clipPath>
</defs>
</svg>
