<svg width="22" height="14" viewBox="0 0 22 14" fill="none" xmlns="http://www.w3.org/2000/svg">
<g clip-path="url(#clip0_450_1707)">
<path d="M2.94458 1.14869C5.40335 -1.29807 8.2404 0.952451 10.9786 0.969152C13.2095 0.981678 15.6898 -0.692643 17.9379 0.334496C20.891 1.68314 22.1118 7.85015 21.9872 10.6978C21.8238 14.393 19.7089 14.8021 16.8633 12.8355C15.5909 11.9545 14.8473 10.8898 13.274 10.4472C11.7179 10.0088 9.79647 10.038 8.27479 10.5934C7.07119 11.0318 6.18139 12.1132 5.13684 12.8355C2.35138 14.7604 0.197802 14.4556 0.0129645 10.7771C-0.128888 8.03805 0.919959 3.16122 2.94458 1.14869ZM5.45493 1.01926C3.38303 1.2155 2.37287 3.58711 1.84845 5.2656C1.32402 6.9441 0.580374 10.727 1.34981 12.3554C1.9946 13.7124 3.7742 12.5641 4.60382 11.9838C5.43344 11.4034 6.21578 10.5266 7.13997 10.0297C9.09581 8.97333 12.1349 8.90235 14.1896 9.72907C15.4061 10.2176 16.1583 11.1612 17.1857 11.9044C18.9567 13.1821 20.7707 13.9796 20.9598 10.9942C21.1189 8.48481 20.1775 3.29066 18.0583 1.63721C16.0982 0.109027 13.1365 1.98377 10.8883 1.92949C8.64016 1.87521 7.16146 0.860593 5.45064 1.02343L5.45493 1.01926Z" fill="currentColor"/>
<path d="M7.488 4.04183C9.40945 4.31323 9.42235 6.93536 7.4837 7.1316C7.27737 8.97712 4.58647 9.00634 4.32856 7.16918C2.35982 6.86856 2.36412 4.29653 4.34146 4.04183C4.54779 2.20467 7.26447 2.20885 7.488 4.04183ZM7.81039 5.99173C8.09839 5.71198 7.95224 5.13995 7.53528 5.05645C7.11832 4.97294 6.94638 5.1483 6.66268 4.90196C6.37897 4.65561 6.5767 4.2673 6.42196 3.92492C6.26721 3.58254 5.63102 3.49486 5.4075 3.89152C5.18397 4.28818 5.47198 4.62638 5.16248 4.90196C4.8186 5.20676 4.31567 4.8602 3.98038 5.25269C3.64509 5.64517 3.9245 6.06688 4.32856 6.12534C4.73263 6.18379 4.93466 6.02513 5.18397 6.29235C5.45048 6.58045 5.25705 6.88108 5.36451 7.19841C5.54505 7.72868 6.40476 7.65352 6.48644 7.06062C6.52512 6.7767 6.39617 6.50112 6.66268 6.27565C6.92919 6.05018 7.4751 6.30488 7.80609 5.98755L7.81039 5.99173Z" fill="currentColor"/>
<path d="M15.7628 4.64737C16.2922 4.64737 16.7214 4.2305 16.7214 3.71626C16.7214 3.20203 16.2922 2.78516 15.7628 2.78516C15.2334 2.78516 14.8042 3.20203 14.8042 3.71626C14.8042 4.2305 15.2334 4.64737 15.7628 4.64737Z" fill="currentColor"/>
<path d="M13.8199 6.53067C14.3493 6.53067 14.7785 6.1138 14.7785 5.59956C14.7785 5.08533 14.3493 4.66846 13.8199 4.66846C13.2905 4.66846 12.8613 5.08533 12.8613 5.59956C12.8613 6.1138 13.2905 6.53067 13.8199 6.53067Z" fill="currentColor"/>
<path d="M17.7057 6.52623C18.2328 6.52623 18.66 6.11122 18.66 5.59929C18.66 5.08736 18.2328 4.67236 17.7057 4.67236C17.1787 4.67236 16.7515 5.08736 16.7515 5.59929C16.7515 6.11122 17.1787 6.52623 17.7057 6.52623Z" fill="currentColor"/>
<path d="M15.7629 8.41343C16.2899 8.41343 16.7172 7.99843 16.7172 7.4865C16.7172 6.97457 16.2899 6.55957 15.7629 6.55957C15.2358 6.55957 14.8086 6.97457 14.8086 7.4865C14.8086 7.99843 15.2358 8.41343 15.7629 8.41343Z" fill="currentColor"/>
</g>
<defs>
<clipPath id="clip0_450_1707">
<rect width="22" height="14" fill="currentColor"/>
</clipPath>
</defs>
</svg>
