<svg width="25" height="25" viewBox="0 0 25 25" fill="none" xmlns="http://www.w3.org/2000/svg">
<path d="M12.4999 22.9167C11.0763 22.9167 9.73082 22.6432 8.46346 22.0964C7.1961 21.5495 6.08933 20.803 5.14315 19.8568C4.19697 18.9106 3.45044 17.8038 2.90356 16.5365C2.35669 15.2691 2.08325 13.9236 2.08325 12.5C2.08325 11.059 2.35669 9.70921 2.90356 8.45053C3.45044 7.19185 4.19697 6.08942 5.14315 5.14324C6.08933 4.19706 7.1961 3.45053 8.46346 2.90366C9.73082 2.35678 11.0763 2.08334 12.4999 2.08334C13.9409 2.08334 15.2907 2.35678 16.5494 2.90366C17.8081 3.45053 18.9105 4.19706 19.8567 5.14324C20.8029 6.08942 21.5494 7.19185 22.0963 8.45053C22.6431 9.70921 22.9166 11.059 22.9166 12.5C22.9166 13.9236 22.6431 15.2691 22.0963 16.5365C21.5494 17.8038 20.8029 18.9106 19.8567 19.8568C18.9105 20.803 17.8081 21.5495 16.5494 22.0964C15.2907 22.6432 13.9409 22.9167 12.4999 22.9167ZM12.4999 20.7813C12.9513 20.1563 13.3419 19.5052 13.6718 18.8281C14.0017 18.1511 14.2708 17.4306 14.4791 16.6667H10.5208C10.7291 17.4306 10.9982 18.1511 11.328 18.8281C11.6579 19.5052 12.0485 20.1563 12.4999 20.7813ZM9.79159 20.3646C9.47909 19.7917 9.20565 19.1971 8.97127 18.5807C8.7369 17.9644 8.54159 17.3264 8.38534 16.6667H5.31242C5.81589 17.5347 6.44523 18.2899 7.20044 18.9323C7.95565 19.5747 8.81936 20.0521 9.79159 20.3646ZM15.2083 20.3646C16.1805 20.0521 17.0442 19.5747 17.7994 18.9323C18.5546 18.2899 19.1839 17.5347 19.6874 16.6667H16.6145C16.4583 17.3264 16.2629 17.9644 16.0286 18.5807C15.7942 19.1971 15.5208 19.7917 15.2083 20.3646ZM4.427 14.5833H7.96867C7.91659 14.2361 7.87752 13.8932 7.85148 13.5547C7.82544 13.2162 7.81242 12.8646 7.81242 12.5C7.81242 12.1354 7.82544 11.7839 7.85148 11.4453C7.87752 11.1068 7.91659 10.7639 7.96867 10.4167H4.427C4.3402 10.7639 4.27509 11.1068 4.23169 11.4453C4.18829 11.7839 4.16659 12.1354 4.16659 12.5C4.16659 12.8646 4.18829 13.2162 4.23169 13.5547C4.27509 13.8932 4.3402 14.2361 4.427 14.5833ZM10.052 14.5833H14.9478C14.9999 14.2361 15.039 13.8932 15.065 13.5547C15.0911 13.2162 15.1041 12.8646 15.1041 12.5C15.1041 12.1354 15.0911 11.7839 15.065 11.4453C15.039 11.1068 14.9999 10.7639 14.9478 10.4167H10.052C9.99992 10.7639 9.96086 11.1068 9.93481 11.4453C9.90877 11.7839 9.89575 12.1354 9.89575 12.5C9.89575 12.8646 9.90877 13.2162 9.93481 13.5547C9.96086 13.8932 9.99992 14.2361 10.052 14.5833ZM17.0312 14.5833H20.5728C20.6596 14.2361 20.7247 13.8932 20.7681 13.5547C20.8116 13.2162 20.8333 12.8646 20.8333 12.5C20.8333 12.1354 20.8116 11.7839 20.7681 11.4453C20.7247 11.1068 20.6596 10.7639 20.5728 10.4167H17.0312C17.0833 10.7639 17.1223 11.1068 17.1484 11.4453C17.1744 11.7839 17.1874 12.1354 17.1874 12.5C17.1874 12.8646 17.1744 13.2162 17.1484 13.5547C17.1223 13.8932 17.0833 14.2361 17.0312 14.5833ZM16.6145 8.33334H19.6874C19.1839 7.46529 18.5546 6.71008 17.7994 6.06772C17.0442 5.42536 16.1805 4.94793 15.2083 4.63543C15.5208 5.20834 15.7942 5.80296 16.0286 6.41928C16.2629 7.0356 16.4583 7.67362 16.6145 8.33334ZM10.5208 8.33334H14.4791C14.2708 7.56946 14.0017 6.84897 13.6718 6.17189C13.3419 5.4948 12.9513 4.84376 12.4999 4.21876C12.0485 4.84376 11.6579 5.4948 11.328 6.17189C10.9982 6.84897 10.7291 7.56946 10.5208 8.33334ZM5.31242 8.33334H8.38534C8.54159 7.67362 8.7369 7.0356 8.97127 6.41928C9.20565 5.80296 9.47909 5.20834 9.79159 4.63543C8.81936 4.94793 7.95565 5.42536 7.20044 6.06772C6.44523 6.71008 5.81589 7.46529 5.31242 8.33334Z" fill="#414141"/>
</svg>
