<svg width="28" height="29" viewBox="0 0 28 29" fill="none" xmlns="http://www.w3.org/2000/svg">
<g clip-path="url(#clip0_3277_12179)">
<path d="M26.956 19.057C28.6194 12.1254 24.1732 5.1987 17.0251 3.58568C9.87702 1.97267 2.73388 6.28417 1.07047 13.2157C-0.592943 20.1472 3.85327 27.074 11.0014 28.687C18.1495 30.3 25.2926 25.9885 26.956 19.057Z" fill="url(#paint0_linear_3277_12179)"/>
<path d="M13.9866 27.6723C21.7112 27.6723 27.9732 21.6 27.9732 14.1095C27.9732 6.61892 21.7112 0.546631 13.9866 0.546631C6.262 0.546631 0 6.61892 0 14.1095C0 21.6 6.262 27.6723 13.9866 27.6723Z" fill="#FCFBCC"/>
<path d="M13.9866 27.1257C21.7112 27.1257 27.9732 21.0534 27.9732 13.5628C27.9732 6.07229 21.7112 0 13.9866 0C6.262 0 0 6.07229 0 13.5628C0 21.0534 6.262 27.1257 13.9866 27.1257Z" fill="url(#paint1_linear_3277_12179)"/>
<path d="M25.557 16.1934C27.0457 9.99006 23.0666 3.79099 16.6694 2.34742C10.2722 0.903849 3.87946 4.76243 2.39079 10.9658C0.902119 17.1692 4.88125 23.3682 11.2784 24.8118C17.6756 26.2554 24.0684 22.3968 25.557 16.1934Z" fill="url(#paint2_radial_3277_12179)"/>
<path d="M13.9864 3.72271C20.2682 3.72271 25.3958 8.43456 25.8521 14.422C25.8521 14.1356 25.879 13.8493 25.879 13.589C25.879 7.21104 20.5367 2.05664 13.9864 2.05664C7.43603 2.05664 2.09375 7.18501 2.09375 13.5629C2.09375 19.9408 2.09375 14.1356 2.1206 14.396C2.57697 8.40853 7.70449 3.69668 13.9864 3.69668V3.72271Z" fill="url(#paint3_linear_3277_12179)"/>
<path d="M12.6169 6.79446C12.8854 6.27381 13.4223 5.96143 14.0129 5.96143C14.6035 5.96143 15.1404 6.27381 15.4089 6.79446L17.2612 10.439L21.4223 11.0377C22.0129 11.1158 22.4961 11.5063 22.6572 12.053C22.8451 12.5997 22.684 13.1984 22.2545 13.5889L19.2478 16.4264L19.9458 20.4354C20.0532 21.0081 19.8115 21.5548 19.3283 21.8932C18.8451 22.2316 18.2277 22.2837 17.6907 21.9973L13.9592 20.097L10.2276 21.9973C9.71758 22.2577 9.07329 22.2056 8.59007 21.8932C8.10684 21.5548 7.86523 20.9821 7.97262 20.4354L8.6706 16.4264L5.66389 13.5889C5.23436 13.1984 5.10013 12.5997 5.26121 12.053C5.44913 11.5063 5.93235 11.1158 6.49611 11.0377L10.6572 10.439L12.5095 6.79446H12.6169Z" fill="#B70D02"/>
<path d="M12.6169 6.27371C12.8854 5.75306 13.4223 5.44067 14.0129 5.44067C14.6035 5.44067 15.1404 5.75306 15.4089 6.27371L17.2612 9.91823L21.4223 10.517C22.0129 10.5951 22.4961 10.9856 22.6572 11.5322C22.8451 12.0789 22.684 12.6777 22.2545 13.0681L19.2478 15.9057L19.9458 19.9146C20.0532 20.4874 19.8115 21.034 19.3283 21.3725C18.8451 21.7109 18.2277 21.7629 17.6907 21.4766L13.9592 19.5762L10.2276 21.4766C9.71758 21.7369 9.07329 21.6848 8.59007 21.3725C8.10684 21.034 7.86523 20.4613 7.97262 19.9146L8.6706 15.9057L5.66389 13.0681C5.23436 12.6777 5.10013 12.0789 5.26121 11.5322C5.44913 10.9856 5.93235 10.5951 6.49611 10.517L10.6572 9.91823L12.5095 6.27371H12.6169Z" fill="url(#paint4_linear_3277_12179)"/>
<path d="M18.4438 21.1904C18.2827 21.1904 18.1216 21.1384 17.9605 21.0863L13.9874 19.0558L10.0142 21.0863C9.88 21.1644 9.69208 21.1904 9.531 21.1904C9.36993 21.1904 9.10147 21.1123 8.9404 21.0082C8.61825 20.7739 8.45718 20.4095 8.53771 20.045L9.28939 15.7757L6.09476 12.756C5.82631 12.4956 5.71892 12.1051 5.82631 11.7407C5.93369 11.3762 6.25584 11.1159 6.65852 11.0639L11.0881 10.4391L13.0746 6.53423C13.2357 6.19581 13.6115 5.98755 13.9874 5.98755C14.3632 5.98755 14.7391 6.19581 14.9001 6.53423L16.8867 10.4391L21.3162 11.0639C21.6921 11.1159 22.0142 11.3762 22.1485 11.7407C22.2827 12.1051 22.1485 12.4956 21.88 12.756L18.6854 15.7757L19.437 20.045C19.4907 20.4095 19.3565 20.7999 19.0344 21.0082C18.8464 21.1384 18.6585 21.1904 18.4438 21.1904Z" fill="url(#paint5_linear_3277_12179)"/>
<path d="M18.7389 17.9883C18.7389 18.7432 18.6316 19.4721 18.202 19.6023C17.2893 19.8886 15.1953 19.2899 15.1953 19.2899L18.1215 20.7737C18.2289 20.8258 18.3363 20.8518 18.4436 20.8518C18.551 20.8518 18.7121 20.7998 18.8463 20.7217C19.0611 20.5655 19.1685 20.3312 19.1148 20.0969L18.7389 17.9883Z" fill="url(#paint6_linear_3277_12179)"/>
<path d="M21.2896 11.376L17.3164 10.8293C17.3164 10.8293 20.35 11.6624 20.9674 12.183C21.209 12.3913 21.2627 12.6516 21.2359 12.9119L21.6654 12.4954C21.8533 12.3132 21.907 12.0529 21.8265 11.8186C21.7459 11.5843 21.5312 11.4021 21.2896 11.376Z" fill="url(#paint7_linear_3277_12179)"/>
<path d="M8.00025 11.3762L6.95327 11.5064C6.68482 11.5324 6.4969 11.7146 6.41636 11.9489C6.33582 12.1832 6.41636 12.4435 6.57743 12.6258L8.05394 14.0836C7.57072 13.3547 7.16804 12.5997 7.27542 12.2353C7.35596 11.9489 7.65126 11.6365 8.00025 11.3762Z" fill="url(#paint8_linear_3277_12179)"/>
<path d="M11.7854 12.7297C10.0941 12.7297 8.51025 13.0942 7.16797 13.745L9.28877 15.7495L8.5371 20.0188C8.4834 20.3832 8.61763 20.7737 8.93978 20.982C9.1277 21.1121 9.31562 21.1642 9.53038 21.1642C9.74515 21.1642 9.85253 21.1121 10.0136 21.0601L13.9868 19.0296L17.9599 21.0601C18.0941 21.1382 18.2821 21.1642 18.4431 21.1642C18.6042 21.1642 18.8727 21.0861 19.0337 20.982C19.3559 20.7477 19.517 20.3832 19.4364 20.0188L18.6847 15.7495L18.8995 15.5412C17.3156 13.8491 14.7384 12.7297 11.7854 12.7297Z" fill="url(#paint9_linear_3277_12179)"/>
</g>
<defs>
<linearGradient id="paint0_linear_3277_12179" x1="0.718996" y1="16.1299" x2="27.323" y2="16.1299" gradientUnits="userSpaceOnUse">
<stop offset="0.3" stop-color="#791E0B"/>
<stop offset="0.5" stop-color="#B70D02"/>
<stop offset="0.7" stop-color="#791E0B"/>
</linearGradient>
<linearGradient id="paint1_linear_3277_12179" x1="13.9329" y1="-0.208258" x2="14.0591" y2="25.5377" gradientUnits="userSpaceOnUse">
<stop stop-color="#FDEBA0"/>
<stop offset="0.5" stop-color="#FFD86C"/>
<stop offset="0.6" stop-color="#FCFBCC"/>
<stop offset="1" stop-color="#FEE183"/>
</linearGradient>
<radialGradient id="paint2_radial_3277_12179" cx="0" cy="0" r="1" gradientUnits="userSpaceOnUse" gradientTransform="translate(13.9655 13.5605) scale(11.8926 11.5323)">
<stop offset="0.5" stop-color="#F89D3C"/>
<stop offset="1" stop-color="#E76503"/>
</radialGradient>
<linearGradient id="paint3_linear_3277_12179" x1="2.09375" y1="8.2263" x2="25.9058" y2="8.2263" gradientUnits="userSpaceOnUse">
<stop offset="0.3" stop-color="#791E0B"/>
<stop offset="0.5" stop-color="#B70D02"/>
<stop offset="0.7" stop-color="#791E0B"/>
</linearGradient>
<linearGradient id="paint4_linear_3277_12179" x1="13.9592" y1="5.33654" x2="14.0349" y2="20.7477" gradientUnits="userSpaceOnUse">
<stop stop-color="#FDEBA0"/>
<stop offset="0.5" stop-color="#FFD86C"/>
<stop offset="0.6" stop-color="#FCFBCC"/>
<stop offset="1" stop-color="#FEE183"/>
</linearGradient>
<linearGradient id="paint5_linear_3277_12179" x1="13.9605" y1="5.83135" x2="14.0615" y2="24.0019" gradientUnits="userSpaceOnUse">
<stop stop-color="#FCFBCC"/>
<stop offset="0.4" stop-color="#FFD86C"/>
<stop offset="0.7" stop-color="#F58327"/>
<stop offset="1" stop-color="#FDEBA0"/>
</linearGradient>
<linearGradient id="paint6_linear_3277_12179" x1="17.1282" y1="18.8473" x2="18.6485" y2="21.0264" gradientUnits="userSpaceOnUse">
<stop stop-color="#FDEBA0" stop-opacity="0"/>
<stop offset="1" stop-color="#FCFBCC"/>
</linearGradient>
<linearGradient id="paint7_linear_3277_12179" x1="18.256" y1="11.7405" x2="21.9583" y2="12.1278" gradientUnits="userSpaceOnUse">
<stop stop-color="#FDEBA0" stop-opacity="0"/>
<stop offset="1" stop-color="#FCFBCC"/>
</linearGradient>
<linearGradient id="paint8_linear_3277_12179" x1="8.29556" y1="12.782" x2="6.01987" y2="12.285" gradientUnits="userSpaceOnUse">
<stop stop-color="#FDEBA0" stop-opacity="0"/>
<stop offset="1" stop-color="#FCFBCC"/>
</linearGradient>
<linearGradient id="paint9_linear_3277_12179" x1="14.6311" y1="11.9227" x2="12.7565" y2="19.7073" gradientUnits="userSpaceOnUse">
<stop stop-color="#FCFBCC"/>
<stop offset="1" stop-color="#FDEBA0" stop-opacity="0"/>
</linearGradient>
<clipPath id="clip0_3277_12179">
<rect width="28" height="29" fill="white"/>
</clipPath>
</defs>
</svg>
