<svg width="26" height="28" viewBox="0 0 26 28" fill="none" xmlns="http://www.w3.org/2000/svg">
<g clip-path="url(#clip0_4139_6443)">
<path d="M25.0306 18.3999C26.5752 11.7074 22.4465 5.0195 15.809 3.46211C9.17152 1.90471 2.53861 6.06755 0.994008 12.7601C-0.55059 19.4526 3.57803 26.1404 10.2155 27.6978C16.8531 29.2552 23.486 25.0924 25.0306 18.3999Z" fill="url(#paint0_linear_4139_6443)"/>
<path d="M12.9875 26.7176C20.1604 26.7176 25.9751 20.8547 25.9751 13.6225C25.9751 6.39024 20.1604 0.527344 12.9875 0.527344C5.81472 0.527344 0 6.39024 0 13.6225C0 20.8547 5.81472 26.7176 12.9875 26.7176Z" fill="#FCFBCC"/>
<path d="M12.9875 26.1903C20.1604 26.1903 25.9751 20.3274 25.9751 13.0952C25.9751 5.8629 20.1604 0 12.9875 0C5.81472 0 0 5.8629 0 13.0952C0 20.3274 5.81472 26.1903 12.9875 26.1903Z" fill="url(#paint1_linear_4139_6443)"/>
<path d="M23.7313 15.6351C25.1136 9.64564 21.4187 3.66033 15.4784 2.26654C9.5382 0.872748 3.60208 4.59827 2.21974 10.5877C0.837403 16.5772 4.53231 22.5625 10.4726 23.9563C16.4128 25.3501 22.3489 21.6246 23.7313 15.6351Z" fill="url(#paint2_radial_4139_6443)"/>
<path d="M12.9875 3.59397C18.8207 3.59397 23.5819 8.14334 24.0057 13.9243C24.0057 13.6478 24.0306 13.3713 24.0306 13.12C24.0306 6.96201 19.0699 1.98535 12.9875 1.98535C6.90503 1.98535 1.94434 6.93688 1.94434 13.0949C1.94434 19.2529 1.94434 13.6478 1.96926 13.8992C2.39304 8.11821 7.15431 3.56883 12.9875 3.56883V3.59397Z" fill="url(#paint3_linear_4139_6443)"/>
<path d="M11.7167 6.56017C11.966 6.05748 12.4645 5.75586 13.0129 5.75586C13.5614 5.75586 14.0599 6.05748 14.3092 6.56017L16.0292 10.079L19.8931 10.6571C20.4415 10.7325 20.8902 11.1095 21.0398 11.6374C21.2143 12.1652 21.0647 12.7433 20.6659 13.1203L17.8739 15.86L18.522 19.7307C18.6218 20.2837 18.3974 20.8115 17.9487 21.1383C17.5 21.465 16.9267 21.5153 16.4281 21.2388L12.9631 19.404L9.49808 21.2388C9.02445 21.4901 8.42617 21.4399 7.97747 21.1383C7.52876 20.8115 7.30441 20.2586 7.40412 19.7307L8.05225 15.86L5.2603 13.1203C4.86145 12.7433 4.73681 12.1652 4.88638 11.6374C5.06088 11.1095 5.50958 10.7325 6.03307 10.6571L9.89693 10.079L11.617 6.56017H11.7167Z" fill="#B70D02"/>
<path d="M11.7167 6.05724C11.966 5.55455 12.4645 5.25293 13.0129 5.25293C13.5614 5.25293 14.0599 5.55455 14.3092 6.05724L16.0292 9.57609L19.8931 10.1542C20.4415 10.2296 20.8902 10.6066 21.0398 11.1344C21.2143 11.6623 21.0647 12.2404 20.6659 12.6174L17.8739 15.3571L18.522 19.2278C18.6218 19.7808 18.3974 20.3086 17.9487 20.6353C17.5 20.9621 16.9267 21.0124 16.4281 20.7359L12.9631 18.901L9.49808 20.7359C9.02445 20.9872 8.42617 20.937 7.97747 20.6353C7.52876 20.3086 7.30441 19.7556 7.40412 19.2278L8.05225 15.3571L5.2603 12.6174C4.86145 12.2404 4.73681 11.6623 4.88638 11.1344C5.06088 10.6066 5.50958 10.2296 6.03307 10.1542L9.89693 9.57609L11.617 6.05724H11.7167Z" fill="url(#paint4_linear_4139_6443)"/>
<path d="M17.1255 20.4599C16.9759 20.4599 16.8264 20.4096 16.6768 20.3593L12.9874 18.3988L9.29809 20.3593C9.17345 20.4348 8.99895 20.4599 8.84938 20.4599C8.69981 20.4599 8.45053 20.3845 8.30096 20.2839C8.00182 20.0577 7.85226 19.7058 7.92704 19.354L8.62503 15.2319L5.65858 12.3163C5.4093 12.0649 5.30959 11.6879 5.4093 11.336C5.50902 10.9841 5.80815 10.7328 6.18207 10.6825L10.2952 10.0793L12.1399 6.30908C12.2895 5.98233 12.6385 5.78125 12.9874 5.78125C13.3364 5.78125 13.6854 5.98233 13.835 6.30908L15.6797 10.0793L19.7928 10.6825C20.1418 10.7328 20.4409 10.9841 20.5656 11.336C20.6902 11.6879 20.5656 12.0649 20.3163 12.3163L17.3499 15.2319L18.0478 19.354C18.0977 19.7058 17.9731 20.0829 17.6739 20.2839C17.4994 20.4096 17.3249 20.4599 17.1255 20.4599Z" fill="url(#paint5_linear_4139_6443)"/>
<path d="M17.3999 17.3682C17.3999 18.0971 17.3002 18.8008 16.9013 18.9265C16.0538 19.203 14.1094 18.6249 14.1094 18.6249L16.8265 20.0576C16.9262 20.1078 17.026 20.133 17.1257 20.133C17.2254 20.133 17.375 20.0827 17.4996 20.0073C17.699 19.8565 17.7987 19.6303 17.7489 19.4041L17.3999 17.3682Z" fill="url(#paint6_linear_4139_6443)"/>
<path d="M19.7685 10.9839L16.0791 10.4561C16.0791 10.4561 18.896 11.2604 19.4693 11.7631C19.6937 11.9641 19.7435 12.2155 19.7186 12.4668L20.1175 12.0647C20.2919 11.8887 20.3418 11.6374 20.267 11.4112C20.1922 11.185 19.9928 11.009 19.7685 10.9839Z" fill="url(#paint7_linear_4139_6443)"/>
<path d="M7.42881 10.9834L6.45661 11.1091C6.20733 11.1342 6.03283 11.3101 5.95805 11.5364C5.88326 11.7626 5.95805 12.0139 6.10762 12.1899L7.47866 13.5974C7.02996 12.8936 6.65604 12.1647 6.75575 11.8128C6.83053 11.5364 7.10474 11.2347 7.42881 10.9834Z" fill="url(#paint8_linear_4139_6443)"/>
<path d="M10.9439 12.291C9.37341 12.291 7.90265 12.6429 6.65625 13.2713L8.62557 15.2066L7.92758 19.3287C7.87773 19.6806 8.00237 20.0576 8.3015 20.2587C8.476 20.3844 8.6505 20.4346 8.84992 20.4346C9.04935 20.4346 9.14906 20.3844 9.29863 20.3341L12.988 18.3736L16.6773 20.3341C16.802 20.4095 16.9765 20.4346 17.126 20.4346C17.2756 20.4346 17.5249 20.3592 17.6745 20.2587C17.9736 20.0325 18.1232 19.6806 18.0484 19.3287L17.3504 15.2066L17.5498 15.0056C16.0791 13.3718 13.686 12.291 10.9439 12.291Z" fill="url(#paint9_linear_4139_6443)"/>
</g>
<defs>
<linearGradient id="paint0_linear_4139_6443" x1="0.667638" y1="15.5737" x2="25.3714" y2="15.5737" gradientUnits="userSpaceOnUse">
<stop offset="0.3" stop-color="#791E0B"/>
<stop offset="0.5" stop-color="#B70D02"/>
<stop offset="0.7" stop-color="#791E0B"/>
</linearGradient>
<linearGradient id="paint1_linear_4139_6443" x1="12.9377" y1="-0.201077" x2="13.0644" y2="24.6571" gradientUnits="userSpaceOnUse">
<stop stop-color="#FDEBA0"/>
<stop offset="0.5" stop-color="#FFD86C"/>
<stop offset="0.6" stop-color="#FCFBCC"/>
<stop offset="1" stop-color="#FEE183"/>
</linearGradient>
<radialGradient id="paint2_radial_4139_6443" cx="0" cy="0" r="1" gradientUnits="userSpaceOnUse" gradientTransform="translate(12.9676 13.093) scale(11.0431 11.1346)">
<stop offset="0.5" stop-color="#F89D3C"/>
<stop offset="1" stop-color="#E76503"/>
</radialGradient>
<linearGradient id="paint3_linear_4139_6443" x1="1.94434" y1="7.94226" x2="24.0556" y2="7.94226" gradientUnits="userSpaceOnUse">
<stop offset="0.3" stop-color="#791E0B"/>
<stop offset="0.5" stop-color="#B70D02"/>
<stop offset="0.7" stop-color="#791E0B"/>
</linearGradient>
<linearGradient id="paint4_linear_4139_6443" x1="12.9631" y1="5.15239" x2="13.0391" y2="20.0321" gradientUnits="userSpaceOnUse">
<stop stop-color="#FDEBA0"/>
<stop offset="0.5" stop-color="#FFD86C"/>
<stop offset="0.6" stop-color="#FCFBCC"/>
<stop offset="1" stop-color="#FEE183"/>
</linearGradient>
<linearGradient id="paint5_linear_4139_6443" x1="12.9625" y1="5.63044" x2="13.0639" y2="23.1744" gradientUnits="userSpaceOnUse">
<stop stop-color="#FCFBCC"/>
<stop offset="0.4" stop-color="#FFD86C"/>
<stop offset="0.7" stop-color="#F58327"/>
<stop offset="1" stop-color="#FDEBA0"/>
</linearGradient>
<linearGradient id="paint6_linear_4139_6443" x1="15.9042" y1="18.1976" x2="17.391" y2="20.247" gradientUnits="userSpaceOnUse">
<stop stop-color="#FDEBA0" stop-opacity="0"/>
<stop offset="1" stop-color="#FCFBCC"/>
</linearGradient>
<linearGradient id="paint7_linear_4139_6443" x1="16.9516" y1="11.3358" x2="20.3922" y2="11.682" gradientUnits="userSpaceOnUse">
<stop stop-color="#FDEBA0" stop-opacity="0"/>
<stop offset="1" stop-color="#FCFBCC"/>
</linearGradient>
<linearGradient id="paint8_linear_4139_6443" x1="7.70302" y1="12.3407" x2="5.58264" y2="11.8953" gradientUnits="userSpaceOnUse">
<stop stop-color="#FDEBA0" stop-opacity="0"/>
<stop offset="1" stop-color="#FCFBCC"/>
</linearGradient>
<linearGradient id="paint9_linear_4139_6443" x1="13.5863" y1="11.5118" x2="11.7127" y2="18.9947" gradientUnits="userSpaceOnUse">
<stop stop-color="#FCFBCC"/>
<stop offset="1" stop-color="#FDEBA0" stop-opacity="0"/>
</linearGradient>
<clipPath id="clip0_4139_6443">
<rect width="26" height="28" fill="white"/>
</clipPath>
</defs>
</svg>
