<svg width="19" height="19" viewBox="0 0 19 19" fill="none" xmlns="http://www.w3.org/2000/svg">
<path d="M3.95833 16.625H15.0417C15.9161 16.625 16.625 15.9161 16.625 15.0417V3.95833C16.625 3.08388 15.9161 2.375 15.0417 2.375H3.95833C3.08388 2.375 2.375 3.08388 2.375 3.95833V15.0417C2.375 15.9161 3.08388 16.625 3.95833 16.625ZM3.95833 16.625L12.6667 7.91667L16.625 11.875M7.91667 6.72917C7.91667 7.385 7.385 7.91667 6.72917 7.91667C6.07333 7.91667 5.54167 7.385 5.54167 6.72917C5.54167 6.07333 6.07333 5.54167 6.72917 5.54167C7.385 5.54167 7.91667 6.07333 7.91667 6.72917Z" stroke="currentColor" stroke-linecap="round" stroke-linejoin="round"/>
</svg>
