<svg width="69" height="45" viewBox="0 0 69 45" fill="none" xmlns="http://www.w3.org/2000/svg">
<g filter="url(#filter0_d_3420_3540)">
<path d="M24.4502 34L21.209 27H18C10.8203 27 5 21.1797 5 14C5 6.8203 10.8203 1 18 1H51C58.1797 1 64 6.8203 64 14C64 21.1797 58.1797 27 51 27H27.6924L24.4502 34Z" fill="white"/>
<path d="M24.4502 34L23.5428 34.4202L24.4501 36.3797L25.3576 34.4203L24.4502 34ZM21.209 27L22.1164 26.5798L21.848 26H21.209V27ZM18 27L18 28H18V27ZM18 1L18 0L18 1ZM51 1L51 0H51V1ZM51 27L51 28L51 27ZM27.6924 27V26H27.0535L26.785 26.5797L27.6924 27ZM24.4502 34L25.3576 33.5798L22.1164 26.5798L21.209 27L20.3015 27.4202L23.5428 34.4202L24.4502 34ZM21.209 27V26H18V27V28H21.209V27ZM18 27L18 26C11.3726 26 6 20.6274 6 14H5H4C4 21.732 10.268 28 18 28L18 27ZM5 14H6C6 7.37258 11.3726 2 18 2L18 1L18 0C10.268 7.80543e-08 4 6.26801 4 14H5ZM18 1V2H51V1V0H18V1ZM51 1L51 2C57.6274 2 63 7.37258 63 14H64H65C65 6.26801 58.732 5.89743e-07 51 0L51 1ZM64 14H63C63 20.6274 57.6274 26 51 26L51 27L51 28C58.732 28 65 21.732 65 14H64ZM51 27V26H27.6924V27V28H51V27ZM27.6924 27L26.785 26.5797L23.5428 33.5797L24.4502 34L25.3576 34.4203L28.5998 27.4203L27.6924 27Z" fill="#FCE38A"/>
</g>
<path d="M13.008 18.09C12.84 18.09 12.717 18.063 12.639 18.009C12.561 17.961 12.513 17.895 12.495 17.811C12.477 17.727 12.468 17.634 12.468 17.532V12.339C12.468 12.243 12.477 12.153 12.495 12.069C12.519 11.985 12.567 11.919 12.639 11.871C12.717 11.823 12.843 11.799 13.017 11.799C13.185 11.799 13.305 11.823 13.377 11.871C13.455 11.919 13.503 11.985 13.521 12.069C13.545 12.153 13.557 12.246 13.557 12.348V17.541C13.557 17.643 13.545 17.736 13.521 17.82C13.503 17.898 13.455 17.961 13.377 18.009C13.299 18.063 13.176 18.09 13.008 18.09ZM15.0027 18.081C14.8407 18.081 14.7207 18.057 14.6427 18.009C14.5707 17.961 14.5257 17.895 14.5077 17.811C14.4897 17.727 14.4807 17.637 14.4807 17.541V14.175C14.4807 14.079 14.4897 13.992 14.5077 13.914C14.5257 13.836 14.5737 13.773 14.6517 13.725C14.7297 13.677 14.8527 13.653 15.0207 13.653C15.1947 13.653 15.3207 13.689 15.3987 13.761C15.4827 13.833 15.5247 13.947 15.5247 14.103L15.4437 14.355C15.4737 14.289 15.5247 14.217 15.5967 14.139C15.6687 14.061 15.7557 13.983 15.8577 13.905C15.9657 13.827 16.0857 13.764 16.2177 13.716C16.3497 13.668 16.4877 13.644 16.6317 13.644C16.8297 13.644 17.0097 13.677 17.1717 13.743C17.3397 13.809 17.4867 13.905 17.6127 14.031C17.7447 14.157 17.8587 14.31 17.9547 14.49C18.0567 14.334 18.1707 14.193 18.2967 14.067C18.4227 13.935 18.5697 13.833 18.7377 13.761C18.9057 13.683 19.0947 13.644 19.3047 13.644C19.6527 13.644 19.9437 13.731 20.1777 13.905C20.4177 14.079 20.5977 14.328 20.7177 14.652C20.8437 14.97 20.9067 15.351 20.9067 15.795V17.541C20.9067 17.643 20.8947 17.736 20.8707 17.82C20.8527 17.898 20.8047 17.961 20.7267 18.009C20.6547 18.057 20.5347 18.081 20.3667 18.081C20.1987 18.081 20.0757 18.054 19.9977 18C19.9197 17.952 19.8717 17.889 19.8537 17.811C19.8357 17.727 19.8267 17.634 19.8267 17.532V15.786C19.8267 15.564 19.7997 15.372 19.7457 15.21C19.6917 15.048 19.6107 14.922 19.5027 14.832C19.4007 14.742 19.2657 14.697 19.0977 14.697C18.9177 14.697 18.7617 14.742 18.6297 14.832C18.5037 14.916 18.4047 15.039 18.3327 15.201C18.2607 15.363 18.2247 15.561 18.2247 15.795V17.55C18.2247 17.652 18.2097 17.748 18.1797 17.838C18.1497 17.922 18.0897 17.985 17.9997 18.027C17.9157 18.075 17.7927 18.093 17.6307 18.081C17.4807 18.075 17.3697 18.045 17.2977 17.991C17.2317 17.937 17.1897 17.871 17.1717 17.793C17.1597 17.709 17.1537 17.622 17.1537 17.532V15.786C17.1537 15.564 17.1267 15.372 17.0727 15.21C17.0187 15.042 16.9377 14.916 16.8297 14.832C16.7277 14.742 16.5897 14.697 16.4157 14.697C16.2297 14.697 16.0707 14.745 15.9387 14.841C15.8127 14.937 15.7167 15.066 15.6507 15.228C15.5847 15.39 15.5517 15.576 15.5517 15.786V17.55C15.5517 17.646 15.5397 17.736 15.5157 17.82C15.4977 17.904 15.4497 17.967 15.3717 18.009C15.2997 18.057 15.1767 18.081 15.0027 18.081ZM24.0878 18.027C23.7938 18.027 23.5298 17.973 23.2958 17.865C23.0678 17.751 22.8728 17.595 22.7108 17.397C22.5548 17.193 22.4348 16.959 22.3508 16.695C22.2728 16.431 22.2338 16.146 22.2338 15.84C22.2398 15.534 22.2848 15.249 22.3688 14.985C22.4528 14.715 22.5728 14.481 22.7288 14.283C22.8908 14.085 23.0858 13.929 23.3138 13.815C23.5418 13.701 23.7998 13.644 24.0878 13.644C24.3638 13.644 24.6218 13.701 24.8618 13.815C25.1078 13.929 25.3238 14.088 25.5098 14.292C25.7018 14.496 25.8518 14.733 25.9598 15.003C26.0678 15.267 26.1218 15.552 26.1218 15.858C26.1218 16.17 26.0678 16.458 25.9598 16.722C25.8518 16.986 25.7048 17.217 25.5188 17.415C25.3328 17.607 25.1168 17.757 24.8708 17.865C24.6248 17.973 24.3638 18.027 24.0878 18.027ZM22.2878 19.899C22.1258 19.899 22.0058 19.875 21.9278 19.827C21.8498 19.779 21.8018 19.716 21.7838 19.638C21.7658 19.56 21.7568 19.47 21.7568 19.368V14.193C21.7568 14.091 21.7658 14.001 21.7838 13.923C21.8018 13.845 21.8468 13.782 21.9188 13.734C21.9968 13.68 22.1168 13.653 22.2788 13.653C22.4348 13.653 22.5578 13.677 22.6478 13.725C22.7378 13.773 22.7978 13.854 22.8278 13.968V19.359C22.8338 19.461 22.8248 19.551 22.8008 19.629C22.7828 19.713 22.7348 19.779 22.6568 19.827C22.5788 19.875 22.4558 19.899 22.2878 19.899ZM23.9438 17.019C24.1538 17.019 24.3428 16.971 24.5108 16.875C24.6788 16.773 24.8108 16.635 24.9068 16.461C25.0088 16.281 25.0598 16.08 25.0598 15.858C25.0598 15.63 25.0088 15.429 24.9068 15.255C24.8108 15.081 24.6788 14.946 24.5108 14.85C24.3428 14.748 24.1538 14.697 23.9438 14.697C23.7398 14.697 23.5538 14.748 23.3858 14.85C23.2178 14.952 23.0828 15.09 22.9808 15.264C22.8848 15.432 22.8368 15.63 22.8368 15.858C22.8368 16.08 22.8848 16.281 22.9808 16.461C23.0828 16.635 23.2178 16.773 23.3858 16.875C23.5538 16.971 23.7398 17.019 23.9438 17.019ZM27.4131 18.09C27.2511 18.09 27.1311 18.063 27.0531 18.009C26.9811 17.961 26.9361 17.895 26.9181 17.811C26.9001 17.727 26.8911 17.634 26.8911 17.532V14.193C26.8911 14.085 26.9001 13.992 26.9181 13.914C26.9361 13.83 26.9811 13.767 27.0531 13.725C27.1311 13.677 27.2541 13.653 27.4221 13.653C27.5841 13.653 27.7011 13.674 27.7731 13.716C27.8511 13.758 27.8991 13.812 27.9171 13.878C27.9411 13.938 27.9531 13.998 27.9531 14.058L27.8811 14.22C27.9111 14.172 27.9531 14.115 28.0071 14.049C28.0611 13.977 28.1331 13.908 28.2231 13.842C28.3131 13.77 28.4211 13.713 28.5471 13.671C28.6731 13.623 28.8231 13.599 28.9971 13.599C29.0691 13.599 29.1441 13.608 29.2221 13.626C29.3061 13.638 29.3871 13.659 29.4651 13.689C29.5491 13.713 29.6241 13.746 29.6901 13.788C29.7561 13.83 29.8071 13.881 29.8431 13.941C29.8791 13.995 29.8971 14.058 29.8971 14.13C29.8971 14.322 29.8491 14.484 29.7531 14.616C29.6571 14.748 29.5431 14.814 29.4111 14.814C29.3211 14.814 29.2551 14.805 29.2131 14.787C29.1711 14.769 29.1351 14.748 29.1051 14.724C29.0811 14.7 29.0421 14.679 28.9881 14.661C28.9401 14.643 28.8621 14.634 28.7541 14.634C28.6641 14.634 28.5711 14.649 28.4751 14.679C28.3851 14.709 28.3011 14.754 28.2231 14.814C28.1451 14.874 28.0821 14.952 28.0341 15.048C27.9861 15.138 27.9621 15.243 27.9621 15.363V17.55C27.9621 17.652 27.9531 17.745 27.9351 17.829C27.9171 17.907 27.8691 17.97 27.7911 18.018C27.7131 18.066 27.5871 18.09 27.4131 18.09ZM32.487 18.144C32.097 18.144 31.755 18.081 31.461 17.955C31.173 17.829 30.93 17.658 30.732 17.442C30.54 17.22 30.393 16.974 30.291 16.704C30.195 16.428 30.147 16.143 30.147 15.849C30.147 15.417 30.246 15.033 30.444 14.697C30.642 14.361 30.915 14.097 31.263 13.905C31.617 13.713 32.022 13.617 32.478 13.617C32.802 13.617 33.087 13.668 33.333 13.77C33.579 13.872 33.783 14.007 33.945 14.175C34.113 14.337 34.239 14.517 34.323 14.715C34.413 14.913 34.458 15.105 34.458 15.291C34.458 15.609 34.38 15.84 34.224 15.984C34.074 16.128 33.885 16.2 33.657 16.2H31.281C31.287 16.404 31.35 16.581 31.47 16.731C31.596 16.881 31.752 16.998 31.938 17.082C32.13 17.16 32.325 17.199 32.523 17.199C32.673 17.199 32.805 17.19 32.919 17.172C33.039 17.154 33.141 17.133 33.225 17.109C33.309 17.079 33.381 17.049 33.441 17.019C33.507 16.989 33.567 16.962 33.621 16.938C33.675 16.914 33.726 16.899 33.774 16.893C33.84 16.887 33.906 16.902 33.972 16.938C34.038 16.974 34.092 17.037 34.134 17.127C34.17 17.187 34.194 17.244 34.206 17.298C34.224 17.346 34.233 17.394 34.233 17.442C34.233 17.562 34.161 17.676 34.017 17.784C33.873 17.886 33.669 17.97 33.405 18.036C33.147 18.108 32.841 18.144 32.487 18.144ZM31.281 15.561H33.126C33.228 15.561 33.306 15.546 33.36 15.516C33.414 15.48 33.441 15.408 33.441 15.3C33.441 15.162 33.399 15.039 33.315 14.931C33.231 14.817 33.117 14.73 32.973 14.67C32.829 14.604 32.661 14.571 32.469 14.571C32.247 14.571 32.046 14.616 31.866 14.706C31.686 14.79 31.542 14.907 31.434 15.057C31.332 15.207 31.281 15.375 31.281 15.561ZM36.7355 18.144C36.5795 18.144 36.4145 18.126 36.2405 18.09C36.0665 18.06 35.8985 18.015 35.7365 17.955C35.5745 17.889 35.4335 17.814 35.3135 17.73C35.1995 17.64 35.1275 17.541 35.0975 17.433C35.0735 17.373 35.0645 17.316 35.0705 17.262C35.0765 17.202 35.0945 17.142 35.1245 17.082C35.1545 17.016 35.1995 16.95 35.2595 16.884C35.3135 16.818 35.3675 16.782 35.4215 16.776C35.4815 16.764 35.5565 16.782 35.6465 16.83C35.7245 16.86 35.8085 16.899 35.8985 16.947C35.9945 16.995 36.0905 17.043 36.1865 17.091C36.2885 17.139 36.3905 17.178 36.4925 17.208C36.6005 17.238 36.7055 17.253 36.8075 17.253C37.0295 17.253 37.2065 17.217 37.3385 17.145C37.4705 17.067 37.5365 16.959 37.5365 16.821C37.5365 16.743 37.5155 16.674 37.4735 16.614C37.4315 16.554 37.3745 16.506 37.3025 16.47C37.2365 16.428 37.1555 16.392 37.0595 16.362C36.9695 16.326 36.8705 16.296 36.7625 16.272C36.6605 16.242 36.5525 16.209 36.4385 16.173C36.2885 16.131 36.1385 16.08 35.9885 16.02C35.8385 15.96 35.7035 15.882 35.5835 15.786C35.4695 15.69 35.3765 15.57 35.3045 15.426C35.2325 15.282 35.1965 15.102 35.1965 14.886C35.1965 14.616 35.2595 14.388 35.3855 14.202C35.5175 14.01 35.7065 13.863 35.9525 13.761C36.1985 13.659 36.4955 13.608 36.8435 13.608C36.9635 13.608 37.0775 13.617 37.1855 13.635C37.2995 13.653 37.4075 13.68 37.5095 13.716C37.6175 13.746 37.7195 13.785 37.8155 13.833C37.9175 13.881 38.0135 13.935 38.1035 13.995C38.2535 14.079 38.3315 14.178 38.3375 14.292C38.3435 14.4 38.3015 14.517 38.2115 14.643C38.1455 14.727 38.0795 14.787 38.0135 14.823C37.9475 14.853 37.8785 14.853 37.8065 14.823C37.7105 14.775 37.6055 14.724 37.4915 14.67C37.3835 14.61 37.2695 14.559 37.1495 14.517C37.0355 14.475 36.9155 14.454 36.7895 14.454C36.6695 14.454 36.5615 14.472 36.4655 14.508C36.3695 14.544 36.2975 14.595 36.2495 14.661C36.2015 14.727 36.1775 14.805 36.1775 14.895C36.1775 14.979 36.2015 15.048 36.2495 15.102C36.2975 15.156 36.3605 15.201 36.4385 15.237C36.5165 15.273 36.6095 15.306 36.7175 15.336C36.8255 15.36 36.9395 15.384 37.0595 15.408C37.2275 15.444 37.3985 15.489 37.5725 15.543C37.7465 15.597 37.9055 15.672 38.0495 15.768C38.1995 15.864 38.3195 15.993 38.4095 16.155C38.4995 16.311 38.5445 16.515 38.5445 16.767C38.5445 17.205 38.3825 17.544 38.0585 17.784C37.7405 18.024 37.2995 18.144 36.7355 18.144ZM40.7785 18.144C40.6225 18.144 40.4575 18.126 40.2835 18.09C40.1095 18.06 39.9415 18.015 39.7795 17.955C39.6175 17.889 39.4765 17.814 39.3565 17.73C39.2425 17.64 39.1705 17.541 39.1405 17.433C39.1165 17.373 39.1075 17.316 39.1135 17.262C39.1195 17.202 39.1375 17.142 39.1675 17.082C39.1975 17.016 39.2425 16.95 39.3025 16.884C39.3565 16.818 39.4105 16.782 39.4645 16.776C39.5245 16.764 39.5995 16.782 39.6895 16.83C39.7675 16.86 39.8515 16.899 39.9415 16.947C40.0375 16.995 40.1335 17.043 40.2295 17.091C40.3315 17.139 40.4335 17.178 40.5355 17.208C40.6435 17.238 40.7485 17.253 40.8505 17.253C41.0725 17.253 41.2495 17.217 41.3815 17.145C41.5135 17.067 41.5795 16.959 41.5795 16.821C41.5795 16.743 41.5585 16.674 41.5165 16.614C41.4745 16.554 41.4175 16.506 41.3455 16.47C41.2795 16.428 41.1985 16.392 41.1025 16.362C41.0125 16.326 40.9135 16.296 40.8055 16.272C40.7035 16.242 40.5955 16.209 40.4815 16.173C40.3315 16.131 40.1815 16.08 40.0315 16.02C39.8815 15.96 39.7465 15.882 39.6265 15.786C39.5125 15.69 39.4195 15.57 39.3475 15.426C39.2755 15.282 39.2395 15.102 39.2395 14.886C39.2395 14.616 39.3025 14.388 39.4285 14.202C39.5605 14.01 39.7495 13.863 39.9955 13.761C40.2415 13.659 40.5385 13.608 40.8865 13.608C41.0065 13.608 41.1205 13.617 41.2285 13.635C41.3425 13.653 41.4505 13.68 41.5525 13.716C41.6605 13.746 41.7625 13.785 41.8585 13.833C41.9605 13.881 42.0565 13.935 42.1465 13.995C42.2965 14.079 42.3745 14.178 42.3805 14.292C42.3865 14.4 42.3445 14.517 42.2545 14.643C42.1885 14.727 42.1225 14.787 42.0565 14.823C41.9905 14.853 41.9215 14.853 41.8495 14.823C41.7535 14.775 41.6485 14.724 41.5345 14.67C41.4265 14.61 41.3125 14.559 41.1925 14.517C41.0785 14.475 40.9585 14.454 40.8325 14.454C40.7125 14.454 40.6045 14.472 40.5085 14.508C40.4125 14.544 40.3405 14.595 40.2925 14.661C40.2445 14.727 40.2205 14.805 40.2205 14.895C40.2205 14.979 40.2445 15.048 40.2925 15.102C40.3405 15.156 40.4035 15.201 40.4815 15.237C40.5595 15.273 40.6525 15.306 40.7605 15.336C40.8685 15.36 40.9825 15.384 41.1025 15.408C41.2705 15.444 41.4415 15.489 41.6155 15.543C41.7895 15.597 41.9485 15.672 42.0925 15.768C42.2425 15.864 42.3625 15.993 42.4525 16.155C42.5425 16.311 42.5875 16.515 42.5875 16.767C42.5875 17.205 42.4255 17.544 42.1015 17.784C41.7835 18.024 41.3425 18.144 40.7785 18.144ZM43.9463 18.09C43.7843 18.09 43.6643 18.063 43.5863 18.009C43.5083 17.961 43.4603 17.898 43.4423 17.82C43.4243 17.736 43.4153 17.643 43.4153 17.541V14.193C43.4153 14.097 43.4243 14.01 43.4423 13.932C43.4663 13.848 43.5143 13.782 43.5863 13.734C43.6643 13.686 43.7873 13.662 43.9553 13.662C44.1233 13.662 44.2433 13.686 44.3153 13.734C44.3933 13.782 44.4413 13.848 44.4593 13.932C44.4773 14.016 44.4863 14.109 44.4863 14.211V17.55C44.4863 17.652 44.4773 17.745 44.4593 17.829C44.4413 17.907 44.3933 17.97 44.3153 18.018C44.2433 18.066 44.1203 18.09 43.9463 18.09ZM43.9463 12.789C43.7723 12.789 43.6433 12.765 43.5593 12.717C43.4813 12.663 43.4303 12.591 43.4063 12.501C43.3883 12.411 43.3793 12.312 43.3793 12.204C43.3793 12.09 43.3883 11.991 43.4063 11.907C43.4303 11.823 43.4843 11.757 43.5683 11.709C43.6523 11.655 43.7813 11.628 43.9553 11.628C44.1353 11.628 44.2643 11.655 44.3423 11.709C44.4203 11.763 44.4713 11.835 44.4953 11.925C44.5193 12.009 44.5313 12.108 44.5313 12.222C44.5313 12.324 44.5193 12.42 44.4953 12.51C44.4713 12.6 44.4203 12.669 44.3423 12.717C44.2643 12.765 44.1323 12.789 43.9463 12.789ZM47.4779 18.108C47.3519 18.108 47.2469 18.087 47.1629 18.045C47.0789 18.003 47.0129 17.934 46.9649 17.838L45.3269 14.409C45.2369 14.229 45.2129 14.085 45.2549 13.977C45.2969 13.869 45.4049 13.773 45.5789 13.689C45.7589 13.599 45.9029 13.569 46.0109 13.599C46.1189 13.629 46.2149 13.74 46.2989 13.932L47.4779 16.695L48.6389 13.986C48.7229 13.788 48.8189 13.665 48.9269 13.617C49.0349 13.563 49.1909 13.587 49.3949 13.689C49.5989 13.791 49.7069 13.905 49.7189 14.031C49.7309 14.151 49.6979 14.289 49.6199 14.445L47.9909 17.838C47.9429 17.928 47.8769 17.994 47.7929 18.036C47.7089 18.084 47.6039 18.108 47.4779 18.108ZM52.2975 18.144C51.9075 18.144 51.5655 18.081 51.2715 17.955C50.9835 17.829 50.7405 17.658 50.5425 17.442C50.3505 17.22 50.2035 16.974 50.1015 16.704C50.0055 16.428 49.9575 16.143 49.9575 15.849C49.9575 15.417 50.0565 15.033 50.2545 14.697C50.4525 14.361 50.7255 14.097 51.0735 13.905C51.4275 13.713 51.8325 13.617 52.2885 13.617C52.6125 13.617 52.8975 13.668 53.1435 13.77C53.3895 13.872 53.5935 14.007 53.7555 14.175C53.9235 14.337 54.0495 14.517 54.1335 14.715C54.2235 14.913 54.2685 15.105 54.2685 15.291C54.2685 15.609 54.1905 15.84 54.0345 15.984C53.8845 16.128 53.6955 16.2 53.4675 16.2H51.0915C51.0975 16.404 51.1605 16.581 51.2805 16.731C51.4065 16.881 51.5625 16.998 51.7485 17.082C51.9405 17.16 52.1355 17.199 52.3335 17.199C52.4835 17.199 52.6155 17.19 52.7295 17.172C52.8495 17.154 52.9515 17.133 53.0355 17.109C53.1195 17.079 53.1915 17.049 53.2515 17.019C53.3175 16.989 53.3775 16.962 53.4315 16.938C53.4855 16.914 53.5365 16.899 53.5845 16.893C53.6505 16.887 53.7165 16.902 53.7825 16.938C53.8485 16.974 53.9025 17.037 53.9445 17.127C53.9805 17.187 54.0045 17.244 54.0165 17.298C54.0345 17.346 54.0435 17.394 54.0435 17.442C54.0435 17.562 53.9715 17.676 53.8275 17.784C53.6835 17.886 53.4795 17.97 53.2155 18.036C52.9575 18.108 52.6515 18.144 52.2975 18.144ZM51.0915 15.561H52.9365C53.0385 15.561 53.1165 15.546 53.1705 15.516C53.2245 15.48 53.2515 15.408 53.2515 15.3C53.2515 15.162 53.2095 15.039 53.1255 14.931C53.0415 14.817 52.9275 14.73 52.7835 14.67C52.6395 14.604 52.4715 14.571 52.2795 14.571C52.0575 14.571 51.8565 14.616 51.6765 14.706C51.4965 14.79 51.3525 14.907 51.2445 15.057C51.1425 15.207 51.0915 15.375 51.0915 15.561ZM55.6101 16.173C55.4421 16.173 55.3191 16.152 55.2411 16.11C55.1631 16.062 55.1151 16.002 55.0971 15.93C55.0791 15.852 55.0701 15.768 55.0701 15.678V12.285C55.0701 12.195 55.0791 12.111 55.0971 12.033C55.1151 11.955 55.1631 11.895 55.2411 11.853C55.3191 11.805 55.4421 11.781 55.6101 11.781C55.7781 11.781 55.8981 11.805 55.9701 11.853C56.0481 11.895 56.0961 11.955 56.1141 12.033C56.1381 12.111 56.1501 12.195 56.1501 12.285V15.669C56.1501 15.765 56.1381 15.852 56.1141 15.93C56.0961 16.002 56.0481 16.062 55.9701 16.11C55.8981 16.152 55.7781 16.173 55.6101 16.173ZM55.6101 18.09C55.3701 18.09 55.2081 18.045 55.1241 17.955C55.0461 17.865 55.0071 17.709 55.0071 17.487C55.0071 17.379 55.0191 17.28 55.0431 17.19C55.0671 17.094 55.1211 17.019 55.2051 16.965C55.2891 16.911 55.4241 16.884 55.6101 16.884C55.8501 16.884 56.0091 16.929 56.0871 17.019C56.1651 17.109 56.2041 17.265 56.2041 17.487C56.2041 17.595 56.1921 17.697 56.1681 17.793C56.1501 17.883 56.0991 17.955 56.0151 18.009C55.9311 18.063 55.7961 18.09 55.6101 18.09Z" fill="#2B3B58"/>
<defs>
<filter id="filter0_d_3420_3540" x="0" y="0" width="69" height="44.3799" filterUnits="userSpaceOnUse" color-interpolation-filters="sRGB">
<feFlood flood-opacity="0" result="BackgroundImageFix"/>
<feColorMatrix in="SourceAlpha" type="matrix" values="0 0 0 0 0 0 0 0 0 0 0 0 0 0 0 0 0 0 127 0" result="hardAlpha"/>
<feOffset dy="4"/>
<feGaussianBlur stdDeviation="2"/>
<feComposite in2="hardAlpha" operator="out"/>
<feColorMatrix type="matrix" values="0 0 0 0 0 0 0 0 0 0 0 0 0 0 0 0 0 0 0.15 0"/>
<feBlend mode="normal" in2="BackgroundImageFix" result="effect1_dropShadow_3420_3540"/>
<feBlend mode="normal" in="SourceGraphic" in2="effect1_dropShadow_3420_3540" result="shape"/>
</filter>
</defs>
</svg>
