<svg width="20" height="20" viewBox="0 0 20 20" fill="none" xmlns="http://www.w3.org/2000/svg">
<g clip-path="url(#clip0_582_163)">
<path d="M0.3 6.5H4.4V19.7H0.3V6.5ZM2.4 0C3.7 0 4.8 1.1 4.8 2.4C4.8 3.7 3.7 4.8 2.4 4.8C1.1 4.8 0 3.7 0 2.4C0 1.1 1.1 0 2.4 0Z" fill="white"/>
<path d="M7.00002 6.49995H10.9V8.29995C11.4 7.29995 12.8 6.19995 14.8 6.19995C18.9 6.19995 19.7 8.89995 19.7 12.5V19.7H15.6V13.3C15.6 11.8 15.6 9.79995 13.5 9.79995C11.4 9.79995 11 11.5 11 13.2V19.7H6.90002V6.49995H7.00002Z" fill="white"/>
</g>
<defs>
<clipPath id="clip0_582_163">
<rect width="19.7" height="19.7" fill="white"/>
</clipPath>
</defs>
</svg>
