<svg width="14" height="14" viewBox="0 0 14 14" fill="none" xmlns="http://www.w3.org/2000/svg">
<g clip-path="url(#clip0_1800_957)">
<path d="M5.83345 7.58348C6.08396 7.91838 6.40357 8.1955 6.7706 8.39602C7.13763 8.59655 7.5435 8.71579 7.96066 8.74567C8.37783 8.77555 8.79654 8.71536 9.1884 8.56918C9.58026 8.42301 9.9361 8.19427 10.2318 7.89848L11.9818 6.14848C12.5131 5.59839 12.8071 4.86163 12.8004 4.09689C12.7938 3.33215 12.487 2.60061 11.9463 2.05984C11.4055 1.51906 10.6739 1.21232 9.9092 1.20568C9.14446 1.19903 8.40771 1.49301 7.85762 2.02431L6.85428 3.02181M8.16678 6.41681C7.91627 6.0819 7.59666 5.80479 7.22963 5.60426C6.8626 5.40374 6.45674 5.28449 6.03957 5.25461C5.6224 5.22474 5.20369 5.28493 4.81183 5.4311C4.41997 5.57728 4.06413 5.80602 3.76845 6.10181L2.01845 7.85181C1.48716 8.4019 1.19317 9.13866 1.19982 9.9034C1.20646 10.6681 1.51321 11.3997 2.05398 11.9404C2.59475 12.4812 3.32629 12.788 4.09103 12.7946C4.85577 12.8013 5.59253 12.5073 6.14262 11.976L7.14012 10.9785" stroke="currentColor" stroke-linecap="round" stroke-linejoin="round"/>
</g>
<defs>
<clipPath id="clip0_1800_957">
<rect width="14" height="14" fill="white"/>
</clipPath>
</defs>
</svg>
