<svg width="17" height="17" viewBox="0 0 17 17" fill="none" xmlns="http://www.w3.org/2000/svg">
<g clip-path="url(#clip0_450_1700)">
<path d="M1.85796 0.0100137L8.55161 0C9.326 0.110151 9.39912 1.18496 8.64467 1.39191L2.18367 1.40192C1.79149 1.4353 1.47243 1.62223 1.43587 2.04948V14.9505C1.45249 15.2476 1.65523 15.4679 1.92776 15.558C4.15787 15.6615 6.40792 15.5614 8.64799 15.6081C9.41241 15.815 9.32932 16.9299 8.52502 17L1.8912 16.9933C0.99384 16.8732 0.259333 16.2223 0.0599199 15.331C-0.0564046 10.8816 0.0399785 6.4088 0.0100665 1.94934C0.10645 0.94463 0.864221 0.150206 1.85796 0.0100137Z" fill="currentColor"/>
<path d="M14.5404 9.1991H6.19491C6.17165 9.1991 5.98221 9.10564 5.94897 9.07894C5.55347 8.80523 5.55347 8.18772 5.94897 7.91734C6.34447 7.64697 6.17497 7.79718 6.19491 7.79718H14.5404C14.5105 7.68703 14.3775 7.57688 14.2911 7.49677C13.3937 6.63225 12.3801 5.70431 11.5359 4.79973C10.6917 3.89516 11.6455 3.21422 12.3801 3.65149L16.8469 8.06421C17.053 8.31456 17.043 8.67839 16.8469 8.93207L12.5496 13.2146C11.8416 13.9122 10.8346 12.9643 11.5193 12.2132C12.3501 11.3053 13.3937 10.3607 14.2911 9.49618C14.3775 9.41607 14.5105 9.30592 14.5404 9.19577V9.1991Z" fill="currentColor"/>
</g>
<defs>
<clipPath id="clip0_450_1700">
<rect width="17" height="17" fill="currentColor"/>
</clipPath>
</defs>
</svg>
