<svg width="17" height="13" viewBox="0 0 17 13" fill="none" xmlns="http://www.w3.org/2000/svg">
<path d="M2.16659 12.8332C1.73117 12.8332 1.35843 12.6781 1.04836 12.3681C0.738287 12.058 0.583252 11.6853 0.583252 11.2498V1.74984C0.583252 1.31442 0.738287 0.941678 1.04836 0.631608C1.35843 0.321539 1.73117 0.166504 2.16659 0.166504H14.8333C15.2687 0.166504 15.6414 0.321539 15.9515 0.631608C16.2615 0.941678 16.4166 1.31442 16.4166 1.74984V11.2498C16.4166 11.6853 16.2615 12.058 15.9515 12.3681C15.6414 12.6781 15.2687 12.8332 14.8333 12.8332H2.16659ZM8.49992 7.2915L2.16659 3.33317V11.2498H14.8333V3.33317L8.49992 7.2915ZM8.49992 5.70817L14.8333 1.74984H2.16659L8.49992 5.70817ZM2.16659 3.33317V1.74984V11.2498V3.33317Z" fill="currentColor"/>
</svg>
