<svg width="33" height="38" viewBox="0 0 33 38" fill="none" xmlns="http://www.w3.org/2000/svg">
<g clip-path="url(#clip0_2632_2247)">
<path d="M7.54141 5.95596L9.05982 5.95596L9.05982 6.84197C7.38957 6.20207 5.21319 7.48187 4.96012 9.20466C4.40337 12.7487 6.3773 16.3912 10.3758 16.2927C14.3742 16.1943 15.589 14.0285 15.589 11.6658L15.589 5.95596L30.1656 5.95596C31.2791 5.95596 33 7.82642 33 8.95855L33 34.8497C32.7975 36.6218 31.431 37.9016 29.5583 38L3.34049 38C1.77147 37.9016 0.556749 36.9171 0.101228 35.4896C-0.101226 26.6295 0.101227 17.7694 1.80129e-07 8.95855C1.57328e-07 7.82643 1.72086 5.95596 2.83436 5.95596L5.06135 5.95596L5.06135 3.54404C5.06135 3.2487 5.46626 2.41192 5.6181 2.11658C7.69325 -1.42746 13.2101 -0.246114 13.5644 3.83938C13.9187 7.92487 13.7163 9.25389 13.5644 11.2228C13.4126 13.1917 9.97086 15.3083 7.89571 13.3394C5.82055 11.3705 6.78221 10.8782 6.93405 9.54922C7.08589 8.22021 7.99693 8.4171 8.70552 8.76166C9.41411 9.10622 9.21166 10.2383 9.31288 11.0259C9.46472 12.2073 10.9831 12.158 11.0844 11.0259C11.2868 8.71244 10.9325 6.00518 11.0844 3.64249C10.7301 2.36269 9.16104 1.87047 8.09816 2.75648C7.03528 3.64249 7.54141 3.4456 7.54141 3.64249L7.54141 5.90674L7.54141 5.95596ZM7.08589 18.8523C5.66871 19.1969 5.76994 21.0674 7.23773 21.215L25.7623 21.215C27.2807 21.0674 27.2807 19 25.7623 18.8523L7.08589 18.8523ZM7.18712 24.3653C5.71933 24.6114 5.76994 26.5803 7.23773 26.728L25.7623 26.728C27.2807 26.5803 27.3313 24.513 25.661 24.3653L7.18712 24.3653ZM7.28834 29.8782C5.82055 30.0751 5.71933 31.8472 7.08589 32.2409L16.7025 32.2409C18.2209 31.8964 18.1196 30.0751 16.5 29.8782C13.6656 29.5337 10.1227 30.0751 7.23773 29.8782L7.28834 29.8782Z" fill="currentColor"/>
</g>
<defs>
<clipPath id="clip0_2632_2247">
<rect width="33" height="38" fill="currentColor"/>
</clipPath>
</defs>
</svg>
