<svg width="12" height="12" viewBox="0 0 12 12" fill="none" xmlns="http://www.w3.org/2000/svg">
<path d="M8.74267 0C8.97592 0 9.19844 0.0839161 9.38342 0.22028C9.97592 0.920455 10.9464 1.58129 11.496 2.28934C11.7802 2.65647 11.7748 3.14948 11.496 3.51399L3.72122 11.0953C3.60326 11.1687 3.46921 11.2159 3.33248 11.2395C2.58181 11.368 1.71318 11.2998 0.951788 11.4257C0.469214 11.5044 -0.00531691 11.2107 4.5015e-05 10.7045C0.00808791 9.91521 0.187713 9.06818 0.190394 8.27098C0.241332 7.67045 0.82042 7.31381 1.22256 6.92308C3.48262 4.72815 5.71854 2.50962 7.9786 0.312063C8.2172 0.112762 8.41559 0 8.74267 0ZM8.72927 0.755245L7.30836 2.1451L9.50407 4.29283L10.925 2.90297L8.72927 0.755245ZM0.884763 10.5603L3.12069 10.403L3.23865 10.361L8.86332 4.89336L8.87672 4.8278L6.69441 2.74563L1.08852 8.25787L1.04562 8.37325L0.884763 10.5603Z" fill="currentColor"/>
<path d="M4.68181 11.1688L11.5799 11.1609C12.1376 11.2212 12.1242 11.945 11.6336 11.9974H4.64696C4.15366 11.8847 4.1912 11.25 4.68181 11.1661V11.1688Z" fill="currentColor"/>
</svg>
