<svg width="14" height="14" viewBox="0 0 14 14" fill="none" xmlns="http://www.w3.org/2000/svg">
<g clip-path="url(#clip0_3374_363)">
<path d="M9.33325 12.25V11.0833C9.33325 10.4645 9.08742 9.871 8.64984 9.43342C8.21225 8.99583 7.61876 8.75 6.99992 8.75H2.91659C2.29775 8.75 1.70425 8.99583 1.26667 9.43342C0.829085 9.871 0.583252 10.4645 0.583252 11.0833V12.25M9.91659 6.41667L11.0833 7.58333L13.4166 5.25M7.29159 4.08333C7.29159 5.372 6.24692 6.41667 4.95825 6.41667C3.66959 6.41667 2.62492 5.372 2.62492 4.08333C2.62492 2.79467 3.66959 1.75 4.95825 1.75C6.24692 1.75 7.29159 2.79467 7.29159 4.08333Z" stroke="currentColor" stroke-width="1.5" stroke-linecap="round" stroke-linejoin="round"/>
</g>
<defs>
<clipPath id="clip0_3374_363">
<rect width="14" height="14" fill="white"/>
</clipPath>
</defs>
</svg>
