<svg width="37" height="34" viewBox="0 0 37 34" fill="none" xmlns="http://www.w3.org/2000/svg">
<g clip-path="url(#clip0_2632_2253)">
<path d="M7.53457 20.4585C11.3257 20.1175 15.5488 20.6533 19.388 20.4585C23.6111 20.8968 26.7304 24.404 26.9704 28.6418C27.2103 32.8797 27.0663 32.1977 26.8744 32.9284C26.6824 33.659 26.1545 34 25.4827 34.0487H1.58385C0.768029 34.0487 0.144164 33.2693 0.0481844 32.49C-0.0957844 31.0774 0.00019482 28.2521 0.336122 26.8883C1.15195 23.5759 4.1273 20.8481 7.53457 20.5559V20.4585Z" fill="currentColor"/>
<path d="M13.533 17.0487C18.1711 17.0487 21.9311 13.2322 21.9311 8.52435C21.9311 3.81648 18.1711 0 13.533 0C8.89476 0 5.13477 3.81648 5.13477 8.52435C5.13477 13.2322 8.89476 17.0487 13.533 17.0487Z" fill="currentColor"/>
<path d="M31.9613 13.5903H35.4646C35.5125 13.5903 36.0884 13.7851 36.1364 13.8338C37.0482 14.3696 37.2402 15.7335 36.5203 16.5129C35.8005 17.2923 35.7525 17.0487 35.6085 17.0487H31.9613V20.6046C31.9613 21.384 31.0975 22.1146 30.3297 22.1633C29.5618 22.212 28.554 21.5301 28.554 20.7507V17.0487H24.9068C24.139 17.0487 23.5151 15.9771 23.5151 15.2464C23.5151 14.5158 24.283 13.5903 25.0508 13.5903H28.554V9.88825C28.554 9.74212 28.938 9.10888 29.0819 8.96275C29.8498 8.23209 31.1935 8.42694 31.7214 9.35244C32.2492 10.2779 31.9613 9.98568 31.9613 10.0344V13.5903Z" fill="currentColor"/>
</g>
<defs>
<clipPath id="clip0_2632_2253">
<rect width="37" height="34" fill="currentColor"/>
</clipPath>
</defs>
</svg>
