<svg width="40" height="40" viewBox="0 0 40 40" fill="none" xmlns="http://www.w3.org/2000/svg">
<g clip-path="url(#clip0_2632_2258)">
<path d="M1.1005 36.4497C0.622032 36.355 0.143563 35.8343 0.095716 35.3609C0.19141 33.1361 -0.0478247 30.7692 0.095716 28.5444C0.382797 24.5207 3.73208 21.1598 7.79907 20.8757C12.9665 20.497 18.6125 21.1598 23.8278 20.8757C24.7369 20.9704 25.5981 21.1598 26.4115 21.4911L26.1723 21.8698C24.9761 21.7752 23.7799 22.0118 22.823 22.7692C21.8661 23.5266 19.8565 26.8876 19.7608 28.1183C19.6651 29.3491 20 30.3432 20.622 31.3373C19.7129 32.6627 19.4737 34.1302 20.0479 35.645C20.622 37.1598 20.3828 36.1657 20.4785 36.497H1.1005V36.4497Z" fill="currentColor"/>
<path d="M15.8373 17.3254C20.6731 17.3254 24.5933 13.447 24.5933 8.66272C24.5933 3.87843 20.6731 0 15.8373 0C11.0015 0 7.0813 3.87843 7.0813 8.66272C7.0813 13.447 11.0015 17.3254 15.8373 17.3254Z" fill="currentColor"/>
<path d="M30.1435 22.5325C30.7177 22.4379 32.3923 22.4379 33.0143 22.5325C34.4019 22.6746 33.8756 24.2367 34.2105 25.1834L35.5981 26.0355C36.5072 25.9882 37.7033 24.7101 38.5167 25.6095C39.3301 26.5089 40.0478 28.1657 40.0957 28.4024C40.2392 29.4438 38.9474 29.7278 38.3732 30.3432C37.799 30.9586 38.2775 30.7219 38.2775 31.0532C38.2775 31.3846 38.2296 31.716 38.2775 32.0947C38.9474 32.8047 40.4306 33.1361 40.0478 34.3669C39.6651 35.5976 38.8517 36.5917 38.6124 36.8757C37.8469 37.8698 36.7464 36.8284 35.8373 36.5444C35.5024 36.497 34.6411 37.2071 34.2584 37.3964C33.9234 38.2485 34.4019 39.858 33.11 40.0473C31.8182 40.2367 30.9091 40.142 30.3349 40.0473C28.9474 39.9053 29.4737 38.3432 29.1387 37.3964C28.8038 37.2071 27.9426 36.497 27.5598 36.5444C26.7464 36.7811 25.5981 37.7751 24.8804 36.9704C24.1627 36.1657 23.3493 34.4142 23.3014 34.1775C23.1579 33.1834 24.4497 32.8521 25.0239 32.2367C25.5981 31.6213 25.1196 31.858 25.1196 31.5266C25.1196 31.1953 25.1674 30.8639 25.1196 30.4852C24.4497 29.7751 22.9665 29.3964 23.3493 28.213C23.732 27.0296 24.7847 25.7041 24.9282 25.5621C25.3588 25.1834 25.6459 25.3254 26.1244 25.4675C26.6029 25.6095 27.3684 26.0828 27.6076 26.0828C27.8469 26.0828 28.8517 25.4675 28.9952 25.3254C29.6172 24.8047 28.8517 22.8166 30.1914 22.5799L30.1435 22.5325ZM35.1196 31.2426C35.1196 29.3491 33.5407 27.787 31.6268 27.787C29.7129 27.787 28.134 29.3491 28.134 31.2426C28.134 33.1361 29.7129 34.6982 31.6268 34.6982C33.5407 34.6982 35.1196 33.1361 35.1196 31.2426Z" fill="currentColor"/>
</g>
<defs>
<clipPath id="clip0_2632_2258">
<rect width="40" height="40" fill="currentColor"/>
</clipPath>
</defs>
</svg>
