<svg width="9" height="9" viewBox="0 0 9 9" fill="none" xmlns="http://www.w3.org/2000/svg">
<g clip-path="url(#clip0_1677_1658)">
<path d="M6.375 7.875V7.125C6.375 6.72718 6.21696 6.34564 5.93566 6.06434C5.65436 5.78304 5.27282 5.625 4.875 5.625H1.875C1.47718 5.625 1.09564 5.78304 0.81434 6.06434C0.533035 6.34564 0.375 6.72718 0.375 7.125V7.875M8.625 7.875V7.125C8.62475 6.79265 8.51413 6.46979 8.31051 6.20712C8.10689 5.94445 7.8218 5.75684 7.5 5.67375M6 1.17375C6.32266 1.25636 6.60864 1.44401 6.81286 1.70712C7.01709 1.97022 7.12794 2.29381 7.12794 2.62688C7.12794 2.95994 7.01709 3.28353 6.81286 3.54663C6.60864 3.80974 6.32266 3.99739 6 4.08M4.875 2.625C4.875 3.45343 4.20343 4.125 3.375 4.125C2.54657 4.125 1.875 3.45343 1.875 2.625C1.875 1.79657 2.54657 1.125 3.375 1.125C4.20343 1.125 4.875 1.79657 4.875 2.625Z" stroke="currentColor" stroke-linecap="round" stroke-linejoin="round"/>
</g>
<defs>
<clipPath id="clip0_1677_1658">
<rect width="9" height="9" fill="white"/>
</clipPath>
</defs>
</svg>
