<svg width="14" height="18" viewBox="0 0 14 18" fill="none" xmlns="http://www.w3.org/2000/svg">
<path d="M12.9783 10.5352C12.6667 10.8521 12.1196 10.8099 11.9892 11.2078C11.8587 11.6057 11.895 12.0176 11.3587 12.2852C10.9022 12.5106 10.4638 12.2606 10.1558 12.6268C9.84786 12.993 9.89134 13.2183 9.36598 13.3733C8.84062 13.5282 8.50366 13.1655 8.06163 13.2641C7.91308 13.2958 7.69931 13.5564 7.53989 13.6373C7.17032 13.8275 6.72467 13.8064 6.37322 13.588C6.17757 13.4648 6.06163 13.25 5.80076 13.2289C5.56163 13.2113 5.28264 13.419 5.0109 13.4296C4.67395 13.4402 4.26815 13.2465 4.06525 12.9859C3.86235 12.7254 3.86598 12.4648 3.49641 12.4155C3.12685 12.3662 2.67757 12.4683 2.30438 12.0282C2.0254 11.6972 2.12685 11.324 1.92395 11.0599C1.68482 10.7465 1.18844 10.8627 0.884093 10.3486C0.579745 9.83452 0.804383 9.6972 0.797136 9.2641C0.78989 8.89438 0.402209 8.78523 0.21018 8.50706C0.0181507 8.22889 -0.0506899 7.88382 0.0688753 7.53171C0.188441 7.17959 0.481919 7.09157 0.304383 6.65495C0.126846 6.21833 -0.148516 6.03875 0.0978608 5.45072C0.344238 4.86269 0.637716 4.96481 0.750035 4.71129C0.862354 4.45776 0.750035 4.37678 0.731919 4.16551C0.69931 3.73241 0.811629 3.35917 1.18844 3.09861C1.48917 2.89438 1.87322 2.9472 2.00728 2.55635C2.14859 2.14086 2.06163 1.90143 2.48554 1.581C2.90946 1.26058 3.25728 1.47889 3.64859 1.30635C3.89859 1.1972 3.90221 0.992975 4.04351 0.809876C4.28627 0.489454 4.67395 0.32044 5.08699 0.355651C5.50003 0.390862 5.5725 0.556355 5.84786 0.524665C6.12322 0.492975 6.26453 0.218327 6.50728 0.109172C6.90221 -0.0668844 7.27902 -0.0246309 7.63772 0.1972C7.92757 0.373256 7.95293 0.584524 8.37322 0.521144C8.83337 0.450721 8.94206 0.211285 9.5109 0.454242C10.0797 0.6972 10.0653 1.30283 10.5182 1.37326C10.9928 1.44368 11.25 1.28171 11.6558 1.70776C12.0145 2.08452 11.8515 2.63382 12.2428 2.85917C12.5979 3.0634 12.8986 3.01762 13.145 3.46128C13.3913 3.90495 13.2138 4.081 13.2066 4.48945C13.1993 4.8979 13.6051 4.98945 13.8044 5.28171C13.9855 5.54931 14.029 5.85213 13.9529 6.15847C13.8768 6.46481 13.5508 6.66551 13.6739 7.0634C13.808 7.50706 14.1051 7.54227 13.9529 8.16551C13.8442 8.61269 13.6377 8.61974 13.3732 8.90143C13.1087 9.18312 13.2609 9.3803 13.2826 9.69368C13.3044 10.0071 13.1957 10.324 12.9819 10.5423L12.9783 10.5352ZM11.808 6.88382C11.808 4.30283 9.65583 2.20776 6.99641 2.20776C4.33699 2.20776 2.18844 4.30283 2.18844 6.88382C2.18844 9.46481 4.34061 11.5599 7.00003 11.5599C9.65945 11.5599 11.8116 9.46833 11.8116 6.88382H11.808Z" fill="currentColor"/>
<path d="M7.09375 14.8351C7.42346 14.8069 7.74955 14.7295 8.04665 14.5816C8.34375 14.4337 8.2894 14.395 8.34737 14.3879C8.43433 14.3738 8.69882 14.4689 8.81839 14.4795C9.52853 14.5464 10.2024 14.2647 10.6916 13.7753C10.7604 13.7084 10.8582 13.5112 10.9307 13.4795C11.0684 13.4196 11.4307 13.4055 11.6445 13.3281C11.8582 13.2506 12.1626 13.0253 12.4162 12.8633L13.6445 15.4126C13.7133 15.7788 13.438 16.1027 13.0503 16.064L10.5974 15.5393L9.42346 17.7753C9.13723 18.1168 8.66259 18.0464 8.46694 17.6661L7.09737 14.8316L7.09375 14.8351Z" fill="currentColor"/>
<path d="M6.91246 14.8339L5.51028 17.7072C5.29651 18.0558 4.81825 18.1156 4.56825 17.7635L3.44144 15.5522L0.92695 16.0663C0.629848 16.1121 0.358109 15.8691 0.329123 15.5875C0.300138 15.3058 0.492167 15.091 0.5755 14.9184C0.897964 14.2283 1.26391 13.5487 1.61173 12.8691C1.94869 13.1825 2.33275 13.3515 2.78565 13.4501C3.23854 13.5487 3.00304 13.4501 3.07912 13.4818C3.15521 13.5135 3.25304 13.7213 3.31463 13.7811C3.78202 14.2705 4.49941 14.5487 5.19144 14.4783C5.30738 14.4677 5.54289 14.3762 5.62623 14.3867C5.70956 14.3973 5.85086 14.5311 5.93782 14.5698C6.24941 14.7213 6.56463 14.8093 6.91608 14.8339H6.91246Z" fill="currentColor"/>
<path d="M10.7088 6.88357C10.7088 8.87653 9.04574 10.4927 6.99502 10.4927C4.94429 10.4927 3.28125 8.87653 3.28125 6.88357C3.28125 4.89061 4.94429 3.27441 6.99502 3.27441C9.04574 3.27441 10.7088 4.89061 10.7088 6.88357Z" fill="currentColor"/>
</svg>
