<svg width="19" height="25" viewBox="0 0 19 25" fill="none" xmlns="http://www.w3.org/2000/svg">
<path d="M18.9338 11.5781C18.8548 10.3293 17.7632 8.86304 16.4487 8.86304H14.4792C14.3445 6.62103 14.9437 4.23712 13.6616 2.25526C11.0976 -1.72265 4.79885 -0.133377 4.46441 4.63917C4.36686 6.00614 4.53408 7.48662 4.46441 8.86777H2.4949C1.33828 8.86777 0.0423088 10.2726 0.0190835 11.4456C0.0469539 14.9458 -0.0738177 18.4649 0.0794693 21.9509C0.339593 23.1665 1.3708 24.0605 2.5878 24.1693C7.30718 24.1267 12.0451 24.2591 16.7552 24.103C17.9676 23.8287 18.8455 22.7692 18.9338 21.5063C18.7758 18.2568 19.1428 14.8086 18.9338 11.5828V11.5781ZM6.31779 4.63917C6.31779 3.00733 8.27336 1.74915 9.76442 1.88159C11.0372 1.99511 12.6211 3.25802 12.6211 4.63917V8.86777H6.31314V4.63917H6.31779ZM17.0804 21.3597C17.0665 21.8705 16.6345 22.2915 16.1282 22.282H2.76896C2.28123 22.2631 1.88175 21.8563 1.86317 21.3597V11.6727C1.87246 11.2328 2.2162 10.8307 2.64354 10.7645L16.1746 10.7503C16.6763 10.7645 17.0897 11.2044 17.0804 11.72V21.3597Z" fill="currentColor"/>
<path d="M9.27626 13.5078C7.66443 13.6875 7.22779 15.8208 8.5377 16.7384C8.6817 17.6229 8.06855 19.7561 9.49458 19.7325C10.8417 19.7088 10.2796 17.585 10.4097 16.7384C11.8821 15.6978 11.0971 13.3044 9.27626 13.5078Z" fill="currentColor"/>
</svg>
