<svg width="46" height="51" viewBox="0 0 46 51" fill="none" xmlns="http://www.w3.org/2000/svg">
<g clip-path="url(#clip0_760_268)">
<path d="M45.9827 35.8695L45.8969 34.1868L44.3 34.7534L45.1757 33.7918C45.1757 33.7918 44.1455 32.8303 43.8192 32.195C43.493 31.5597 42.6173 31.5597 42.6173 31.5597L38.7024 33.6373C38.7024 33.6373 37.2601 31.5597 36.7965 29.7224C36.3157 27.8852 35.9208 28.5205 35.9208 28.5205L34.3239 28.675L36.1612 27.4044C36.1612 27.4044 34.8047 23.6612 34.5643 22.3047C34.3239 20.9482 33.929 20.622 33.929 20.622L31.7827 20.7765C31.7827 20.7765 33.0533 19.815 33.5341 19.7463C34.0148 19.6604 33.8603 19.1797 33.8603 19.1797C33.8603 19.1797 33.3624 17.0333 33.4139 16.4839C33.122 16.4839 32.4008 16.192 32.4008 16.192L33.2937 15.7112C33.2937 15.7112 33.2422 12.3629 33.7058 11.5216C33.7573 11.2297 32.2119 11.4701 32.2119 11.4701C32.2119 11.4701 33.1735 10.5772 33.5856 10.3883C33.9977 10.1994 34.1179 6.50777 34.2381 6.3189C34.3582 6.14719 36.2642 5.78661 36.2642 5.78661C36.2642 5.78661 36.5561 4.05238 37.0369 3.45141C37.5176 2.85044 35.4228 1.88888 34.2896 0.875819C33.1906 -0.120075 32.8301 0.000119333 32.8301 0.000119333C32.8301 0.000119333 20.2097 5.37451 16.2089 6.04417C12.088 6.76533 5.68337 6.30173 4.60162 6.67948C4.58445 6.67948 4.53294 6.71382 4.44709 6.74816C3.58856 7.16026 -0.377848 9.44394 0.0514164 15.2133C0.532193 21.5149 0.927116 21.8239 0.927116 21.8239L2.83305 21.9098L1.63111 22.5451C1.63111 22.5451 2.83305 25.4126 2.7472 26.2883L3.94914 26.3741L2.98759 27.0095C2.98759 27.0095 3.70875 29.3275 3.55422 30.1173C3.55422 30.1173 4.12085 30.3577 4.99655 30.0315C5.87225 29.7052 6.67926 30.186 7.07419 30.0315C7.46911 29.8769 6.28434 30.5809 6.28434 30.5809L4.29255 31.4566C4.29255 31.4566 4.61879 33.9292 4.53294 34.9594C4.44709 35.9897 4.53294 36.7967 4.53294 36.7967L6.04395 37.0371L4.60162 37.9128C4.60162 37.9128 4.75616 40.3853 4.44709 41.261C4.12085 42.1367 4.84201 43.7336 4.84201 43.7336L6.28434 43.4932L5.01372 44.2831C5.01372 44.2831 6.21566 45.9658 7.72667 47.8717C9.20334 49.7433 10.0104 50.3099 11.8991 50.7907C11.9335 50.7907 11.985 50.8079 12.0193 50.8251C14.0111 51.3058 27.3355 47.3909 28.2799 47.0819C29.2414 46.7556 42.4799 38.4622 44.9525 38.3936C44.9525 38.3936 46.0686 37.5179 45.9827 35.8351V35.8695Z" fill="#FED67B"/>
<path d="M45.9827 35.8695L45.8969 34.1868L44.3 34.7534L45.1757 33.7918C45.1757 33.7918 44.1455 32.8303 43.8192 32.195C43.493 31.5597 42.6173 31.5597 42.6173 31.5597L38.7024 33.6373C38.7024 33.6373 37.2601 31.5597 36.7965 29.7224C36.3157 27.8852 35.9208 28.5205 35.9208 28.5205L34.3239 28.675L36.1612 27.4044C36.1612 27.4044 34.8047 23.6612 34.5643 22.3047C34.3239 20.9482 33.929 20.622 33.929 20.622L31.7827 20.7765C31.7827 20.7765 33.0533 19.815 33.5341 19.7463C34.0148 19.6604 33.8603 19.1797 33.8603 19.1797C33.8603 19.1797 33.3624 17.0333 33.4139 16.4839C33.122 16.4839 32.4008 16.192 32.4008 16.192L33.2937 15.7112C33.2937 15.7112 33.2422 12.3629 33.7058 11.5216C33.7573 11.2297 32.2119 11.4701 32.2119 11.4701C32.2119 11.4701 33.1735 10.5772 33.5856 10.3883C33.9977 10.1994 34.1179 6.50777 34.2381 6.3189C34.3582 6.14719 36.2642 5.78661 36.2642 5.78661C36.2642 5.78661 36.5561 4.05238 37.0369 3.45141C37.5176 2.85044 35.4228 1.88888 34.2896 0.875819C33.1906 -0.120075 32.8301 0.000119333 32.8301 0.000119333C32.8301 0.000119333 20.2097 5.37451 16.2089 6.04417C12.088 6.76533 5.68337 6.30173 4.60162 6.67948C4.58445 6.67948 4.53294 6.71382 4.44709 6.74816C3.58856 7.16026 -0.377848 9.44394 0.0514164 15.2133C0.532193 21.5149 0.927116 21.8239 0.927116 21.8239L2.83305 21.9098L1.63111 22.5451C1.63111 22.5451 2.83305 25.4126 2.7472 26.2883L3.94914 26.3741L2.98759 27.0095C2.98759 27.0095 3.70875 29.3275 3.55422 30.1173C3.55422 30.1173 4.12085 30.3577 4.99655 30.0315C5.87225 29.7052 6.67926 30.186 7.07419 30.0315C7.46911 29.8769 6.28434 30.5809 6.28434 30.5809L4.29255 31.4566C4.29255 31.4566 4.61879 33.9292 4.53294 34.9594C4.44709 35.9897 4.53294 36.7967 4.53294 36.7967L6.04395 37.0371L4.60162 37.9128C4.60162 37.9128 4.75616 40.3853 4.44709 41.261C4.12085 42.1367 4.84201 43.7336 4.84201 43.7336L6.28434 43.4932L5.01372 44.2831C5.01372 44.2831 6.21566 45.9658 7.72667 47.8717C9.20334 49.7433 10.0104 50.3099 11.8991 50.7907C11.9335 50.7907 11.985 50.8079 12.0193 50.8251C14.0111 51.3058 27.3355 47.3909 28.2799 47.0819C29.2414 46.7556 42.4799 38.4622 44.9525 38.3936C44.9525 38.3936 46.0686 37.5179 45.9827 35.8351V35.8695Z" fill="#FED67B"/>
<g style="mix-blend-mode:multiply" opacity="0.6">
<path d="M2.8159 10.4742C3.05629 10.9206 2.9361 11.8307 3.65726 11.9852C4.37843 12.1397 5.88944 13.2558 6.57626 13.0669C7.24592 12.8609 8.72259 12.5003 9.44375 12.2771C10.1649 12.0367 15.7797 10.8004 16.8958 10.0449C18.0119 9.28941 23.9186 8.44805 24.8629 8.13898C25.8245 7.81274 30.203 7.22894 32.4695 6.7825C33.3109 6.62797 33.8432 6.62797 34.2037 6.69665C34.2209 6.50777 34.2381 6.38758 34.2552 6.35324C34.3754 6.18153 36.2814 5.82095 36.2814 5.82095C36.2814 5.82095 36.5733 4.08672 37.0541 3.48575C37.5348 2.88478 35.44 1.92323 34.3068 0.910162C33.1907 -0.120073 32.8301 0.000121143 32.8301 0.000121143C32.8301 0.000121143 20.2097 5.37452 16.209 6.04417C12.088 6.76533 5.68339 6.30173 4.60165 6.67948C4.58448 6.67948 4.53296 6.71382 4.44711 6.74816C3.77746 7.0744 1.13319 8.58542 0.274658 12.0882C0.858458 11.4186 1.52811 10.6287 1.52811 10.6287C1.52811 10.6287 2.55835 10.0277 2.79873 10.4742H2.8159Z" fill="#FED67B"/>
</g>
<path d="M10.9377 28.1084C10.9377 28.1084 8.84286 26.3742 12.0194 23.7986C15.196 21.223 12.1396 21.0513 15.5394 19.2484C18.9563 17.4626 23.8499 19.1282 24.5711 21.4634C25.2923 23.7986 26.477 23.7986 28.6405 25.7732C30.7869 27.7478 34.0836 30.4951 29.8425 33.002C25.6013 35.5089 23.3863 35.3372 21.7036 36.7108C20.0209 38.0845 15.8485 38.8057 13.2042 37.7239C10.5771 36.6422 10.8175 35.6978 11.0579 33.1222C11.2982 30.5466 9.56402 30.3749 10.9377 28.0912V28.1084Z" fill="#78CBEB"/>
<g style="mix-blend-mode:multiply" opacity="0.4">
<path d="M45.9828 35.8695L45.8969 34.1868L44.3 34.7534L45.1757 33.7918C45.1757 33.7918 44.1455 32.8303 43.8193 32.195C43.493 31.5597 42.6173 31.5597 42.6173 31.5597L38.7024 33.6373C38.7024 33.6373 38.5651 33.4313 38.3418 33.0878C38.1701 33.2252 37.9984 33.3626 37.8611 33.4828C37.0712 34.2039 31.4908 36.831 29.9283 37.432C28.3657 38.033 26.6658 38.9945 24.6741 38.9945C22.6823 38.9945 16.5867 40.0763 14.6636 40.3167C12.7577 40.557 12.0365 40.8318 10.5255 41.9479C9.01448 43.064 8.96297 43.3387 7.14289 43.3043C6.04397 43.2872 5.06525 42.9781 4.48145 42.7205C4.61881 43.3043 4.84203 43.7851 4.84203 43.7851L6.28436 43.5447L5.01373 44.3346C5.01373 44.3346 6.21567 46.0173 7.72669 47.9232C9.20336 49.7948 10.0104 50.3615 11.8991 50.8422C11.9335 50.8422 11.985 50.8594 12.0193 50.8766C14.0111 51.3573 27.3355 47.4425 28.2799 47.1334C29.2414 46.8071 42.48 38.5137 44.9525 38.4451C44.9525 38.4451 46.0686 37.5694 45.9828 35.8866V35.8695Z" fill="#FED67B"/>
</g>
<path d="M7.3491 10.1823C7.3491 10.1823 6.67945 10.1823 6.02697 10.148C5.39166 10.1136 4.27557 10.2338 4.27557 10.2338C4.27557 10.2338 4.30991 11.1954 4.24123 11.6761C4.15538 12.1569 5.5977 12.5862 5.87243 12.7922C6.14716 12.9983 7.58949 11.8307 7.58949 11.8307L7.3491 10.1995V10.1823Z" fill="#F49F50"/>
<path d="M12.8609 44.3174C12.8609 44.3174 15.694 43.6993 17.1535 43.2357C16.9818 42.2569 16.4839 40.9176 15.0931 40.8489L14.2517 40.5742C14.2517 40.5742 13.4104 40.6601 13.2215 40.6086C13.0154 40.5742 12.466 41.2095 11.9509 42.2054C11.4357 43.2013 11.1953 44.2316 10.8691 45.0042C10.5429 45.7597 10.7146 46.0345 11.0236 46.3607C11.3155 46.6526 11.7791 47.3738 12.7407 47.2879C12.8266 46.9617 12.9467 46.4809 12.9811 45.9314C13.0669 44.9012 12.8609 44.3346 12.8609 44.3346V44.3174Z" fill="#F49F50"/>
<path d="M12.8609 44.3174C12.8609 44.3174 13.067 44.884 12.9811 45.9143C12.9468 46.4637 12.8266 46.9445 12.7407 47.2707C12.8266 47.2707 12.9296 47.2536 13.0326 47.2192C14.1831 46.9445 16.3465 45.9486 16.4667 45.8284C16.5869 45.7082 17.2566 44.2659 17.2566 44.2659C17.2566 44.2659 17.2566 43.8023 17.1536 43.2357C15.7112 43.6821 12.8609 44.3174 12.8609 44.3174Z" fill="#ED7839"/>
<path d="M25.4984 14.0629L25.1721 14.9386L26.5114 15.7456C26.5114 15.7456 25.8246 16.9132 25.6529 16.999C25.4812 17.0849 26.0135 17.5657 26.2882 17.6858C26.5629 17.806 27.2498 16.3122 27.2498 16.3122L28.3487 16.8445L28.7436 15.9688L27.8679 15.4022L28.4002 14.1144L27.7649 13.7023L27.1296 14.8012L25.4812 14.0457L25.4984 14.0629Z" fill="#9D2519"/>
<g style="mix-blend-mode:overlay" opacity="0.2">
<path d="M34.9937 30.7698C33.8776 30.7355 32.5383 31.2334 31.2677 31.4738C31.6283 31.2678 31.9717 31.0274 32.2464 30.684C32.607 30.2204 33.1049 29.3618 32.6928 28.778C32.6757 28.7437 32.6413 28.7094 32.607 28.675C33.0534 28.3659 33.4655 27.9882 33.7917 27.4731C34.1008 26.9751 34.1352 26.3398 33.8776 25.8247C33.7574 25.5843 33.5342 25.3783 33.3625 25.2066C33.2595 25.1035 33.1564 25.0005 33.0362 24.8975C32.9504 24.8116 32.8989 24.7429 32.8645 24.7086C33.1908 24.1763 33.3968 23.3521 32.607 23.3693C31.5939 23.3865 30.5637 23.5582 29.5506 23.5582C30.1344 23.0087 30.8556 22.4936 31.2505 21.7724C31.5767 21.1886 31.5767 20.7422 31.3879 20.3816C31.9545 19.9867 32.2979 19.4201 31.9202 18.5787C31.6798 18.0292 30.8041 17.7202 30.2718 17.5485C30.2374 17.5485 30.2203 17.5485 30.1859 17.5313C30.6324 17.2566 31.0273 16.9475 31.3707 16.5182C31.7484 16.0375 32.1262 15.2991 31.7656 14.7153C31.5939 14.4406 31.2677 14.2861 30.9414 14.1315C31.0101 13.9426 31.0445 13.7366 31.0273 13.5134C31.0273 13.0669 30.5293 12.8266 30.0314 12.672C30.1859 12.5518 30.3233 12.4488 30.4091 12.3458C30.7869 11.9852 31.0616 11.5559 31.3707 11.1438C32.0747 10.2681 32.6928 9.44395 32.71 8.27635C32.71 7.98445 32.4353 7.84708 32.1777 7.86425C29.9627 8.03596 27.7305 7.86425 25.567 8.49957C23.1975 9.16922 20.9997 10.2853 18.6645 11.058C16.3293 11.8307 13.891 12.3286 11.4872 12.8266C8.98025 13.3417 6.40466 13.6507 3.91493 14.2174C3.33113 14.3547 2.86752 14.8355 2.67864 15.385C2.54128 15.7627 2.59279 16.4324 3.15942 16.3294C3.48566 16.2778 3.8119 16.2092 4.13814 16.1576C4.67043 16.5182 5.52896 16.5182 6.06125 16.5354C6.18144 16.5354 6.31881 16.5354 6.439 16.5354C6.18144 16.6556 5.94106 16.793 5.70067 16.9475C4.6876 17.6515 4.12097 19.214 5.76935 19.4029C5.99257 19.4201 6.21578 19.4029 6.42183 19.3686C6.67939 19.3342 7.03997 19.1453 6.97129 19.3686C6.8511 19.7978 6.439 20.3129 6.69656 20.7765C6.8511 21.0513 7.0228 21.2745 7.22885 21.4977C7.29753 21.5664 7.34904 21.6007 7.38338 21.6351C7.33187 21.6351 7.26319 21.6694 7.17734 21.7381C6.35315 22.2875 5.99257 23.1461 5.32291 23.8329C5.08253 24.0905 4.37853 25.1379 5.0997 25.3096C5.92388 25.4984 6.76524 25.4985 7.57226 25.7903C8.92874 26.2883 7.91567 27.1812 7.74397 28.0225C7.57226 28.9154 8.10455 29.4133 8.87723 29.6881C9.59839 29.9456 8.87723 30.3062 8.53381 30.6668C8.10455 31.1132 7.81265 31.594 7.58943 32.1606C7.45207 32.5041 7.46924 32.8818 7.84699 33.0363C8.43079 33.2767 9.08327 33.2939 9.61556 33.6545C10.268 34.0837 9.32366 35.1311 9.0661 35.4917C8.25908 36.6422 7.48641 37.9471 7.6066 39.4066C7.6066 39.5783 7.74397 39.8015 7.95001 39.8187C9.16913 39.9217 10.3367 40.2995 11.5558 40.0591C12.2083 39.9389 12.7578 39.5612 13.4103 39.4238C14.0456 39.3036 14.6981 39.3551 15.3334 39.4238C16.5696 39.544 17.8059 39.647 19.025 39.4238C20.1926 39.2006 21.2572 38.6168 22.2875 38.0673C24.7944 36.7108 27.3356 36.1099 30.1344 35.5948C31.2162 35.3887 32.2292 35.1998 33.1908 34.616C34.118 34.0494 34.5644 32.899 35.1139 32.0233C35.2856 31.7657 35.5603 30.7698 34.9594 30.7527L34.9937 30.7698Z" fill="#FED67B"/>
</g>
<g style="mix-blend-mode:multiply" opacity="0.2">
<path d="M12.7919 41.3297C13.4444 40.9692 13.5646 41.3812 14.1312 42.0852C14.6978 42.7721 14.5261 43.064 14.4231 43.373C14.3372 43.6306 13.9423 43.9912 13.4444 44.1972C14.3544 43.9912 16.0886 43.5791 17.1189 43.2528C16.9472 42.2741 16.4492 40.9348 15.0584 40.8661L14.217 40.5914C14.217 40.5914 13.3757 40.6773 13.1868 40.6257C13.0151 40.5914 12.5515 41.0893 12.0879 41.8792C12.3111 41.656 12.5515 41.4499 12.7575 41.3297H12.7919Z" fill="#F7B16F"/>
</g>
<g style="mix-blend-mode:multiply" opacity="0.2">
<path d="M11.6931 45.9658C11.1951 45.9658 10.9204 45.7769 10.783 45.2446C10.5941 45.8284 10.7487 46.086 11.0234 46.3607C11.3153 46.6526 11.7789 47.3738 12.7405 47.2879C12.8263 46.9617 12.9465 46.4809 12.9809 45.9315C12.9809 45.7426 12.998 45.588 12.9809 45.4335C12.9293 45.588 12.8607 45.7597 12.7233 45.9486C12.0365 46.9102 12.3627 45.983 11.6759 45.983L11.6931 45.9658Z" fill="#F7B16F"/>
</g>
<g style="mix-blend-mode:multiply" opacity="0.1">
<path d="M17.1362 43.2357C16.5524 43.4246 15.7282 43.6306 14.9556 43.8195C15.2818 44.3346 15.3848 44.7467 14.7323 45.588C14.1485 46.3264 13.29 46.5324 12.8779 46.6011C12.8264 46.8587 12.7749 47.0819 12.7234 47.2536C12.8092 47.2536 12.9123 47.2364 13.0153 47.2021C14.1657 46.9274 16.3292 45.9315 16.4494 45.8113C16.5696 45.6911 17.2393 44.2487 17.2393 44.2487C17.2393 44.2487 17.2393 43.7851 17.1362 43.2185V43.2357Z" fill="#ED7839"/>
</g>
<path opacity="0.4" d="M44.5921 33.5858L43.8366 34.4958L42.6003 35.3372C42.6003 35.3372 44.077 35.011 44.3174 34.7362C44.5578 34.4615 45.1931 33.7747 45.1931 33.7747L44.7467 33.3282L44.5921 33.5686V33.5858Z" fill="#ED7839"/>
<g style="mix-blend-mode:multiply" opacity="0.3">
<path d="M7.34897 10.1823C7.34897 10.1823 6.86819 10.1823 6.35307 10.1651C6.31873 10.2853 6.52478 10.4227 6.40458 10.6287C5.92381 11.3499 5.83795 11.865 5.13396 11.8994C4.80772 11.9165 4.49865 11.7963 4.25826 11.659C4.18958 12.1397 5.61474 12.569 5.88947 12.7751C6.1642 12.9811 7.60653 11.8135 7.60653 11.8135L7.36614 10.1823H7.34897Z" fill="#F49F50"/>
</g>
<path d="M32.2291 16.4495L33.1907 16.6899L33.6028 18.8363L33.5512 19.7463C34.032 19.6604 33.8775 19.1797 33.8775 19.1797C33.8775 19.1797 33.3795 17.0333 33.431 16.4839C33.1391 16.4839 32.418 16.192 32.418 16.192C32.418 16.192 31.0959 16.4324 30.9241 16.4839C30.7524 16.5354 32.2463 16.4324 32.2463 16.4324L32.2291 16.4495Z" fill="#F9BE74"/>
<path d="M31.8171 29.2416C31.8686 29.2416 31.9544 29.2245 32.0746 29.1901C31.8686 29.2245 31.7656 29.2416 31.8171 29.2416Z" fill="#FED67B"/>
<path d="M0.0341797 13.9255C0.171544 12.672 0.652321 11.1438 1.04724 10.0793C0.497786 11.0923 0.102862 12.3629 0.0341797 13.9255Z" fill="#F9BE74"/>
<path d="M45.9827 35.8695L45.8968 34.1868L44.3 34.7534L45.1757 33.7918C45.1757 33.7918 44.1454 32.8303 43.8192 32.195C43.493 31.5597 42.6173 31.5597 42.6173 31.5597L38.7024 33.6373C38.7024 33.6373 37.26 31.5597 36.7964 29.7224C36.3157 27.8851 35.9207 28.5205 35.9207 28.5205L34.3239 28.675L36.1611 27.4044C36.1611 27.4044 34.8046 23.6612 34.5643 22.3047C34.3239 20.9482 33.9289 20.622 33.9289 20.622L31.7826 20.7765C31.7826 20.7765 32.727 20.0725 33.2936 19.815L32.3321 20.1412C32.3321 20.1412 30.9584 21.1543 30.7696 21.223C30.5979 21.2745 32.1432 20.8109 32.1432 20.8109L33.637 20.8624L34.1178 22.0643L34.839 23.747C34.839 23.747 35.3713 26.2539 35.5602 26.3226C35.7319 26.3741 35.5086 27.2842 35.5086 27.2842L33.4138 28.778C33.4138 28.778 32.521 29.0871 32.0574 29.2073C32.6412 29.1214 34.0148 28.9497 34.0148 28.9497H36.4015L37.054 31.096L37.9469 32.7788L37.5348 34.0322C37.5348 34.0322 33.8259 35.8866 33.6542 35.9382C33.4825 35.9897 29.8252 38.0845 29.8252 38.0845L27.0779 41.8448L29.1727 43.5276L30.7867 45.7082C34.9935 43.27 43.0637 38.4622 44.9525 38.4107C44.9525 38.4107 46.0685 37.535 45.9827 35.8523V35.8695Z" fill="#F9BE74"/>
<path d="M8.37925 48.3868C8.13886 47.9061 5.56328 44.1972 5.56328 44.1972L6.88541 43.5962L8.08735 42.9438C8.08735 42.9438 6.06122 43.2357 5.87235 43.3043C5.70064 43.3559 4.97948 43.064 4.97948 43.064L4.92796 41.862C4.92796 41.862 4.63606 40.849 4.75626 40.2995C4.87645 39.7672 5.16835 38.0845 5.16835 38.0845L5.94103 37.432L6.90258 37.0714L8.03584 36.6593L6.06122 37.0543L4.61889 37.93C4.61889 37.93 4.77343 40.4025 4.46436 41.2782C4.13812 42.1539 4.85928 43.7508 4.85928 43.7508L6.30161 43.5104L5.03099 44.3002C5.03099 44.3002 6.23293 45.983 7.74394 47.8889C9.06608 49.5716 9.85592 50.2069 11.3669 50.6534C11.2467 50.5503 11.1437 50.4645 11.0235 50.3958C10.4226 50.0352 8.63681 48.8333 8.39642 48.3697L8.37925 48.3868Z" fill="#F9BE74"/>
<path d="M4.6704 29.6709C4.6704 29.6709 3.82904 30.1517 3.89773 29.7224C3.94924 29.3103 3.48563 27.6963 3.48563 27.6963L3.31393 27.0953L4.39567 26.563L5.52893 26.0822H4.0866C3.9149 26.0822 3.24524 25.9105 3.24524 25.9105C3.24524 25.9105 2.88466 25.1894 2.64427 24.5369C2.40388 23.8844 2.0433 22.9229 2.0433 22.9229C2.0433 22.9229 2.93617 22.2704 3.17656 22.1502C3.41695 22.03 5.0825 21.429 5.0825 21.429C5.0825 21.429 4.12094 21.7209 3.76036 21.7209C3.39978 21.7209 2.79881 21.4805 2.50691 21.4805C2.21501 21.4805 1.25345 21.532 1.25345 21.532C1.25345 21.532 0.480778 17.2222 0.0515137 15.2133C0.53229 21.5149 0.927214 21.8239 0.927214 21.8239L2.83315 21.9098L1.63121 22.5451C1.63121 22.5451 2.83315 25.4126 2.7473 26.2883L3.94924 26.3741L2.98768 27.0095C2.98768 27.0095 3.70885 29.3275 3.55431 30.1173C3.55431 30.1173 4.12094 30.3577 4.99664 30.0315C5.87234 29.7052 6.67936 30.186 7.07428 30.0315L5.85517 29.4648L4.65323 29.6366L4.6704 29.6709Z" fill="#F9BE74"/>
<path d="M4.72175 35.715L4.84194 32.9677L4.72175 31.7142L6.33578 30.8213L7.41753 30.3406L8.13869 29.9285L7.15997 30.0658C7.09129 30.1517 6.28427 30.6325 6.28427 30.6325L4.29248 31.5082C4.29248 31.5082 4.61872 33.9807 4.53287 35.011C4.44702 36.0412 4.53287 36.8482 4.53287 36.8482L6.04388 37.0886L4.79043 36.7452L4.73892 35.7321L4.72175 35.715Z" fill="#F9BE74"/>
<path d="M45.9829 35.8695L45.897 34.1868L44.3002 34.7534L45.1759 33.7918C45.1759 33.7918 44.1456 32.8303 43.8194 32.195C43.4931 31.5597 42.6174 31.5597 42.6174 31.5597L38.7025 33.6373C38.7025 33.6373 30.6839 37.8269 30.1344 37.9471C29.5678 38.0673 28.1426 39.5096 26.7003 39.2693C25.258 39.0289 18.4412 40.0591 17.7716 40.0591C17.1019 40.0591 13.9426 40.454 14.2173 40.5742C14.492 40.6944 14.6637 42.2569 14.6637 42.2569C14.6637 42.2569 16.0545 41.9307 16.1747 41.9307C16.2949 41.9307 16.7414 42.1367 16.6212 42.1711C16.501 42.2054 14.9384 42.7721 15.2303 43.2528C15.5051 43.7336 15.797 46.0516 15.797 46.0516C15.797 46.0516 14.9556 47.2536 14.4748 47.7687C13.9941 48.2838 12.2083 50.3271 12.2083 50.3271L11.8821 50.8594C11.9164 50.8594 11.9679 50.8766 12.0023 50.8937C13.9941 51.3745 27.3184 47.4596 28.2628 47.1506C29.2244 46.8243 42.4629 38.5309 44.9355 38.4622C44.9355 38.4622 46.0516 37.5865 45.9657 35.9038L45.9829 35.8695Z" fill="#F7B16F"/>
<g style="mix-blend-mode:multiply" opacity="0.3">
<path d="M38.1703 37.3461C39.3207 36.9512 35.0967 37.5522 34.3069 37.5007C33.517 37.4663 32.7959 36.9512 35.7836 35.6634C38.7712 34.3928 39.7671 33.6373 40.7287 32.9848C41.4155 32.5212 42.1195 31.9202 42.875 31.5768C42.7377 31.5597 42.6346 31.5597 42.6346 31.5597L38.7197 33.6373C38.7197 33.6373 30.7011 37.8269 30.1516 37.9471C29.7567 38.033 28.9325 38.7713 27.9709 39.1147C28.7608 39.0804 29.5506 39.0117 30.2375 38.8572C33.0706 38.2562 37.0198 37.7411 38.1703 37.3461Z" fill="#F7B16F"/>
<path d="M42.3942 38.5309C39.1661 39.6813 32.0232 43.6306 29.2759 44.7467C26.5286 45.8628 22.2531 46.8243 16.6383 48.9706C14.0971 49.9494 12.7921 50.3271 12.1053 50.4645L11.8821 50.8079C11.9164 50.8079 11.9679 50.8251 12.0023 50.8422C13.9941 51.323 27.3184 47.4081 28.2628 47.099C29.2244 46.7728 42.4629 38.4794 44.9355 38.4107C44.9355 38.4107 45.794 37.7411 45.9485 36.4533C45.3819 37.3633 45.1758 37.5179 42.377 38.5309H42.3942Z" fill="#F7B16F"/>
</g>
<g style="mix-blend-mode:overlay" opacity="0.1">
<path d="M16.209 40.4884C16.209 40.4884 19.0078 40.2823 19.9522 40.0935C20.9137 39.8874 27.5587 39.3723 29.3273 39.2521C31.0787 39.1319 34.1866 38.5309 36.5905 38.0158C38.9772 37.5007 39.3893 36.8654 38.857 36.7795C38.3419 36.6937 37.2258 37.0543 36.0582 37.1058C34.9077 37.1401 34.9421 36.8654 36.8995 35.8351C38.857 34.8049 42.5143 31.7657 42.9264 31.7657C43.3385 31.7657 42.0507 33.3969 40.4882 35.0281C38.9256 36.6593 40.4023 36.4189 41.1235 36.1099C41.8447 35.7836 44.1455 34.8736 45.0727 34.6332C45.9828 34.3928 45.708 34.5989 45.0384 35.4746C44.3687 36.3503 41.8103 37.9471 39.9387 38.6683C38.0671 39.3895 31.7655 42.0509 29.9798 43.373C28.194 44.6952 16.2261 47.0819 15.8656 47.0475C15.505 47.0132 16.4665 46.2062 17.1018 45.4163C17.7371 44.6265 15.505 44.0255 16.0201 43.3902C16.5352 42.7549 17.3766 42.0337 17.6513 41.7933C17.926 41.553 18.1321 41.5186 16.5009 41.6388C14.8697 41.759 14.1142 40.5227 16.2261 40.5227L16.209 40.4884Z" fill="white"/>
</g>
<g style="mix-blend-mode:multiply" opacity="0.5">
<path d="M40.9176 39.9389C39.1662 40.6601 30.5122 45.4335 29.1214 46.2405C27.7305 47.0304 21.9441 48.5586 20.1927 49.1939C18.8018 49.6918 14.0456 50.5503 12.1396 50.8938C14.492 51.2028 27.3356 47.4425 28.28 47.1162C29.2416 46.79 42.4801 38.4966 44.9526 38.4279C44.9526 38.4279 45.1072 38.3077 45.296 38.0673C44.9011 38.2219 44.4375 38.3592 43.9567 38.5481C42.875 38.943 42.6861 39.2178 40.9347 39.9389H40.9176Z" fill="#F7B16F"/>
</g>
<g style="mix-blend-mode:multiply">
<path d="M5.03095 7.72689L6.23289 7.67538C6.23289 7.67538 5.34002 8.80864 5.58041 8.68845C5.8208 8.56825 7.26313 8.4824 7.26313 8.4824L5.94099 9.56415L7.02274 10.1308L7.67522 10.4914L9.46096 8.87732L10.6629 7.3148L9.3236 6.50778C7.05708 6.52495 5.15114 6.50778 4.61886 6.69666C4.60169 6.69666 4.55017 6.731 4.46432 6.76534C4.29262 6.85119 3.98354 7.0229 3.60579 7.28046L3.53711 7.50368L5.03095 7.74406V7.72689Z" fill="#FED67B"/>
</g>
<path d="M4.84219 7.36633L6.55925 7.52087L5.83808 8.48242H7.2289L8.70557 8.27638C8.70557 8.27638 7.74402 8.79149 7.34909 8.87735C6.95417 8.9632 5.90677 9.547 5.90677 9.547L6.98851 10.1136L6.3532 11.4701L5.90677 12.9124C5.90677 12.9124 8.49952 12.0367 9.46108 11.9165C10.4226 11.7963 13.8052 11.0408 15.7283 10.2338C17.6343 9.44398 21.2744 8.03599 24.4167 7.84711C27.5589 7.64106 33.7059 6.16439 34.2554 6.35327C34.3756 6.18156 36.2815 5.82098 36.2815 5.82098C36.2815 5.82098 36.5734 4.08675 37.0542 3.48578C37.535 2.88481 35.4402 1.92326 34.3069 0.910193C33.1908 -0.120042 32.8302 0.00015166 32.8302 0.00015166C32.8302 0.00015166 20.2099 5.37455 16.2091 6.0442C12.0882 6.76536 5.68355 6.30176 4.6018 6.67951C4.58463 6.67951 4.53312 6.71385 4.44727 6.74819L4.63614 7.04009L4.84219 7.36633Z" fill="#F9BE72"/>
<g style="mix-blend-mode:multiply" opacity="0.4">
<path d="M34.324 0.892988C33.1907 -0.120076 32.8301 0.000117751 32.8301 0.000117751C32.8301 0.000117751 20.2098 5.37451 16.209 6.04416C15.1444 6.23304 13.9425 6.33606 12.7234 6.40475C13.7708 6.47343 14.6121 6.4906 14.9384 6.45626C16.0888 6.30172 22.2702 5.94114 24.0216 5.82095C25.773 5.70075 30.5636 5.09978 27.8507 5.18564C25.1034 5.27149 19.3169 5.82095 19.6431 5.39168C19.9694 4.94525 31.4908 0.927329 31.9201 0.686941C32.3665 0.446553 34.2725 0.6526 34.9936 1.92322C35.7148 3.19385 36.5905 3.31404 36.1956 3.91501C35.8006 4.51598 35.6461 4.99676 34.4442 5.39168C33.2422 5.78661 28.1082 6.90269 25.1892 7.22893C22.2702 7.55518 19.9694 7.89859 18.0463 8.37936C16.1403 8.86014 11.779 10.251 9.51248 11.367C7.8641 12.1741 6.64499 12.3286 6.09553 12.3629L5.92383 12.9296C5.92383 12.9296 8.51659 12.0539 9.47814 11.9337C10.4397 11.8135 13.8223 11.058 15.7454 10.251C17.6513 9.46111 21.2915 8.05312 24.4337 7.86425C27.5759 7.6582 33.723 6.18153 34.2725 6.37041C34.3927 6.1987 36.2986 5.83812 36.2986 5.83812C36.2986 5.83812 36.5905 4.10389 37.0713 3.50292C37.552 2.90195 35.4572 1.94039 34.324 0.927329V0.892988Z" fill="#F7B16F"/>
</g>
<g style="mix-blend-mode:overlay" opacity="0.1">
<path d="M7.43495 6.76534C7.43495 6.76534 11.5044 6.79968 13.0497 6.79968C14.5951 6.79968 20.021 6.28456 21.6694 6.23305C23.3006 6.19871 27.7306 5.5634 27.3357 5.99267C26.9407 6.4391 22.3047 6.74817 20.6048 7.43499C18.8877 8.10465 15.3506 7.88143 13.4618 9.15205C11.5902 10.4227 6.61077 12.1054 7.40061 10.5429C8.19046 8.98035 5.64921 9.78737 8.67124 8.67128C11.6933 7.55519 11.9336 7.70972 10.1822 7.70972C8.43085 7.70972 6.62794 8.07031 7.43495 7.46934C8.2248 6.86837 4.56747 7.07441 7.43495 6.74817V6.76534Z" fill="white"/>
</g>
<g style="mix-blend-mode:multiply" opacity="0.6">
<path d="M17.6342 9.1177C16.2434 9.83886 12.0194 11.0751 9.7357 11.5903C8.19035 11.9508 6.71368 12.5175 5.92383 12.8437V12.8952C5.92383 12.8952 8.49942 12.0195 9.46097 11.8993C10.4225 11.7791 13.8051 11.0236 15.7282 10.2166C17.6342 9.42677 21.2743 8.01878 24.4165 7.8299C27.5588 7.62386 33.7058 6.14719 34.2553 6.33606C34.3755 6.16436 36.2814 5.80377 36.2814 5.80377C36.2814 5.80377 36.2814 5.73509 36.3158 5.6149C33.7574 6.25021 24.3135 7.57235 22.8025 7.8299C21.1198 8.10463 19.0078 8.39653 17.617 9.10053L17.6342 9.1177Z" fill="#F7B16F"/>
</g>
<g style="mix-blend-mode:overlay" opacity="0.1">
<path d="M22.0299 4.72205C22.0299 4.72205 30.3577 1.09906 31.9889 1.09906C33.6201 1.09906 33.5857 1.61418 34.2554 2.36968C34.9251 3.12519 35.9725 3.69182 35.0453 4.44732C34.1352 5.20283 30.3405 4.44732 27.7478 4.68771C25.155 4.9281 24.0046 4.68771 26.065 3.89787C28.1427 3.10802 23.043 4.29279 21.9956 4.73922L22.0299 4.72205Z" fill="white"/>
</g>
<path d="M16.4495 37.9128L16.3809 37.7411C16.7758 37.6037 17.1364 37.432 17.4626 37.2431L17.5485 37.3977C17.2222 37.5865 16.8445 37.7582 16.4495 37.8956V37.9128ZM18.5444 36.728L18.4242 36.5906C18.7332 36.3331 18.9908 36.0412 19.1968 35.7149L19.3514 35.818C19.1282 36.1442 18.8534 36.4533 18.5444 36.728ZM19.8837 34.7362L19.712 34.6847C19.8321 34.3413 19.918 33.9464 19.9695 33.5343H20.1412C20.0897 33.9807 20.0039 34.3756 19.8665 34.7362H19.8837ZM20.0382 32.3495C20.0382 31.9718 20.0039 31.594 19.9523 31.1647H20.124C20.1756 31.5768 20.2099 31.9718 20.2099 32.3495H20.0382ZM19.7806 29.98C19.712 29.585 19.6433 29.1901 19.5574 28.8124L19.7291 28.778C19.815 29.173 19.8837 29.5679 19.9523 29.9628L19.7806 29.9971V29.98ZM19.3342 27.6448C19.2483 27.164 19.1797 26.8034 19.1282 26.46L19.2999 26.4257C19.3514 26.7691 19.4201 27.1297 19.5059 27.5933L19.3342 27.6276V27.6448ZM18.9736 25.2581C18.9736 25.1207 18.9736 24.9833 18.9736 24.846C18.9736 24.5712 18.9736 24.3137 19.0251 24.0389H19.1968C19.1625 24.3137 19.1625 24.5712 19.1625 24.846C19.1625 25.1207 19.1625 25.1035 19.1625 25.2409H18.9908L18.9736 25.2581ZM19.4201 22.9229L19.2483 22.8713C19.3514 22.4936 19.5059 22.0987 19.6776 21.7381L19.8321 21.8239C19.6604 22.1845 19.5231 22.5451 19.4029 22.9229H19.4201ZM20.4331 20.7937L20.2786 20.6907C20.5018 20.3644 20.7594 20.0554 21.0513 19.7463L21.1886 19.8665C20.9139 20.1584 20.6563 20.4675 20.4331 20.7765V20.7937ZM22.0643 19.0938L21.9613 18.9565C22.3047 18.6817 22.6653 18.4585 22.9915 18.304L23.0774 18.4585C22.7683 18.613 22.4249 18.8191 22.0815 19.0766L22.0643 19.0938ZM24.1763 18.0636L24.1248 17.8919C24.949 17.6343 25.1894 17.6 25.3096 17.6V17.7717C25.155 17.7717 24.7944 17.8575 24.1763 18.0636Z" fill="black"/>
<path opacity="0.6" d="M34.8908 32.8303L34.8564 32.7101C34.8392 32.7101 32.9848 33.3111 30.7355 33.9636C30.4607 34.0494 30.1345 34.1181 29.8083 34.2039C29.6194 33.0363 29.276 31.6627 28.8124 30.083C30.9072 29.4477 33.0707 29.0013 33.0878 29.0013V28.8811C33.0363 28.8811 30.89 29.3275 28.778 29.98C28.3831 28.5892 27.9023 27.0438 27.4044 25.3783C28.0225 25.2409 28.6063 25.1035 29.1043 24.9318C31.9889 23.9874 33.1394 24.0905 33.1394 24.0905V23.9703C33.105 23.9703 31.9718 23.8673 29.0528 24.8116C28.5548 24.9833 27.971 25.1207 27.3529 25.2581C27.0953 24.4167 26.8206 23.541 26.5458 22.6481C26.2539 21.6694 26.0136 20.6564 25.8419 19.6605C26.2711 19.5746 26.7004 19.4716 27.0953 19.3857C28.2286 19.1282 29.3103 18.8878 30.186 18.8878V18.7676C29.2931 18.7676 28.2114 19.008 27.061 19.2655C26.666 19.3514 26.2368 19.4544 25.8075 19.5403C25.3954 17.1536 25.2581 14.8183 25.2581 12.9983C25.3954 12.9983 25.5156 12.9811 25.653 12.9639C28.0225 12.8437 30.2032 11.9509 30.2204 11.9509L30.1688 11.8478C30.1517 11.8478 28.0053 12.7407 25.6358 12.8609C25.4984 12.8609 25.3782 12.8609 25.2581 12.8952C25.2581 11.0408 25.3611 9.78737 25.3954 9.65H25.3439C25.3439 9.63283 25.2924 9.61566 25.2924 9.61566C25.2581 9.73586 25.1379 11.0236 25.1379 12.9124C24.142 13.0154 23.1804 13.2902 22.236 13.5477C21.1028 13.8568 20.021 14.1659 18.8706 14.2002C18.6474 12.2771 18.5272 10.8863 18.5272 10.8519H18.407C18.407 10.9035 18.5272 12.2771 18.7504 14.2174C17.6171 14.2689 15.9001 14.6466 14.2345 15.0072C13.9941 15.0587 13.7538 15.1103 13.5305 15.1618C13.4962 13.479 13.6336 11.8993 13.6336 11.8822H13.5134C13.5134 11.8822 13.376 13.479 13.4103 15.1789C11.9337 15.488 10.5944 15.7627 9.73584 15.7627C8.87732 15.7627 9.04902 15.7799 8.72278 15.8142C8.72278 14.2689 8.67127 12.7407 8.67127 12.7235H8.55107C8.55107 12.7407 8.60259 14.2861 8.60259 15.8314C6.97138 15.9859 5.49471 16.3637 5.47754 16.3809L5.51188 16.5011C5.52905 16.5011 6.98855 16.1061 8.60259 15.9688C8.60259 16.1233 8.60259 16.295 8.60259 16.4496C8.60259 16.9818 8.73995 19.1968 9.10053 22.133C7.86425 22.4593 6.76533 22.837 6.14719 23.0602L6.07851 23.0946L6.11285 23.2148L6.1987 23.1804C6.81684 22.9572 7.89859 22.5966 9.13487 22.2704C9.37526 24.1935 9.7015 26.4257 10.1479 28.6922C9.27224 28.7952 8.55107 28.8639 8.13898 28.9154C7.86425 28.9497 7.70971 28.9497 7.6582 28.9669V29.0871C7.72689 29.0871 7.89859 29.0528 8.15615 29.0356C8.58542 29.0013 9.28941 28.9326 10.1823 28.8124C10.5429 30.6325 10.9893 32.4869 11.5044 34.2211C9.92472 34.4615 8.6541 34.5989 8.61976 34.5989V34.7191C8.6541 34.7191 9.94189 34.5817 11.5388 34.3413C12.0195 35.9382 12.5862 37.432 13.2386 38.7026C11.5216 39.1319 10.2166 39.441 10.1308 39.441V39.5612C10.251 39.5612 11.5731 39.2521 13.3073 38.8228C13.4447 39.0976 13.5821 39.3551 13.7366 39.5955L13.8396 39.5268C13.7022 39.2864 13.5649 39.046 13.4275 38.7885C14.8183 38.4451 16.4324 37.9986 17.9262 37.5865C18.0464 38.0158 18.1494 38.3592 18.2181 38.5653L18.3383 38.5309C18.2696 38.3077 18.1666 37.9815 18.0464 37.5522C19.0938 37.2603 20.0554 36.9512 20.8109 36.6937C21.8068 36.3503 22.9057 36.0412 24.0218 35.7665C24.2622 36.6078 24.4167 37.226 24.451 37.535H24.5712C24.5369 37.2088 24.3824 36.5735 24.142 35.7321C25.2581 35.4574 26.3741 35.217 27.4387 34.9766C28.2972 34.7877 29.0699 34.616 29.7396 34.4615C29.8254 34.9938 29.8769 35.4917 29.8941 35.921H30.0143C30.0143 35.4746 29.9456 34.9766 29.8598 34.4272C30.2032 34.3413 30.5123 34.2555 30.8042 34.1696C33.0535 33.5171 34.9079 32.9161 34.9251 32.9161L34.8908 32.8303ZM28.6578 30.0143C27.8852 30.2547 27.1125 30.5294 26.4772 30.8042C25.5671 31.1991 24.2622 31.4738 22.8713 31.697C22.7683 31.3708 22.6653 31.0446 22.5623 30.7183C22.0987 29.276 21.6351 27.8165 21.223 26.46C21.9956 26.3226 22.7511 26.2024 23.5238 26.0823C24.8631 25.859 26.1509 25.653 27.2842 25.4126C27.7993 27.0781 28.2629 28.6235 28.675 30.0143H28.6578ZM16.7586 27.4559C18.1323 27.061 19.5918 26.7519 21.0856 26.4944C21.4977 27.8508 21.9785 29.3275 22.4421 30.7698C22.5451 31.0961 22.6481 31.4051 22.7511 31.7314C22.2704 31.8172 21.7724 31.8859 21.2916 31.9546C19.5059 32.2293 17.8404 32.4697 16.7414 32.9161C16.2778 31.2334 15.8142 29.4134 15.4021 27.8165C15.8486 27.7135 16.3122 27.5933 16.7586 27.4559ZM15.385 27.6963C14.8698 25.653 14.4921 23.9874 14.4749 23.4552C14.4578 22.9057 14.3719 22.2017 14.2689 21.4119C15.591 21.2745 17.0505 20.9998 18.4757 20.7422C18.8706 20.6735 19.2483 20.6048 19.6261 20.519C19.8493 21.8583 20.1069 23.1289 20.3988 24.1248C20.5877 24.8116 20.8109 25.5671 21.0684 26.3742C19.5746 26.6317 18.0979 26.9408 16.7414 27.3357C16.295 27.4731 15.8486 27.5761 15.385 27.6963ZM26.4428 22.6825C26.7176 23.5925 26.9751 24.4511 27.2327 25.2924C26.0994 25.5328 24.8116 25.7388 23.4895 25.9621C22.7168 26.0823 21.9441 26.2196 21.1715 26.357C20.9311 25.55 20.6907 24.7773 20.5018 24.0905C20.2271 23.0946 19.9695 21.824 19.7463 20.4846C20.9654 20.2614 22.1158 20.0725 23.0774 20.0382C23.9703 20.0039 24.8631 19.8493 25.7217 19.6948C25.8934 20.7079 26.1338 21.7038 26.4257 22.6996L26.4428 22.6825ZM18.9049 14.3032C20.0554 14.2689 21.1543 13.977 22.2875 13.6508C23.2148 13.3932 24.1591 13.1356 25.155 13.0326C25.155 14.8527 25.2924 17.1879 25.7045 19.5746C24.8631 19.7463 23.9703 19.8837 23.0774 19.918C22.0987 19.9695 20.9482 20.1412 19.7291 20.3644C19.3857 18.3211 19.0938 16.089 18.9049 14.3032ZM14.2689 15.0931C15.9344 14.7325 17.6515 14.3547 18.7676 14.3032C18.9736 16.089 19.2483 18.3383 19.6089 20.3816C19.2312 20.4503 18.8534 20.519 18.4585 20.6048C17.0333 20.8796 15.5738 21.1543 14.2517 21.2745C14.183 20.725 14.0972 20.1412 14.0113 19.5403C13.874 18.5787 13.7366 17.5828 13.6336 16.7243C13.5821 16.2435 13.5477 15.7284 13.5305 15.2304C13.7709 15.1789 14.0113 15.1274 14.2689 15.0759V15.0931ZM8.72278 16.398C8.72278 16.2435 8.72278 16.0718 8.72278 15.9001C9.06619 15.8658 9.4096 15.8486 9.73584 15.8486C10.5944 15.8486 11.9337 15.591 13.4103 15.2648C13.4103 15.7627 13.4619 16.2779 13.5134 16.7415C13.6164 17.6 13.7538 18.5959 13.8911 19.5574C13.977 20.1584 14.0628 20.7422 14.1315 21.2745C13.8396 21.3088 13.5477 21.326 13.273 21.3432C12.0024 21.3947 10.5257 21.6866 9.22073 22.0472C8.86014 19.111 8.72278 16.9132 8.72278 16.3809V16.398ZM9.2379 22.1674C10.5429 21.824 12.0024 21.5149 13.273 21.4634C13.5477 21.4634 13.8396 21.429 14.1487 21.3947C14.2517 22.1845 14.3376 22.8885 14.3547 23.438C14.3719 23.9703 14.7497 25.653 15.2648 27.7135C13.4619 28.1427 11.6589 28.4175 10.251 28.5892C9.80453 26.3226 9.47829 24.0905 9.2379 22.1502V22.1674ZM10.2853 28.7265C11.6761 28.5548 13.4962 28.2629 15.2991 27.8508C15.694 29.4477 16.1748 31.2678 16.6384 32.9677C16.6384 32.9677 16.6212 32.9677 16.6041 32.9677C15.4708 33.4656 13.376 33.8605 11.6074 34.1181C11.0751 32.3839 10.6459 30.5466 10.2853 28.7265ZM13.3417 38.5824C12.6892 37.3118 12.1397 35.818 11.6418 34.2383C13.4103 33.9636 15.5052 33.5686 16.6556 33.0707C17.1192 34.7706 17.5485 36.3159 17.8575 37.3805C16.3465 37.8098 14.7153 38.239 13.3417 38.5996V38.5824ZM20.725 36.4876C19.9523 36.7452 18.9908 37.0543 17.9606 37.3462C17.6515 36.2816 17.2222 34.7191 16.7586 33.0192C17.8232 32.5899 19.5059 32.3324 21.2916 32.0748C21.7896 32.0061 22.2875 31.9203 22.7855 31.8516C23.2319 33.2424 23.644 34.5474 23.9359 35.5776C22.8198 35.8523 21.7209 36.1614 20.725 36.5048V36.4876ZM27.3529 34.7706C26.2883 35.011 25.1722 35.2514 24.0561 35.5261C23.7642 34.513 23.3521 33.2081 22.9057 31.8172C24.2965 31.594 25.6015 31.3193 26.5115 30.9072C27.1468 30.6325 27.9195 30.3577 28.675 30.1173C29.1214 31.697 29.4648 33.0707 29.6537 34.2383C28.9669 34.41 28.1942 34.5817 27.3357 34.7706H27.3529Z" fill="#9D6E54"/>
<path d="M15.6252 34.2039C15.6252 34.2039 15.608 34.2039 15.5908 34.2039C15.4706 34.0838 15.3504 34.0151 15.2302 33.9979C15.2302 33.9807 15.1959 33.9807 15.1787 33.9979C15.0929 33.9979 14.9898 33.9979 14.904 33.9979C14.904 33.9636 14.8525 33.9979 14.8353 34.0151C14.7151 34.0494 14.5777 34.1181 14.4576 34.2039C14.4576 34.2039 14.4232 34.2039 14.4232 34.2383C14.2859 34.3413 14.1485 34.4787 14.0283 34.616C14.0798 34.41 14.0798 34.2211 14.0111 34.0151C13.8394 33.5515 13.3243 33.6373 13.0152 33.8777C12.9981 33.8949 12.9809 33.9636 13.0152 33.9292C13.2041 33.7919 13.4102 33.7575 13.5647 33.809C13.496 33.8434 13.4273 33.8949 13.3586 33.9636C13.3243 33.9807 13.3243 34.0666 13.3758 34.0322C13.4617 33.9636 13.5475 33.912 13.6677 33.8777C13.7192 33.912 13.7536 33.9464 13.7879 33.9807C13.7021 34.0494 13.6334 34.1353 13.5647 34.2383C13.5475 34.2726 13.5647 34.307 13.599 34.2726C13.6849 34.1868 13.7536 34.1009 13.8394 34.0322C13.8738 34.0838 13.8909 34.1353 13.9081 34.2039C13.7707 34.3241 13.6677 34.513 13.6162 34.7019C13.6162 34.7019 13.6162 34.7019 13.6162 34.7191C13.5819 34.6504 13.5132 34.5989 13.4273 34.5645C13.3415 34.5302 13.2728 34.5302 13.1869 34.5302C13.1869 34.4959 13.1354 34.513 13.1011 34.5302C12.7577 34.5817 12.4486 34.8564 12.1739 35.0281C12.1395 35.0453 12.1224 35.1312 12.1739 35.0968C12.3456 34.9938 12.5173 34.8736 12.689 34.7878C12.586 34.9251 12.5001 35.0796 12.4658 35.2685C12.4658 35.3372 12.5344 35.2685 12.5516 35.2514C12.6203 35.0625 12.7233 34.8736 12.8779 34.7191C12.9294 34.7191 12.9809 34.6847 13.0324 34.6847C12.9981 34.8221 12.9637 34.9595 12.9637 35.114C12.9637 35.1827 13.0496 35.0968 13.0667 35.0625C13.1011 34.9423 13.1182 34.8049 13.1526 34.6847C13.1698 34.6847 13.1869 34.6847 13.2041 34.6847H13.2384C13.2556 34.8221 13.2728 34.9595 13.29 35.114C13.29 35.1655 13.3758 35.114 13.3758 35.0625C13.3758 34.9423 13.3758 34.8221 13.3758 34.7191C13.599 34.8221 13.5132 35.0968 13.496 35.3372C13.496 35.3887 13.5647 35.3544 13.5647 35.3372C13.6505 35.1483 13.702 34.9251 13.599 34.7534C13.599 34.7534 13.6505 34.7534 13.6677 34.7191C13.7364 34.5817 13.8222 34.4272 13.9081 34.307C13.9081 34.307 13.9081 34.3241 13.9081 34.3413C13.9253 34.5302 13.8738 34.7191 13.8222 34.8908C13.7707 34.9766 13.7192 35.0625 13.6849 35.1483C13.6334 35.217 13.5647 35.2857 13.5303 35.3715C13.496 35.4402 13.5647 35.4402 13.599 35.3715C13.6162 35.3372 13.6505 35.2857 13.7021 35.2342C13.7021 35.2857 13.7707 35.2342 13.7879 35.1998C13.7879 35.1655 13.8222 35.1312 13.8394 35.0968C13.9081 35.0453 13.9768 34.9766 14.0455 34.9423C14.0455 35.0625 14.0626 35.1655 14.0626 35.2857C14.0626 35.3544 14.1485 35.2685 14.1485 35.2342C14.1657 35.114 14.1657 34.9938 14.1485 34.8736C14.2515 34.8221 14.3545 34.7877 14.4576 34.7706C14.4232 34.9938 14.3374 35.1998 14.2858 35.4059C14.2858 35.4746 14.3545 35.4059 14.3717 35.3887C14.4576 35.1827 14.5262 34.9766 14.5606 34.7706C14.6636 34.7706 14.7495 34.8221 14.8181 34.9251C14.7838 35.0796 14.7151 35.2342 14.6293 35.3715C14.5949 35.4231 14.6636 35.4402 14.6979 35.4059C14.7838 35.3029 14.8525 35.1827 14.904 35.0453C14.9727 35.217 14.9727 35.3715 14.9383 35.5433C14.8696 35.6463 14.8181 35.7836 14.7838 35.8867C14.7666 35.9553 14.8353 35.921 14.8525 35.8867C14.8696 35.8523 14.8868 35.818 14.904 35.7836C14.904 35.8695 14.904 35.9553 14.904 36.024C14.904 36.0755 14.9727 36.024 14.9898 36.0069C15.1616 35.6806 15.1787 35.0968 14.9555 34.7878C14.9555 34.7706 14.9555 34.7534 14.9212 34.7706C14.8353 34.6676 14.7151 34.6504 14.5778 34.6504C14.5778 34.5989 14.5262 34.616 14.4747 34.6504C14.3717 34.6676 14.2858 34.7019 14.2 34.7362C14.1657 34.7362 14.1313 34.7706 14.097 34.7878C14.097 34.7878 14.0626 34.7877 14.0455 34.8049C13.9768 34.8393 13.9253 34.8736 13.8738 34.9251C13.8738 34.9251 13.8738 34.9079 13.8738 34.8908C13.994 34.7191 14.1313 34.5474 14.303 34.41C14.303 34.4958 14.2858 34.5645 14.2858 34.6504C14.2858 34.7019 14.3545 34.6504 14.3545 34.616C14.3717 34.5302 14.3717 34.4272 14.3889 34.3413C14.4232 34.3241 14.4576 34.307 14.4747 34.2726C14.4747 34.3413 14.4747 34.3928 14.4747 34.4615C14.4747 34.513 14.5434 34.4615 14.5434 34.4272C14.5434 34.3585 14.5434 34.2898 14.5434 34.2383C14.6121 34.2039 14.6808 34.1696 14.7495 34.1524C14.7666 34.307 14.801 34.4615 14.8525 34.5989C14.8525 34.6332 14.9212 34.5645 14.9212 34.5474C14.9212 34.41 14.8696 34.2726 14.8525 34.1353C14.9212 34.1353 14.9898 34.1353 15.0585 34.1353C15.11 34.2726 15.1272 34.41 15.1959 34.5474C15.2131 34.5989 15.2817 34.513 15.2817 34.4787C15.2646 34.3757 15.2474 34.2726 15.2131 34.1868C15.2989 34.2211 15.3848 34.2898 15.4706 34.3928C15.5393 34.5474 15.5393 34.7362 15.6252 34.8736C15.6423 34.9079 15.711 34.8393 15.711 34.8049C15.6767 34.616 15.6595 34.41 15.5565 34.2383L15.6252 34.2039Z" fill="#3CA84E"/>
<path d="M12.5345 37.9471L11.8992 37.8956C11.9163 37.8098 12.6032 35.7836 13.7364 34.8393L13.9596 35.0625C12.9637 35.8867 12.5345 37.9128 12.5345 37.93V37.9471Z" fill="#E06212"/>
<g style="mix-blend-mode:multiply" opacity="0.6">
<path d="M12.363 37.3805C12.363 37.3805 12.6549 36.5392 13.1357 35.8867C13.6164 35.2342 13.7023 35.114 13.7023 35.114C13.7023 35.114 13.9599 35.1483 13.9599 35.0968C13.9599 35.0453 13.1872 35.9038 13.0326 36.3331C12.8781 36.7795 12.6892 37.5007 12.6892 37.5007C12.6892 37.5007 12.2256 37.8956 12.3458 37.3805H12.363Z" fill="#E06212"/>
</g>
<path d="M10.6287 38.8915C10.6287 38.8915 10.2681 38.136 11.8307 37.6209C13.3932 37.1058 14.2689 38.2906 14.2689 38.2906C14.2689 38.2906 12.5518 39.6814 10.6459 38.8915H10.6287Z" fill="#3CA84E"/>
<g style="mix-blend-mode:multiply" opacity="0.3">
<path d="M13.4103 37.6552C13.4103 37.6724 13.4103 37.6896 13.4275 37.7067C13.6335 38.0502 13.1012 38.1017 12.4487 38.4107C11.7963 38.7026 12.0882 38.8572 11.2983 38.7026C10.8175 38.6168 10.8175 38.3249 10.9034 38.0845C10.4398 38.4966 10.6287 38.8743 10.6287 38.8743C12.5346 39.6642 14.2516 38.2734 14.2516 38.2734C14.2516 38.2734 13.9597 37.8784 13.4103 37.6381V37.6552Z" fill="#3CA84E"/>
</g>
<g style="mix-blend-mode:overlay" opacity="0.2">
<path d="M11.1094 38.2047L11.2296 37.9643C11.2296 37.9643 11.8134 37.6381 12.2426 37.5522C12.6891 37.4492 12.9123 37.5865 13.1011 37.6724C13.2729 37.7582 13.2557 37.7239 12.7749 37.9471C12.2941 38.1703 12.483 38.1017 11.882 38.3249C11.2811 38.5481 11.0235 38.4966 11.1094 38.2047Z" fill="white"/>
</g>
</g>
<defs>
<clipPath id="clip0_760_268">
<rect width="46" height="50.8936" fill="white"/>
</clipPath>
</defs>
</svg>
