<svg width="101" height="44" viewBox="0 0 101 44" fill="none" xmlns="http://www.w3.org/2000/svg">
<g filter="url(#filter0_d_3332_105)">
<path d="M35 34L30 27H18C10.8203 27 5 21.1797 5 14C5 6.8203 10.8203 1 18 1H83C90.1797 1 96 6.8203 96 14C96 21.1797 90.1797 27 83 27H40L35 34Z" fill="white"/>
<path d="M35 34L34.1863 34.5812L35 35.7205L35.8137 34.5812L35 34ZM30 27L30.8137 26.4188L30.5146 26H30V27ZM18 1L18 0L18 0L18 1ZM83 27L83 28H83L83 27ZM40 27V26H39.4854L39.1863 26.4188L40 27ZM35 34L35.8137 33.4188L30.8137 26.4188L30 27L29.1863 27.5812L34.1863 34.5812L35 34ZM30 27V26H18V27V28H30V27ZM18 27V26C11.3726 26 6 20.6274 6 14H5H4C4 21.732 10.268 28 18 28V27ZM5 14H6C6 7.37258 11.3726 2 18 2L18 1L18 0C10.268 3.38235e-07 4 6.26801 4 14H5ZM18 1V2H83V1V0H18V1ZM83 1V2C89.6274 2 95 7.37258 95 14H96H97C97 6.26801 90.732 0 83 0V1ZM96 14H95C95 20.6274 89.6274 26 83 26L83 27L83 28C90.732 28 97 21.732 97 14H96ZM83 27V26H40V27V28H83V27ZM40 27L39.1863 26.4188L34.1863 33.4188L35 34L35.8137 34.5812L40.8137 27.5812L40 27Z" fill="#FCE38A"/>
</g>
<path d="M14.098 17.081C13.93 17.081 13.807 17.057 13.729 17.009C13.657 16.961 13.609 16.895 13.585 16.811C13.567 16.721 13.558 16.628 13.558 16.532V11.339C13.558 11.243 13.57 11.156 13.594 11.078C13.618 10.994 13.666 10.928 13.738 10.88C13.816 10.826 13.939 10.799 14.107 10.799H16.033C16.309 10.799 16.57 10.844 16.816 10.934C17.068 11.018 17.293 11.15 17.491 11.33C17.689 11.504 17.845 11.726 17.959 11.996C18.079 12.26 18.139 12.569 18.139 12.923C18.139 13.157 18.103 13.391 18.031 13.625C17.959 13.853 17.851 14.066 17.707 14.264C17.569 14.456 17.392 14.621 17.176 14.759C16.96 14.897 16.705 14.987 16.411 15.029H14.647V16.541C14.647 16.637 14.635 16.727 14.611 16.811C14.593 16.895 14.545 16.961 14.467 17.009C14.395 17.057 14.272 17.081 14.098 17.081ZM17.932 16.946C17.758 17.066 17.614 17.111 17.5 17.081C17.392 17.051 17.284 16.955 17.176 16.793L15.664 14.507L16.879 14.345L18.076 16.163C18.16 16.283 18.211 16.385 18.229 16.469C18.247 16.553 18.232 16.631 18.184 16.703C18.136 16.775 18.052 16.856 17.932 16.946ZM14.647 13.949H16.168C16.276 13.949 16.381 13.931 16.483 13.895C16.591 13.853 16.687 13.79 16.771 13.706C16.855 13.616 16.921 13.508 16.969 13.382C17.023 13.25 17.05 13.094 17.05 12.914C17.05 12.698 17.008 12.515 16.924 12.365C16.84 12.209 16.72 12.092 16.564 12.014C16.414 11.93 16.231 11.888 16.015 11.888H14.647V13.949ZM20.9977 17.144C20.6077 17.144 20.2657 17.081 19.9717 16.955C19.6837 16.829 19.4407 16.658 19.2427 16.442C19.0507 16.22 18.9037 15.974 18.8017 15.704C18.7057 15.428 18.6577 15.143 18.6577 14.849C18.6577 14.417 18.7567 14.033 18.9547 13.697C19.1527 13.361 19.4257 13.097 19.7737 12.905C20.1277 12.713 20.5327 12.617 20.9887 12.617C21.3127 12.617 21.5977 12.668 21.8437 12.77C22.0897 12.872 22.2937 13.007 22.4557 13.175C22.6237 13.337 22.7497 13.517 22.8337 13.715C22.9237 13.913 22.9687 14.105 22.9687 14.291C22.9687 14.609 22.8907 14.84 22.7347 14.984C22.5847 15.128 22.3957 15.2 22.1677 15.2H19.7917C19.7977 15.404 19.8607 15.581 19.9807 15.731C20.1067 15.881 20.2627 15.998 20.4487 16.082C20.6407 16.16 20.8357 16.199 21.0337 16.199C21.1837 16.199 21.3157 16.19 21.4297 16.172C21.5497 16.154 21.6517 16.133 21.7357 16.109C21.8197 16.079 21.8917 16.049 21.9517 16.019C22.0177 15.989 22.0777 15.962 22.1317 15.938C22.1857 15.914 22.2367 15.899 22.2847 15.893C22.3507 15.887 22.4167 15.902 22.4827 15.938C22.5487 15.974 22.6027 16.037 22.6447 16.127C22.6807 16.187 22.7047 16.244 22.7167 16.298C22.7347 16.346 22.7437 16.394 22.7437 16.442C22.7437 16.562 22.6717 16.676 22.5277 16.784C22.3837 16.886 22.1797 16.97 21.9157 17.036C21.6577 17.108 21.3517 17.144 20.9977 17.144ZM19.7917 14.561H21.6367C21.7387 14.561 21.8167 14.546 21.8707 14.516C21.9247 14.48 21.9517 14.408 21.9517 14.3C21.9517 14.162 21.9097 14.039 21.8257 13.931C21.7417 13.817 21.6277 13.73 21.4837 13.67C21.3397 13.604 21.1717 13.571 20.9797 13.571C20.7577 13.571 20.5567 13.616 20.3767 13.706C20.1967 13.79 20.0527 13.907 19.9447 14.057C19.8427 14.207 19.7917 14.375 19.7917 14.561ZM27.3973 17.072C27.2233 17.072 27.0943 17.039 27.0103 16.973C26.9263 16.907 26.8843 16.817 26.8843 16.703L26.9473 16.406C26.8993 16.484 26.8183 16.577 26.7043 16.685C26.5903 16.787 26.4403 16.88 26.2543 16.964C26.0683 17.042 25.8433 17.081 25.5793 17.081C25.2973 17.081 25.0303 17.024 24.7783 16.91C24.5323 16.79 24.3133 16.628 24.1213 16.424C23.9353 16.214 23.7853 15.977 23.6713 15.713C23.5633 15.443 23.5093 15.155 23.5093 14.849C23.5093 14.555 23.5633 14.279 23.6713 14.021C23.7853 13.757 23.9383 13.523 24.1303 13.319C24.3223 13.115 24.5413 12.956 24.7873 12.842C25.0393 12.722 25.3033 12.662 25.5793 12.662C25.8253 12.662 26.0323 12.695 26.2003 12.761C26.3743 12.827 26.5213 12.911 26.6413 13.013C26.7613 13.109 26.8603 13.211 26.9383 13.319L26.8843 13.058C26.8843 12.926 26.9263 12.827 27.0103 12.761C27.0943 12.689 27.2263 12.653 27.4063 12.653C27.5743 12.653 27.6943 12.68 27.7663 12.734C27.8383 12.782 27.8833 12.851 27.9013 12.941C27.9193 13.025 27.9283 13.121 27.9283 13.229V16.523C27.9283 16.625 27.9193 16.718 27.9013 16.802C27.8833 16.886 27.8353 16.952 27.7573 17C27.6853 17.048 27.5653 17.072 27.3973 17.072ZM25.7413 16.028C25.9453 16.028 26.1283 15.977 26.2903 15.875C26.4523 15.773 26.5813 15.635 26.6773 15.461C26.7793 15.281 26.8303 15.083 26.8303 14.867C26.8303 14.633 26.7793 14.429 26.6773 14.255C26.5753 14.081 26.4403 13.946 26.2723 13.85C26.1103 13.748 25.9273 13.697 25.7233 13.697C25.5013 13.697 25.3033 13.751 25.1293 13.859C24.9553 13.961 24.8173 14.102 24.7153 14.282C24.6193 14.456 24.5713 14.654 24.5713 14.876C24.5713 15.092 24.6223 15.287 24.7243 15.461C24.8263 15.635 24.9643 15.773 25.1383 15.875C25.3183 15.977 25.5193 16.028 25.7413 16.028ZM30.7393 17.081C30.4633 17.081 30.2023 17.024 29.9563 16.91C29.7103 16.796 29.4943 16.64 29.3083 16.442C29.1223 16.238 28.9753 16.001 28.8673 15.731C28.7593 15.455 28.7053 15.161 28.7053 14.849C28.7053 14.549 28.7593 14.267 28.8673 14.003C28.9753 13.733 29.1223 13.499 29.3083 13.301C29.5003 13.097 29.7193 12.938 29.9653 12.824C30.2113 12.71 30.4693 12.653 30.7393 12.653C31.0273 12.653 31.2853 12.71 31.5133 12.824C31.7413 12.938 31.9333 13.097 32.0893 13.301C32.2513 13.499 32.3743 13.733 32.4583 14.003C32.5423 14.267 32.5873 14.552 32.5933 14.858C32.5933 15.164 32.5513 15.452 32.4673 15.722C32.3893 15.986 32.2693 16.22 32.1073 16.424C31.9513 16.628 31.7563 16.79 31.5223 16.91C31.2943 17.024 31.0333 17.081 30.7393 17.081ZM30.8833 16.028C31.0933 16.028 31.2793 15.98 31.4413 15.884C31.6093 15.782 31.7413 15.644 31.8373 15.47C31.9393 15.296 31.9903 15.098 31.9903 14.876C31.9903 14.648 31.9393 14.447 31.8373 14.273C31.7413 14.099 31.6093 13.961 31.4413 13.859C31.2793 13.757 31.0933 13.706 30.8833 13.706C30.6733 13.706 30.4843 13.757 30.3163 13.859C30.1483 13.955 30.0133 14.093 29.9113 14.273C29.8153 14.447 29.7673 14.648 29.7673 14.876C29.7673 15.098 29.8153 15.296 29.9113 15.47C30.0133 15.644 30.1483 15.782 30.3163 15.884C30.4903 15.98 30.6793 16.028 30.8833 16.028ZM32.5483 17.081C32.3803 17.081 32.2573 17.054 32.1793 17C32.1013 16.94 32.0503 16.847 32.0263 16.721V11.177C32.0263 11.075 32.0323 10.985 32.0443 10.907C32.0623 10.823 32.1073 10.757 32.1793 10.709C32.2573 10.655 32.3773 10.628 32.5393 10.628C32.7133 10.628 32.8363 10.652 32.9083 10.7C32.9803 10.748 33.0253 10.814 33.0433 10.898C33.0673 10.976 33.0793 11.066 33.0793 11.168V16.532C33.0793 16.634 33.0703 16.727 33.0523 16.811C33.0343 16.895 32.9863 16.961 32.9083 17.009C32.8363 17.057 32.7163 17.081 32.5483 17.081ZM34.8604 18.863C34.6684 18.779 34.5574 18.683 34.5274 18.575C34.4974 18.473 34.5244 18.335 34.6084 18.161L36.9304 12.959C37.0144 12.767 37.1044 12.653 37.2004 12.617C37.2964 12.575 37.4434 12.596 37.6414 12.68C37.8274 12.764 37.9354 12.857 37.9654 12.959C38.0014 13.061 37.9804 13.199 37.9024 13.373L35.5624 18.602C35.4844 18.794 35.3974 18.905 35.3014 18.935C35.2054 18.971 35.0584 18.947 34.8604 18.863ZM35.6974 16.658L33.6184 13.463C33.5104 13.301 33.4654 13.166 33.4834 13.058C33.5074 12.95 33.6034 12.845 33.7714 12.743C33.9574 12.629 34.1014 12.584 34.2034 12.608C34.3114 12.632 34.4194 12.728 34.5274 12.896L36.1744 15.461L35.6974 16.658ZM42.945 17.09C42.651 17.09 42.399 17.06 42.189 17C41.979 16.94 41.808 16.847 41.676 16.721C41.544 16.595 41.445 16.433 41.379 16.235C41.319 16.031 41.289 15.791 41.289 15.515V11.699C41.289 11.591 41.298 11.498 41.316 11.42C41.34 11.342 41.388 11.282 41.46 11.24C41.538 11.192 41.658 11.168 41.82 11.168C41.988 11.168 42.108 11.192 42.18 11.24C42.258 11.288 42.306 11.354 42.324 11.438C42.348 11.516 42.36 11.603 42.36 11.699V15.479C42.36 15.605 42.369 15.707 42.387 15.785C42.411 15.863 42.444 15.923 42.486 15.965C42.534 16.001 42.594 16.028 42.666 16.046C42.744 16.058 42.837 16.064 42.945 16.064C43.059 16.064 43.155 16.073 43.233 16.091C43.317 16.109 43.38 16.154 43.422 16.226C43.464 16.292 43.485 16.403 43.485 16.559C43.485 16.727 43.458 16.85 43.404 16.928C43.356 17 43.29 17.045 43.206 17.063C43.128 17.081 43.041 17.09 42.945 17.09ZM40.92 12.743L41.847 12.752L43.089 12.716C43.191 12.716 43.281 12.728 43.359 12.752C43.443 12.77 43.509 12.818 43.557 12.896C43.605 12.968 43.629 13.088 43.629 13.256C43.629 13.412 43.605 13.529 43.557 13.607C43.509 13.685 43.446 13.736 43.368 13.76C43.29 13.778 43.2 13.787 43.098 13.787L41.892 13.769L40.893 13.778C40.743 13.772 40.638 13.73 40.578 13.652C40.524 13.568 40.497 13.433 40.497 13.247C40.497 13.073 40.53 12.947 40.596 12.869C40.668 12.785 40.776 12.743 40.92 12.743ZM46.37 17.144C46.082 17.144 45.8 17.09 45.524 16.982C45.254 16.868 45.008 16.709 44.786 16.505C44.57 16.301 44.396 16.061 44.264 15.785C44.138 15.509 44.075 15.206 44.075 14.876C44.075 14.558 44.135 14.261 44.255 13.985C44.375 13.709 44.54 13.466 44.75 13.256C44.96 13.046 45.2 12.884 45.47 12.77C45.746 12.65 46.04 12.59 46.352 12.59C46.772 12.59 47.153 12.692 47.495 12.896C47.837 13.094 48.11 13.364 48.314 13.706C48.518 14.048 48.62 14.435 48.62 14.867C48.62 15.209 48.557 15.521 48.431 15.803C48.305 16.079 48.134 16.319 47.918 16.523C47.702 16.721 47.459 16.874 47.189 16.982C46.925 17.09 46.652 17.144 46.37 17.144ZM46.352 16.082C46.55 16.082 46.739 16.034 46.919 15.938C47.105 15.836 47.255 15.692 47.369 15.506C47.489 15.32 47.549 15.101 47.549 14.849C47.549 14.615 47.495 14.408 47.387 14.228C47.285 14.048 47.144 13.907 46.964 13.805C46.784 13.703 46.577 13.652 46.343 13.652C46.121 13.652 45.92 13.706 45.74 13.814C45.56 13.916 45.416 14.06 45.308 14.246C45.206 14.426 45.155 14.63 45.155 14.858C45.155 15.11 45.212 15.329 45.326 15.515C45.44 15.695 45.587 15.836 45.767 15.938C45.953 16.034 46.148 16.082 46.352 16.082ZM53.1078 17.09C52.8858 17.09 52.6878 17.075 52.5138 17.045C52.3458 17.015 52.1988 16.964 52.0728 16.892C51.9528 16.82 51.8538 16.724 51.7758 16.604C51.6978 16.478 51.6378 16.325 51.5958 16.145C51.5598 15.965 51.5418 15.749 51.5418 15.497V11.159C51.5418 11.057 51.5508 10.967 51.5688 10.889C51.5928 10.805 51.6408 10.739 51.7128 10.691C51.7908 10.637 51.9138 10.61 52.0818 10.61C52.2498 10.61 52.3698 10.634 52.4418 10.682C52.5198 10.73 52.5678 10.796 52.5858 10.88C52.6098 10.958 52.6218 11.048 52.6218 11.15V15.452C52.6218 15.566 52.6278 15.662 52.6398 15.74C52.6578 15.812 52.6848 15.872 52.7208 15.92C52.7628 15.962 52.8138 15.992 52.8738 16.01C52.9398 16.028 53.0178 16.037 53.1078 16.037C53.1858 16.037 53.2548 16.046 53.3148 16.064C53.3808 16.082 53.4318 16.127 53.4678 16.199C53.5098 16.271 53.5308 16.388 53.5308 16.55C53.5308 16.718 53.5098 16.841 53.4678 16.919C53.4318 16.997 53.3808 17.045 53.3148 17.063C53.2488 17.081 53.1798 17.09 53.1078 17.09ZM56.2489 17.144C55.9609 17.144 55.6789 17.09 55.4029 16.982C55.1329 16.868 54.8869 16.709 54.6649 16.505C54.4489 16.301 54.2749 16.061 54.1429 15.785C54.0169 15.509 53.9539 15.206 53.9539 14.876C53.9539 14.558 54.0139 14.261 54.1339 13.985C54.2539 13.709 54.4189 13.466 54.6289 13.256C54.8389 13.046 55.0789 12.884 55.3489 12.77C55.6249 12.65 55.9189 12.59 56.2309 12.59C56.6509 12.59 57.0319 12.692 57.3739 12.896C57.7159 13.094 57.9889 13.364 58.1929 13.706C58.3969 14.048 58.4989 14.435 58.4989 14.867C58.4989 15.209 58.4359 15.521 58.3099 15.803C58.1839 16.079 58.0129 16.319 57.7969 16.523C57.5809 16.721 57.3379 16.874 57.0679 16.982C56.8039 17.09 56.5309 17.144 56.2489 17.144ZM56.2309 16.082C56.4289 16.082 56.6179 16.034 56.7979 15.938C56.9839 15.836 57.1339 15.692 57.2479 15.506C57.3679 15.32 57.4279 15.101 57.4279 14.849C57.4279 14.615 57.3739 14.408 57.2659 14.228C57.1639 14.048 57.0229 13.907 56.8429 13.805C56.6629 13.703 56.4559 13.652 56.2219 13.652C55.9999 13.652 55.7989 13.706 55.6189 13.814C55.4389 13.916 55.2949 14.06 55.1869 14.246C55.0849 14.426 55.0339 14.63 55.0339 14.858C55.0339 15.11 55.0909 15.329 55.2049 15.515C55.3189 15.695 55.4659 15.836 55.6459 15.938C55.8319 16.034 56.0269 16.082 56.2309 16.082ZM61.1413 18.89C60.9253 18.89 60.7183 18.863 60.5203 18.809C60.3223 18.761 60.1423 18.695 59.9803 18.611C59.8243 18.527 59.6983 18.437 59.6023 18.341C59.5123 18.245 59.4673 18.155 59.4673 18.071C59.4673 17.987 59.4793 17.915 59.5033 17.855C59.5333 17.795 59.5753 17.735 59.6293 17.675C59.7013 17.603 59.7583 17.549 59.8003 17.513C59.8483 17.477 59.9113 17.459 59.9893 17.459C60.0553 17.459 60.1183 17.483 60.1783 17.531C60.2443 17.579 60.3193 17.633 60.4033 17.693C60.4873 17.753 60.5893 17.807 60.7093 17.855C60.8293 17.903 60.9823 17.927 61.1683 17.927C61.3243 17.927 61.4683 17.9 61.6003 17.846C61.7323 17.792 61.8433 17.711 61.9333 17.603C62.0293 17.501 62.1043 17.378 62.1583 17.234C62.2123 17.09 62.2393 16.928 62.2393 16.748L62.2303 13.022C62.2423 12.884 62.2903 12.788 62.3743 12.734C62.4583 12.674 62.5873 12.644 62.7613 12.644C62.9233 12.644 63.0403 12.668 63.1123 12.716C63.1843 12.758 63.2293 12.821 63.2473 12.905C63.2653 12.983 63.2743 13.07 63.2743 13.166V16.811C63.2743 17.141 63.2173 17.435 63.1033 17.693C62.9893 17.951 62.8333 18.167 62.6353 18.341C62.4373 18.521 62.2093 18.656 61.9513 18.746C61.6993 18.842 61.4293 18.89 61.1413 18.89ZM61.0423 16.973C60.7603 16.973 60.4963 16.919 60.2503 16.811C60.0103 16.703 59.7973 16.55 59.6113 16.352C59.4313 16.154 59.2873 15.926 59.1793 15.668C59.0773 15.404 59.0263 15.119 59.0263 14.813C59.0263 14.513 59.0773 14.234 59.1793 13.976C59.2873 13.718 59.4313 13.49 59.6113 13.292C59.7973 13.094 60.0103 12.941 60.2503 12.833C60.4963 12.719 60.7573 12.662 61.0333 12.662C61.3033 12.662 61.5373 12.716 61.7353 12.824C61.9393 12.926 62.1073 13.073 62.2393 13.265C62.3713 13.457 62.4703 13.685 62.5363 13.949C62.6083 14.213 62.6443 14.504 62.6443 14.822C62.6443 15.26 62.5843 15.641 62.4643 15.965C62.3443 16.289 62.1673 16.538 61.9333 16.712C61.6993 16.886 61.4023 16.973 61.0423 16.973ZM61.1413 15.956C61.3453 15.956 61.5253 15.908 61.6813 15.812C61.8433 15.71 61.9693 15.572 62.0593 15.398C62.1553 15.224 62.2033 15.029 62.2033 14.813C62.2033 14.591 62.1553 14.396 62.0593 14.228C61.9693 14.054 61.8433 13.919 61.6813 13.823C61.5193 13.727 61.3363 13.679 61.1323 13.679C60.9283 13.679 60.7453 13.73 60.5833 13.832C60.4273 13.928 60.3043 14.06 60.2143 14.228C60.1243 14.396 60.0793 14.591 60.0793 14.813C60.0793 15.035 60.1243 15.233 60.2143 15.407C60.3103 15.575 60.4363 15.71 60.5923 15.812C60.7543 15.908 60.9373 15.956 61.1413 15.956ZM64.8096 17.09C64.6476 17.09 64.5276 17.063 64.4496 17.009C64.3716 16.961 64.3236 16.898 64.3056 16.82C64.2876 16.736 64.2786 16.643 64.2786 16.541V13.193C64.2786 13.097 64.2876 13.01 64.3056 12.932C64.3296 12.848 64.3776 12.782 64.4496 12.734C64.5276 12.686 64.6506 12.662 64.8186 12.662C64.9866 12.662 65.1066 12.686 65.1786 12.734C65.2566 12.782 65.3046 12.848 65.3226 12.932C65.3406 13.016 65.3496 13.109 65.3496 13.211V16.55C65.3496 16.652 65.3406 16.745 65.3226 16.829C65.3046 16.907 65.2566 16.97 65.1786 17.018C65.1066 17.066 64.9836 17.09 64.8096 17.09ZM64.8096 11.789C64.6356 11.789 64.5066 11.765 64.4226 11.717C64.3446 11.663 64.2936 11.591 64.2696 11.501C64.2516 11.411 64.2426 11.312 64.2426 11.204C64.2426 11.09 64.2516 10.991 64.2696 10.907C64.2936 10.823 64.3476 10.757 64.4316 10.709C64.5156 10.655 64.6446 10.628 64.8186 10.628C64.9986 10.628 65.1276 10.655 65.2056 10.709C65.2836 10.763 65.3346 10.835 65.3586 10.925C65.3826 11.009 65.3946 11.108 65.3946 11.222C65.3946 11.324 65.3826 11.42 65.3586 11.51C65.3346 11.6 65.2836 11.669 65.2056 11.717C65.1276 11.765 64.9956 11.789 64.8096 11.789ZM66.8652 17.081C66.7032 17.081 66.5832 17.054 66.5052 17C66.4332 16.952 66.3882 16.889 66.3702 16.811C66.3522 16.727 66.3432 16.634 66.3432 16.532V13.166C66.3432 13.07 66.3522 12.983 66.3702 12.905C66.3882 12.827 66.4362 12.767 66.5142 12.725C66.5922 12.677 66.7122 12.653 66.8742 12.653C67.0182 12.653 67.1262 12.671 67.1982 12.707C67.2702 12.743 67.3182 12.788 67.3422 12.842C67.3662 12.896 67.3782 12.95 67.3782 13.004C67.3842 13.058 67.3902 13.1 67.3962 13.13L67.3602 13.418C67.3962 13.322 67.4562 13.229 67.5402 13.139C67.6242 13.049 67.7262 12.968 67.8462 12.896C67.9662 12.818 68.0952 12.758 68.2332 12.716C68.3772 12.668 68.5242 12.644 68.6742 12.644C68.9562 12.644 69.2082 12.695 69.4302 12.797C69.6522 12.899 69.8412 13.043 69.9972 13.229C70.1592 13.415 70.2822 13.637 70.3662 13.895C70.4502 14.147 70.4922 14.432 70.4922 14.75V16.541C70.4922 16.643 70.4802 16.736 70.4562 16.82C70.4382 16.898 70.3932 16.961 70.3212 17.009C70.2492 17.057 70.1262 17.081 69.9522 17.081C69.7842 17.081 69.6612 17.054 69.5832 17C69.5052 16.952 69.4572 16.889 69.4392 16.811C69.4212 16.727 69.4122 16.634 69.4122 16.532V14.741C69.4122 14.525 69.3732 14.339 69.2952 14.183C69.2232 14.027 69.1152 13.907 68.9712 13.823C68.8332 13.739 68.6562 13.697 68.4402 13.697C68.2302 13.697 68.0472 13.742 67.8912 13.832C67.7352 13.916 67.6152 14.036 67.5312 14.192C67.4472 14.348 67.4052 14.531 67.4052 14.741V16.541C67.4052 16.643 67.3962 16.736 67.3782 16.82C67.3602 16.898 67.3122 16.961 67.2342 17.009C67.1622 17.057 67.0392 17.081 66.8652 17.081ZM73.0983 15.182C72.9423 15.182 72.8283 15.161 72.7563 15.119C72.6843 15.077 72.6393 15.02 72.6213 14.948C72.6093 14.87 72.6033 14.786 72.6033 14.696V14.111C72.6033 13.967 72.6363 13.853 72.7023 13.769C72.7683 13.685 72.8523 13.616 72.9543 13.562C73.0623 13.502 73.1733 13.448 73.2873 13.4C73.4073 13.346 73.5183 13.286 73.6203 13.22C73.7283 13.148 73.8153 13.055 73.8813 12.941C73.9473 12.827 73.9803 12.677 73.9803 12.491C73.9803 12.215 73.9023 12.005 73.7463 11.861C73.5963 11.711 73.3653 11.636 73.0533 11.636C72.9093 11.636 72.7803 11.66 72.6663 11.708C72.5523 11.75 72.4563 11.81 72.3783 11.888C72.3063 11.96 72.2523 12.047 72.2163 12.149C72.1803 12.263 72.1353 12.35 72.0813 12.41C72.0333 12.47 71.9703 12.506 71.8923 12.518C71.8203 12.53 71.7183 12.515 71.5863 12.473C71.4603 12.419 71.3673 12.368 71.3073 12.32C71.2473 12.272 71.2113 12.212 71.1993 12.14C71.1933 12.068 71.2083 11.975 71.2443 11.861C71.2623 11.783 71.2983 11.693 71.3523 11.591C71.4063 11.489 71.4783 11.384 71.5683 11.276C71.6643 11.162 71.7813 11.06 71.9193 10.97C72.0633 10.874 72.2283 10.799 72.4143 10.745C72.6003 10.685 72.8133 10.655 73.0533 10.655C73.4373 10.655 73.7733 10.733 74.0613 10.889C74.3493 11.039 74.5713 11.252 74.7273 11.528C74.8893 11.798 74.9703 12.113 74.9703 12.473C74.9703 12.689 74.9403 12.884 74.8803 13.058C74.8203 13.232 74.7363 13.385 74.6283 13.517C74.5263 13.649 74.4123 13.763 74.2863 13.859C74.1603 13.955 74.0343 14.033 73.9083 14.093C73.7823 14.153 73.6653 14.198 73.5573 14.228L73.6113 14.129V14.732C73.6113 14.816 73.6023 14.894 73.5843 14.966C73.5663 15.032 73.5213 15.086 73.4493 15.128C73.3773 15.164 73.2603 15.182 73.0983 15.182ZM73.0893 17.09C72.8433 17.09 72.6813 17.042 72.6033 16.946C72.5253 16.85 72.4863 16.694 72.4863 16.478C72.4863 16.388 72.4953 16.298 72.5133 16.208C72.5313 16.112 72.5823 16.034 72.6663 15.974C72.7503 15.908 72.8943 15.875 73.0983 15.875C73.3503 15.875 73.5123 15.923 73.5843 16.019C73.6623 16.115 73.7013 16.271 73.7013 16.487C73.7013 16.583 73.6923 16.679 73.6743 16.775C73.6623 16.865 73.6113 16.94 73.5213 17C73.4373 17.06 73.2933 17.09 73.0893 17.09Z" fill="#2B3B58"/>
<defs>
<filter id="filter0_d_3332_105" x="0" y="0" width="101" height="43.7205" filterUnits="userSpaceOnUse" color-interpolation-filters="sRGB">
<feFlood flood-opacity="0" result="BackgroundImageFix"/>
<feColorMatrix in="SourceAlpha" type="matrix" values="0 0 0 0 0 0 0 0 0 0 0 0 0 0 0 0 0 0 127 0" result="hardAlpha"/>
<feOffset dy="4"/>
<feGaussianBlur stdDeviation="2"/>
<feComposite in2="hardAlpha" operator="out"/>
<feColorMatrix type="matrix" values="0 0 0 0 0 0 0 0 0 0 0 0 0 0 0 0 0 0 0.15 0"/>
<feBlend mode="normal" in2="BackgroundImageFix" result="effect1_dropShadow_3332_105"/>
<feBlend mode="normal" in="SourceGraphic" in2="effect1_dropShadow_3332_105" result="shape"/>
</filter>
</defs>
</svg>
