<svg width="110" height="42" viewBox="0 0 110 42" fill="none" xmlns="http://www.w3.org/2000/svg">
<path d="M36.5439 40.0986L30.6201 31.8047H16.4023C7.89584 31.8046 1 24.9089 1 16.4023C1.00012 7.89592 7.89592 1.00013 16.4023 1H93.415C101.922 1 108.818 7.89584 108.818 16.4023C108.818 24.909 101.922 31.8047 93.415 31.8047H42.4688L36.5439 40.0986Z" fill="white"/>
<path d="M36.5439 40.0986L35.7302 40.6798L36.5439 41.8191L37.3577 40.6799L36.5439 40.0986ZM30.6201 31.8047L31.4339 31.2235L31.1348 30.8047H30.6201V31.8047ZM16.4023 31.8047L16.4023 32.8047H16.4023V31.8047ZM1 16.4023L0 16.4023V16.4023H1ZM16.4023 1L16.4023 -1.1344e-10L16.4023 1.1344e-10L16.4023 1ZM108.818 16.4023L109.818 16.4023L109.818 16.4023L108.818 16.4023ZM42.4688 31.8047V30.8047H41.9542L41.655 31.2234L42.4688 31.8047ZM36.5439 40.0986L37.3577 39.5174L31.4339 31.2235L30.6201 31.8047L29.8064 32.3859L35.7302 40.6798L36.5439 40.0986ZM30.6201 31.8047V30.8047H16.4023V31.8047V32.8047H30.6201V31.8047ZM16.4023 31.8047L16.4024 30.8047C8.44811 30.8046 2 24.3566 2 16.4023H1H0C0 25.4612 7.34356 32.8046 16.4023 32.8047L16.4023 31.8047ZM1 16.4023L2 16.4024C2.00012 8.44821 8.44821 2.00012 16.4024 2L16.4023 1L16.4023 1.1344e-10C7.34363 0.000136447 0.000131734 7.34363 1.05738e-10 16.4023L1 16.4023ZM16.4023 1V2H93.415V1V0H16.4023V1ZM93.415 1V2C101.369 2 107.818 8.44819 107.818 16.4024L108.818 16.4023L109.818 16.4023C109.818 7.34348 102.474 0 93.415 0V1ZM108.818 16.4023H107.818C107.818 24.3566 101.369 30.8047 93.415 30.8047V31.8047V32.8047C102.474 32.8047 109.818 25.4613 109.818 16.4023H108.818ZM93.415 31.8047V30.8047H42.4688V31.8047V32.8047H93.415V31.8047ZM42.4688 31.8047L41.655 31.2234L35.7302 39.5174L36.5439 40.0986L37.3577 40.6799L43.2825 32.386L42.4688 31.8047Z" fill="#FCE38A"/>
<path d="M10.9162 20.081C10.7482 20.081 10.6252 20.057 10.5472 20.009C10.4752 19.961 10.4272 19.895 10.4032 19.811C10.3852 19.721 10.3762 19.628 10.3762 19.532V14.339C10.3762 14.243 10.3882 14.156 10.4122 14.078C10.4362 13.994 10.4842 13.928 10.5562 13.88C10.6342 13.826 10.7572 13.799 10.9252 13.799H12.8512C13.1272 13.799 13.3882 13.844 13.6342 13.934C13.8862 14.018 14.1112 14.15 14.3092 14.33C14.5072 14.504 14.6632 14.726 14.7772 14.996C14.8972 15.26 14.9572 15.569 14.9572 15.923C14.9572 16.157 14.9212 16.391 14.8492 16.625C14.7772 16.853 14.6692 17.066 14.5252 17.264C14.3872 17.456 14.2102 17.621 13.9942 17.759C13.7782 17.897 13.5232 17.987 13.2292 18.029H11.4652V19.541C11.4652 19.637 11.4532 19.727 11.4292 19.811C11.4112 19.895 11.3632 19.961 11.2852 20.009C11.2132 20.057 11.0902 20.081 10.9162 20.081ZM14.7502 19.946C14.5762 20.066 14.4322 20.111 14.3182 20.081C14.2102 20.051 14.1022 19.955 13.9942 19.793L12.4822 17.507L13.6972 17.345L14.8942 19.163C14.9782 19.283 15.0292 19.385 15.0472 19.469C15.0652 19.553 15.0502 19.631 15.0022 19.703C14.9542 19.775 14.8702 19.856 14.7502 19.946ZM11.4652 16.949H12.9862C13.0942 16.949 13.1992 16.931 13.3012 16.895C13.4092 16.853 13.5052 16.79 13.5892 16.706C13.6732 16.616 13.7392 16.508 13.7872 16.382C13.8412 16.25 13.8682 16.094 13.8682 15.914C13.8682 15.698 13.8262 15.515 13.7422 15.365C13.6582 15.209 13.5382 15.092 13.3822 15.014C13.2322 14.93 13.0492 14.888 12.8332 14.888H11.4652V16.949ZM17.8159 20.144C17.4259 20.144 17.0839 20.081 16.7899 19.955C16.5019 19.829 16.2589 19.658 16.0609 19.442C15.8689 19.22 15.7219 18.974 15.6199 18.704C15.5239 18.428 15.4759 18.143 15.4759 17.849C15.4759 17.417 15.5749 17.033 15.7729 16.697C15.9709 16.361 16.2439 16.097 16.5919 15.905C16.9459 15.713 17.3509 15.617 17.8069 15.617C18.1309 15.617 18.4159 15.668 18.6619 15.77C18.9079 15.872 19.1119 16.007 19.2739 16.175C19.4419 16.337 19.5679 16.517 19.6519 16.715C19.7419 16.913 19.7869 17.105 19.7869 17.291C19.7869 17.609 19.7089 17.84 19.5529 17.984C19.4029 18.128 19.2139 18.2 18.9859 18.2H16.6099C16.6159 18.404 16.6789 18.581 16.7989 18.731C16.9249 18.881 17.0809 18.998 17.2669 19.082C17.4589 19.16 17.6539 19.199 17.8519 19.199C18.0019 19.199 18.1339 19.19 18.2479 19.172C18.3679 19.154 18.4699 19.133 18.5539 19.109C18.6379 19.079 18.7099 19.049 18.7699 19.019C18.8359 18.989 18.8959 18.962 18.9499 18.938C19.0039 18.914 19.0549 18.899 19.1029 18.893C19.1689 18.887 19.2349 18.902 19.3009 18.938C19.3669 18.974 19.4209 19.037 19.4629 19.127C19.4989 19.187 19.5229 19.244 19.5349 19.298C19.5529 19.346 19.5619 19.394 19.5619 19.442C19.5619 19.562 19.4899 19.676 19.3459 19.784C19.2019 19.886 18.9979 19.97 18.7339 20.036C18.4759 20.108 18.1699 20.144 17.8159 20.144ZM16.6099 17.561H18.4549C18.5569 17.561 18.6349 17.546 18.6889 17.516C18.7429 17.48 18.7699 17.408 18.7699 17.3C18.7699 17.162 18.7279 17.039 18.6439 16.931C18.5599 16.817 18.4459 16.73 18.3019 16.67C18.1579 16.604 17.9899 16.571 17.7979 16.571C17.5759 16.571 17.3749 16.616 17.1949 16.706C17.0149 16.79 16.8709 16.907 16.7629 17.057C16.6609 17.207 16.6099 17.375 16.6099 17.561ZM24.2154 20.072C24.0414 20.072 23.9124 20.039 23.8284 19.973C23.7444 19.907 23.7024 19.817 23.7024 19.703L23.7654 19.406C23.7174 19.484 23.6364 19.577 23.5224 19.685C23.4084 19.787 23.2584 19.88 23.0724 19.964C22.8864 20.042 22.6614 20.081 22.3974 20.081C22.1154 20.081 21.8484 20.024 21.5964 19.91C21.3504 19.79 21.1314 19.628 20.9394 19.424C20.7534 19.214 20.6034 18.977 20.4894 18.713C20.3814 18.443 20.3274 18.155 20.3274 17.849C20.3274 17.555 20.3814 17.279 20.4894 17.021C20.6034 16.757 20.7564 16.523 20.9484 16.319C21.1404 16.115 21.3594 15.956 21.6054 15.842C21.8574 15.722 22.1214 15.662 22.3974 15.662C22.6434 15.662 22.8504 15.695 23.0184 15.761C23.1924 15.827 23.3394 15.911 23.4594 16.013C23.5794 16.109 23.6784 16.211 23.7564 16.319L23.7024 16.058C23.7024 15.926 23.7444 15.827 23.8284 15.761C23.9124 15.689 24.0444 15.653 24.2244 15.653C24.3924 15.653 24.5124 15.68 24.5844 15.734C24.6564 15.782 24.7014 15.851 24.7194 15.941C24.7374 16.025 24.7464 16.121 24.7464 16.229V19.523C24.7464 19.625 24.7374 19.718 24.7194 19.802C24.7014 19.886 24.6534 19.952 24.5754 20C24.5034 20.048 24.3834 20.072 24.2154 20.072ZM22.5594 19.028C22.7634 19.028 22.9464 18.977 23.1084 18.875C23.2704 18.773 23.3994 18.635 23.4954 18.461C23.5974 18.281 23.6484 18.083 23.6484 17.867C23.6484 17.633 23.5974 17.429 23.4954 17.255C23.3934 17.081 23.2584 16.946 23.0904 16.85C22.9284 16.748 22.7454 16.697 22.5414 16.697C22.3194 16.697 22.1214 16.751 21.9474 16.859C21.7734 16.961 21.6354 17.102 21.5334 17.282C21.4374 17.456 21.3894 17.654 21.3894 17.876C21.3894 18.092 21.4404 18.287 21.5424 18.461C21.6444 18.635 21.7824 18.773 21.9564 18.875C22.1364 18.977 22.3374 19.028 22.5594 19.028ZM27.5575 20.081C27.2815 20.081 27.0205 20.024 26.7745 19.91C26.5285 19.796 26.3125 19.64 26.1265 19.442C25.9405 19.238 25.7935 19.001 25.6855 18.731C25.5775 18.455 25.5235 18.161 25.5235 17.849C25.5235 17.549 25.5775 17.267 25.6855 17.003C25.7935 16.733 25.9405 16.499 26.1265 16.301C26.3185 16.097 26.5375 15.938 26.7835 15.824C27.0295 15.71 27.2875 15.653 27.5575 15.653C27.8455 15.653 28.1035 15.71 28.3315 15.824C28.5595 15.938 28.7515 16.097 28.9075 16.301C29.0695 16.499 29.1925 16.733 29.2765 17.003C29.3605 17.267 29.4055 17.552 29.4115 17.858C29.4115 18.164 29.3695 18.452 29.2855 18.722C29.2075 18.986 29.0875 19.22 28.9255 19.424C28.7695 19.628 28.5745 19.79 28.3405 19.91C28.1125 20.024 27.8515 20.081 27.5575 20.081ZM27.7015 19.028C27.9115 19.028 28.0975 18.98 28.2595 18.884C28.4275 18.782 28.5595 18.644 28.6555 18.47C28.7575 18.296 28.8085 18.098 28.8085 17.876C28.8085 17.648 28.7575 17.447 28.6555 17.273C28.5595 17.099 28.4275 16.961 28.2595 16.859C28.0975 16.757 27.9115 16.706 27.7015 16.706C27.4915 16.706 27.3025 16.757 27.1345 16.859C26.9665 16.955 26.8315 17.093 26.7295 17.273C26.6335 17.447 26.5855 17.648 26.5855 17.876C26.5855 18.098 26.6335 18.296 26.7295 18.47C26.8315 18.644 26.9665 18.782 27.1345 18.884C27.3085 18.98 27.4975 19.028 27.7015 19.028ZM29.3665 20.081C29.1985 20.081 29.0755 20.054 28.9975 20C28.9195 19.94 28.8685 19.847 28.8445 19.721V14.177C28.8445 14.075 28.8505 13.985 28.8625 13.907C28.8805 13.823 28.9255 13.757 28.9975 13.709C29.0755 13.655 29.1955 13.628 29.3575 13.628C29.5315 13.628 29.6545 13.652 29.7265 13.7C29.7985 13.748 29.8435 13.814 29.8615 13.898C29.8855 13.976 29.8975 14.066 29.8975 14.168V19.532C29.8975 19.634 29.8885 19.727 29.8705 19.811C29.8525 19.895 29.8045 19.961 29.7265 20.009C29.6545 20.057 29.5345 20.081 29.3665 20.081ZM31.6785 21.863C31.4865 21.779 31.3755 21.683 31.3455 21.575C31.3155 21.473 31.3425 21.335 31.4265 21.161L33.7485 15.959C33.8325 15.767 33.9225 15.653 34.0185 15.617C34.1145 15.575 34.2615 15.596 34.4595 15.68C34.6455 15.764 34.7535 15.857 34.7835 15.959C34.8195 16.061 34.7985 16.199 34.7205 16.373L32.3805 21.602C32.3025 21.794 32.2155 21.905 32.1195 21.935C32.0235 21.971 31.8765 21.947 31.6785 21.863ZM32.5155 19.658L30.4365 16.463C30.3285 16.301 30.2835 16.166 30.3015 16.058C30.3255 15.95 30.4215 15.845 30.5895 15.743C30.7755 15.629 30.9195 15.584 31.0215 15.608C31.1295 15.632 31.2375 15.728 31.3455 15.896L32.9925 18.461L32.5155 19.658ZM39.7632 20.09C39.4692 20.09 39.2172 20.06 39.0072 20C38.7972 19.94 38.6262 19.847 38.4942 19.721C38.3622 19.595 38.2632 19.433 38.1972 19.235C38.1372 19.031 38.1072 18.791 38.1072 18.515V14.699C38.1072 14.591 38.1162 14.498 38.1342 14.42C38.1582 14.342 38.2062 14.282 38.2782 14.24C38.3562 14.192 38.4762 14.168 38.6382 14.168C38.8062 14.168 38.9262 14.192 38.9982 14.24C39.0762 14.288 39.1242 14.354 39.1422 14.438C39.1662 14.516 39.1782 14.603 39.1782 14.699V18.479C39.1782 18.605 39.1872 18.707 39.2052 18.785C39.2292 18.863 39.2622 18.923 39.3042 18.965C39.3522 19.001 39.4122 19.028 39.4842 19.046C39.5622 19.058 39.6552 19.064 39.7632 19.064C39.8772 19.064 39.9732 19.073 40.0512 19.091C40.1352 19.109 40.1982 19.154 40.2402 19.226C40.2822 19.292 40.3032 19.403 40.3032 19.559C40.3032 19.727 40.2762 19.85 40.2222 19.928C40.1742 20 40.1082 20.045 40.0242 20.063C39.9462 20.081 39.8592 20.09 39.7632 20.09ZM37.7382 15.743L38.6652 15.752L39.9072 15.716C40.0092 15.716 40.0992 15.728 40.1772 15.752C40.2612 15.77 40.3272 15.818 40.3752 15.896C40.4232 15.968 40.4472 16.088 40.4472 16.256C40.4472 16.412 40.4232 16.529 40.3752 16.607C40.3272 16.685 40.2642 16.736 40.1862 16.76C40.1082 16.778 40.0182 16.787 39.9162 16.787L38.7102 16.769L37.7112 16.778C37.5612 16.772 37.4562 16.73 37.3962 16.652C37.3422 16.568 37.3152 16.433 37.3152 16.247C37.3152 16.073 37.3482 15.947 37.4142 15.869C37.4862 15.785 37.5942 15.743 37.7382 15.743ZM43.1882 20.144C42.9002 20.144 42.6182 20.09 42.3422 19.982C42.0722 19.868 41.8262 19.709 41.6042 19.505C41.3882 19.301 41.2142 19.061 41.0822 18.785C40.9562 18.509 40.8932 18.206 40.8932 17.876C40.8932 17.558 40.9532 17.261 41.0732 16.985C41.1932 16.709 41.3582 16.466 41.5682 16.256C41.7782 16.046 42.0182 15.884 42.2882 15.77C42.5642 15.65 42.8582 15.59 43.1702 15.59C43.5902 15.59 43.9712 15.692 44.3132 15.896C44.6552 16.094 44.9282 16.364 45.1322 16.706C45.3362 17.048 45.4382 17.435 45.4382 17.867C45.4382 18.209 45.3752 18.521 45.2492 18.803C45.1232 19.079 44.9522 19.319 44.7362 19.523C44.5202 19.721 44.2772 19.874 44.0072 19.982C43.7432 20.09 43.4702 20.144 43.1882 20.144ZM43.1702 19.082C43.3682 19.082 43.5572 19.034 43.7372 18.938C43.9232 18.836 44.0732 18.692 44.1872 18.506C44.3072 18.32 44.3672 18.101 44.3672 17.849C44.3672 17.615 44.3132 17.408 44.2052 17.228C44.1032 17.048 43.9622 16.907 43.7822 16.805C43.6022 16.703 43.3952 16.652 43.1612 16.652C42.9392 16.652 42.7382 16.706 42.5582 16.814C42.3782 16.916 42.2342 17.06 42.1262 17.246C42.0242 17.426 41.9732 17.63 41.9732 17.858C41.9732 18.11 42.0302 18.329 42.1442 18.515C42.2582 18.695 42.4052 18.836 42.5852 18.938C42.7712 19.034 42.9662 19.082 43.1702 19.082ZM49.026 20.09C48.858 20.09 48.735 20.063 48.657 20.009C48.579 19.961 48.531 19.895 48.513 19.811C48.495 19.727 48.486 19.634 48.486 19.532V14.339C48.486 14.135 48.525 13.994 48.603 13.916C48.687 13.838 48.837 13.799 49.053 13.799H52.563C52.665 13.799 52.755 13.811 52.833 13.835C52.917 13.853 52.983 13.901 53.031 13.979C53.079 14.051 53.103 14.174 53.103 14.348C53.103 14.516 53.076 14.639 53.022 14.717C52.974 14.795 52.908 14.843 52.824 14.861C52.746 14.879 52.656 14.888 52.554 14.888H49.575V16.4H51.627C51.729 16.4 51.816 16.412 51.888 16.436C51.96 16.454 52.017 16.496 52.059 16.562C52.101 16.628 52.122 16.739 52.122 16.895C52.122 17.045 52.101 17.156 52.059 17.228C52.017 17.294 51.957 17.336 51.879 17.354C51.801 17.366 51.711 17.372 51.609 17.372H49.575V18.992H52.563C52.665 18.992 52.755 19.004 52.833 19.028C52.917 19.046 52.983 19.094 53.031 19.172C53.079 19.25 53.103 19.373 53.103 19.541C53.103 19.709 53.076 19.832 53.022 19.91C52.974 19.988 52.908 20.036 52.824 20.054C52.746 20.078 52.656 20.09 52.554 20.09H49.026ZM57.5507 15.779C57.6647 15.881 57.7367 15.971 57.7667 16.049C57.8027 16.127 57.8027 16.208 57.7667 16.292C57.7367 16.37 57.6707 16.466 57.5687 16.58L54.7157 19.883C54.6137 19.991 54.5237 20.063 54.4457 20.099C54.3677 20.141 54.2897 20.147 54.2117 20.117C54.1397 20.087 54.0527 20.03 53.9507 19.946C53.8487 19.844 53.7797 19.757 53.7437 19.685C53.7077 19.607 53.7077 19.526 53.7437 19.442C53.7857 19.358 53.8547 19.262 53.9507 19.154L56.8037 15.851C56.9537 15.689 57.0767 15.602 57.1727 15.59C57.2747 15.578 57.4007 15.641 57.5507 15.779ZM53.9597 15.779C54.0617 15.689 54.1487 15.632 54.2207 15.608C54.2987 15.584 54.3737 15.593 54.4457 15.635C54.5237 15.671 54.6107 15.743 54.7067 15.851L57.5597 19.154C57.6617 19.262 57.7307 19.358 57.7667 19.442C57.8027 19.526 57.8057 19.607 57.7757 19.685C57.7457 19.757 57.6737 19.844 57.5597 19.946C57.4577 20.036 57.3677 20.093 57.2897 20.117C57.2177 20.147 57.1427 20.141 57.0647 20.099C56.9927 20.063 56.9027 19.991 56.7947 19.883L53.9417 16.58C53.8457 16.472 53.7797 16.376 53.7437 16.292C53.7077 16.208 53.7077 16.127 53.7437 16.049C53.7797 15.965 53.8517 15.875 53.9597 15.779ZM60.7888 20.027C60.4948 20.027 60.2308 19.973 59.9968 19.865C59.7688 19.751 59.5738 19.595 59.4118 19.397C59.2558 19.193 59.1358 18.959 59.0518 18.695C58.9738 18.431 58.9348 18.146 58.9348 17.84C58.9408 17.534 58.9858 17.249 59.0698 16.985C59.1538 16.715 59.2738 16.481 59.4298 16.283C59.5918 16.085 59.7868 15.929 60.0148 15.815C60.2428 15.701 60.5008 15.644 60.7888 15.644C61.0648 15.644 61.3228 15.701 61.5628 15.815C61.8088 15.929 62.0248 16.088 62.2108 16.292C62.4028 16.496 62.5528 16.733 62.6608 17.003C62.7688 17.267 62.8228 17.552 62.8228 17.858C62.8228 18.17 62.7688 18.458 62.6608 18.722C62.5528 18.986 62.4058 19.217 62.2198 19.415C62.0338 19.607 61.8178 19.757 61.5718 19.865C61.3258 19.973 61.0648 20.027 60.7888 20.027ZM58.9888 21.899C58.8268 21.899 58.7068 21.875 58.6288 21.827C58.5508 21.779 58.5028 21.716 58.4848 21.638C58.4668 21.56 58.4578 21.47 58.4578 21.368V16.193C58.4578 16.091 58.4668 16.001 58.4848 15.923C58.5028 15.845 58.5478 15.782 58.6198 15.734C58.6978 15.68 58.8178 15.653 58.9798 15.653C59.1358 15.653 59.2588 15.677 59.3488 15.725C59.4388 15.773 59.4988 15.854 59.5288 15.968V21.359C59.5348 21.461 59.5258 21.551 59.5018 21.629C59.4838 21.713 59.4358 21.779 59.3578 21.827C59.2798 21.875 59.1568 21.899 58.9888 21.899ZM60.6448 19.019C60.8548 19.019 61.0438 18.971 61.2118 18.875C61.3798 18.773 61.5118 18.635 61.6078 18.461C61.7098 18.281 61.7608 18.08 61.7608 17.858C61.7608 17.63 61.7098 17.429 61.6078 17.255C61.5118 17.081 61.3798 16.946 61.2118 16.85C61.0438 16.748 60.8548 16.697 60.6448 16.697C60.4408 16.697 60.2548 16.748 60.0868 16.85C59.9188 16.952 59.7838 17.09 59.6818 17.264C59.5858 17.432 59.5378 17.63 59.5378 17.858C59.5378 18.08 59.5858 18.281 59.6818 18.461C59.7838 18.635 59.9188 18.773 60.0868 18.875C60.2548 18.971 60.4408 19.019 60.6448 19.019ZM65.1311 20.09C64.9091 20.09 64.7111 20.075 64.5371 20.045C64.3691 20.015 64.2221 19.964 64.0961 19.892C63.9761 19.82 63.8771 19.724 63.7991 19.604C63.7211 19.478 63.6611 19.325 63.6191 19.145C63.5831 18.965 63.5651 18.749 63.5651 18.497V14.159C63.5651 14.057 63.5741 13.967 63.5921 13.889C63.6161 13.805 63.6641 13.739 63.7361 13.691C63.8141 13.637 63.9371 13.61 64.1051 13.61C64.2731 13.61 64.3931 13.634 64.4651 13.682C64.5431 13.73 64.5911 13.796 64.6091 13.88C64.6331 13.958 64.6451 14.048 64.6451 14.15V18.452C64.6451 18.566 64.6511 18.662 64.6631 18.74C64.6811 18.812 64.7081 18.872 64.7441 18.92C64.7861 18.962 64.8371 18.992 64.8971 19.01C64.9631 19.028 65.0411 19.037 65.1311 19.037C65.2091 19.037 65.2781 19.046 65.3381 19.064C65.4041 19.082 65.4551 19.127 65.4911 19.199C65.5331 19.271 65.5541 19.388 65.5541 19.55C65.5541 19.718 65.5331 19.841 65.4911 19.919C65.4551 19.997 65.4041 20.045 65.3381 20.063C65.2721 20.081 65.2031 20.09 65.1311 20.09ZM68.2722 20.144C67.9842 20.144 67.7022 20.09 67.4262 19.982C67.1562 19.868 66.9102 19.709 66.6882 19.505C66.4722 19.301 66.2982 19.061 66.1662 18.785C66.0402 18.509 65.9772 18.206 65.9772 17.876C65.9772 17.558 66.0372 17.261 66.1572 16.985C66.2772 16.709 66.4422 16.466 66.6522 16.256C66.8622 16.046 67.1022 15.884 67.3722 15.77C67.6482 15.65 67.9422 15.59 68.2542 15.59C68.6742 15.59 69.0552 15.692 69.3972 15.896C69.7392 16.094 70.0122 16.364 70.2162 16.706C70.4202 17.048 70.5222 17.435 70.5222 17.867C70.5222 18.209 70.4592 18.521 70.3332 18.803C70.2072 19.079 70.0362 19.319 69.8202 19.523C69.6042 19.721 69.3612 19.874 69.0912 19.982C68.8272 20.09 68.5542 20.144 68.2722 20.144ZM68.2542 19.082C68.4522 19.082 68.6412 19.034 68.8212 18.938C69.0072 18.836 69.1572 18.692 69.2712 18.506C69.3912 18.32 69.4512 18.101 69.4512 17.849C69.4512 17.615 69.3972 17.408 69.2892 17.228C69.1872 17.048 69.0462 16.907 68.8662 16.805C68.6862 16.703 68.4792 16.652 68.2452 16.652C68.0232 16.652 67.8222 16.706 67.6422 16.814C67.4622 16.916 67.3182 17.06 67.2102 17.246C67.1082 17.426 67.0572 17.63 67.0572 17.858C67.0572 18.11 67.1142 18.329 67.2282 18.515C67.3422 18.695 67.4892 18.836 67.6692 18.938C67.8552 19.034 68.0502 19.082 68.2542 19.082ZM71.7605 20.09C71.5985 20.09 71.4785 20.063 71.4005 20.009C71.3285 19.961 71.2835 19.895 71.2655 19.811C71.2475 19.727 71.2385 19.634 71.2385 19.532V16.193C71.2385 16.085 71.2475 15.992 71.2655 15.914C71.2835 15.83 71.3285 15.767 71.4005 15.725C71.4785 15.677 71.6015 15.653 71.7695 15.653C71.9315 15.653 72.0485 15.674 72.1205 15.716C72.1985 15.758 72.2465 15.812 72.2645 15.878C72.2885 15.938 72.3005 15.998 72.3005 16.058L72.2285 16.22C72.2585 16.172 72.3005 16.115 72.3545 16.049C72.4085 15.977 72.4805 15.908 72.5705 15.842C72.6605 15.77 72.7685 15.713 72.8945 15.671C73.0205 15.623 73.1705 15.599 73.3445 15.599C73.4165 15.599 73.4915 15.608 73.5695 15.626C73.6535 15.638 73.7345 15.659 73.8125 15.689C73.8965 15.713 73.9715 15.746 74.0375 15.788C74.1035 15.83 74.1545 15.881 74.1905 15.941C74.2265 15.995 74.2445 16.058 74.2445 16.13C74.2445 16.322 74.1965 16.484 74.1005 16.616C74.0045 16.748 73.8905 16.814 73.7585 16.814C73.6685 16.814 73.6025 16.805 73.5605 16.787C73.5185 16.769 73.4825 16.748 73.4525 16.724C73.4285 16.7 73.3895 16.679 73.3355 16.661C73.2875 16.643 73.2095 16.634 73.1015 16.634C73.0115 16.634 72.9185 16.649 72.8225 16.679C72.7325 16.709 72.6485 16.754 72.5705 16.814C72.4925 16.874 72.4295 16.952 72.3815 17.048C72.3335 17.138 72.3095 17.243 72.3095 17.363V19.55C72.3095 19.652 72.3005 19.745 72.2825 19.829C72.2645 19.907 72.2165 19.97 72.1385 20.018C72.0605 20.066 71.9345 20.09 71.7605 20.09ZM76.8344 20.144C76.4444 20.144 76.1024 20.081 75.8084 19.955C75.5204 19.829 75.2774 19.658 75.0794 19.442C74.8874 19.22 74.7404 18.974 74.6384 18.704C74.5424 18.428 74.4944 18.143 74.4944 17.849C74.4944 17.417 74.5934 17.033 74.7914 16.697C74.9894 16.361 75.2624 16.097 75.6104 15.905C75.9644 15.713 76.3694 15.617 76.8254 15.617C77.1494 15.617 77.4344 15.668 77.6804 15.77C77.9264 15.872 78.1304 16.007 78.2924 16.175C78.4604 16.337 78.5864 16.517 78.6704 16.715C78.7604 16.913 78.8054 17.105 78.8054 17.291C78.8054 17.609 78.7274 17.84 78.5714 17.984C78.4214 18.128 78.2324 18.2 78.0044 18.2H75.6284C75.6344 18.404 75.6974 18.581 75.8174 18.731C75.9434 18.881 76.0994 18.998 76.2854 19.082C76.4774 19.16 76.6724 19.199 76.8704 19.199C77.0204 19.199 77.1524 19.19 77.2664 19.172C77.3864 19.154 77.4884 19.133 77.5724 19.109C77.6564 19.079 77.7284 19.049 77.7884 19.019C77.8544 18.989 77.9144 18.962 77.9684 18.938C78.0224 18.914 78.0734 18.899 78.1214 18.893C78.1874 18.887 78.2534 18.902 78.3194 18.938C78.3854 18.974 78.4394 19.037 78.4814 19.127C78.5174 19.187 78.5414 19.244 78.5534 19.298C78.5714 19.346 78.5804 19.394 78.5804 19.442C78.5804 19.562 78.5084 19.676 78.3644 19.784C78.2204 19.886 78.0164 19.97 77.7524 20.036C77.4944 20.108 77.1884 20.144 76.8344 20.144ZM75.6284 17.561H77.4734C77.5754 17.561 77.6534 17.546 77.7074 17.516C77.7614 17.48 77.7884 17.408 77.7884 17.3C77.7884 17.162 77.7464 17.039 77.6624 16.931C77.5784 16.817 77.4644 16.73 77.3204 16.67C77.1764 16.604 77.0084 16.571 76.8164 16.571C76.5944 16.571 76.3934 16.616 76.2134 16.706C76.0334 16.79 75.8894 16.907 75.7814 17.057C75.6794 17.207 75.6284 17.375 75.6284 17.561ZM81.272 18.182C81.116 18.182 81.002 18.161 80.93 18.119C80.858 18.077 80.813 18.02 80.795 17.948C80.783 17.87 80.777 17.786 80.777 17.696V17.111C80.777 16.967 80.81 16.853 80.876 16.769C80.942 16.685 81.026 16.616 81.128 16.562C81.236 16.502 81.347 16.448 81.461 16.4C81.581 16.346 81.692 16.286 81.794 16.22C81.902 16.148 81.989 16.055 82.055 15.941C82.121 15.827 82.154 15.677 82.154 15.491C82.154 15.215 82.076 15.005 81.92 14.861C81.77 14.711 81.539 14.636 81.227 14.636C81.083 14.636 80.954 14.66 80.84 14.708C80.726 14.75 80.63 14.81 80.552 14.888C80.48 14.96 80.426 15.047 80.39 15.149C80.354 15.263 80.309 15.35 80.255 15.41C80.207 15.47 80.144 15.506 80.066 15.518C79.994 15.53 79.892 15.515 79.76 15.473C79.634 15.419 79.541 15.368 79.481 15.32C79.421 15.272 79.385 15.212 79.373 15.14C79.367 15.068 79.382 14.975 79.418 14.861C79.436 14.783 79.472 14.693 79.526 14.591C79.58 14.489 79.652 14.384 79.742 14.276C79.838 14.162 79.955 14.06 80.093 13.97C80.237 13.874 80.402 13.799 80.588 13.745C80.774 13.685 80.987 13.655 81.227 13.655C81.611 13.655 81.947 13.733 82.235 13.889C82.523 14.039 82.745 14.252 82.901 14.528C83.063 14.798 83.144 15.113 83.144 15.473C83.144 15.689 83.114 15.884 83.054 16.058C82.994 16.232 82.91 16.385 82.802 16.517C82.7 16.649 82.586 16.763 82.46 16.859C82.334 16.955 82.208 17.033 82.082 17.093C81.956 17.153 81.839 17.198 81.731 17.228L81.785 17.129V17.732C81.785 17.816 81.776 17.894 81.758 17.966C81.74 18.032 81.695 18.086 81.623 18.128C81.551 18.164 81.434 18.182 81.272 18.182ZM81.263 20.09C81.017 20.09 80.855 20.042 80.777 19.946C80.699 19.85 80.66 19.694 80.66 19.478C80.66 19.388 80.669 19.298 80.687 19.208C80.705 19.112 80.756 19.034 80.84 18.974C80.924 18.908 81.068 18.875 81.272 18.875C81.524 18.875 81.686 18.923 81.758 19.019C81.836 19.115 81.875 19.271 81.875 19.487C81.875 19.583 81.866 19.679 81.848 19.775C81.836 19.865 81.785 19.94 81.695 20C81.611 20.06 81.467 20.09 81.263 20.09Z" fill="#2B3B58"/>
</svg>
