<svg width="20" height="20" viewBox="0 0 20 20" fill="none" xmlns="http://www.w3.org/2000/svg">
<g clip-path="url(#clip0_450_1684)">
<path d="M12.4574 2.27384L13.7113 2.78076C14.3188 2.07887 15.156 1.73572 16.0555 2.11786C16.5423 2.32453 17.691 3.49435 17.8857 3.98567C18.0804 4.477 18.0181 5.34266 17.582 5.88468C17.1459 6.42669 17.1926 6.23172 17.2004 6.30581L17.7066 7.53412C18.7892 7.39374 19.8523 8.06054 19.9574 9.19527C20.0664 10.3729 20.0703 11.8819 18.7502 12.346C18.3842 12.4747 18.0688 12.424 17.6949 12.4669L17.2004 13.703C17.9013 14.3113 18.2557 15.1808 17.8507 16.0777C17.6638 16.4949 16.6786 17.4854 16.2814 17.7388C15.5999 18.1756 14.7238 18.082 14.1046 17.5829C13.4854 17.0837 13.758 17.1929 13.684 17.2007L12.4574 17.7076C12.5937 18.7917 11.9317 19.8562 10.7985 19.9615C9.66534 20.0668 8.19338 20.0824 7.68715 18.8307C7.5236 18.429 7.55864 18.1171 7.52749 17.6959L6.29307 17.2007C5.6817 17.9026 4.81721 18.2575 3.92157 17.8519C3.47764 17.6492 2.35226 16.5261 2.15366 16.0816C1.95506 15.6371 1.94338 14.8338 2.27437 14.3035C2.60537 13.7732 2.65599 13.9135 2.80397 13.6796L2.29774 12.4513C1.21518 12.5877 0.152099 11.9248 0.0469592 10.7901C-0.058181 9.6281 -0.0776514 8.18532 1.17624 7.6745C1.57733 7.51073 1.88886 7.54582 2.30942 7.51463L2.80397 6.27852C1.83434 5.42065 1.69026 4.32882 2.55864 3.33447C3.30241 2.47661 4.19026 1.61094 5.4169 2.11006C5.80631 2.26994 6.0049 2.5312 6.32422 2.78466L7.55085 2.27774C7.43793 1.31849 7.913 0.351437 8.88652 0.0901778C9.32266 -0.0268041 10.6895 -0.0268041 11.1256 0.0901778C12.103 0.351437 12.5664 1.31069 12.4613 2.27774L12.4574 2.27384ZM9.25257 1.19761C8.33356 1.35358 8.96441 2.60529 8.57889 3.09271C8.19338 3.58014 7.56254 3.50215 7.27827 3.62303C7.03294 3.72831 6.40599 4.11045 6.2074 4.11045C5.47531 4.11435 5.13263 2.60529 4.24088 3.30718C4.0306 3.47095 3.46986 4.03247 3.3102 4.24303C2.62484 5.14379 4.27983 5.51034 4.11627 6.29801C3.95272 7.08569 3.75412 6.99211 3.65288 7.23387C3.53216 7.51073 3.28683 8.41149 3.13497 8.54407C2.66378 8.9652 1.53839 8.3335 1.25802 9.11728C1.17624 9.33954 1.18014 10.3924 1.21129 10.6653C1.32032 11.6831 2.61316 11.0124 3.1155 11.4062C3.61783 11.8001 3.52437 12.424 3.64509 12.7086C3.75023 12.9543 4.13185 13.5821 4.13185 13.781C4.13574 14.514 2.62874 14.8572 3.32967 15.7462C4.0306 16.6353 4.05397 16.5183 4.26425 16.6782C5.16378 17.3645 5.52983 15.7073 6.31643 15.871C6.51503 15.9139 7.00958 16.2337 7.25101 16.3351C7.49244 16.4364 8.41534 16.6899 8.55942 16.8537C8.97998 17.3255 8.34914 18.4524 9.13185 18.7332C9.91456 19.0139 10.4052 18.8112 10.6778 18.78C11.6942 18.6708 11.0244 17.3762 11.4177 16.8732C11.811 16.3702 12.4301 16.4676 12.7183 16.3429C13.0065 16.2181 13.5984 15.8554 13.7892 15.8554C14.5213 15.8515 14.8639 17.3606 15.7557 16.6587C16.6474 15.9568 16.5267 15.9334 16.6864 15.7229C17.3717 14.8221 15.7167 14.4556 15.8803 13.6679C15.9231 13.469 16.2424 12.9738 16.3437 12.732C16.4449 12.4903 16.7019 11.5622 16.8616 11.4218C17.3328 11.0007 18.4582 11.6324 18.7386 10.8486C18.8203 10.6263 18.8164 9.57351 18.7853 9.30055C18.6762 8.28281 17.3834 8.9535 16.8811 8.55966C16.7019 8.41539 16.4761 7.54582 16.3515 7.25727C16.2463 7.0116 15.8647 6.3838 15.8647 6.18493C15.8608 5.45185 17.3678 5.1087 16.6669 4.21964C15.966 3.33057 15.9426 3.44756 15.7323 3.28768C15.0314 2.74957 14.677 3.61133 14.2097 3.94278C13.6957 4.30932 13.4738 3.95448 13.0181 3.74781C12.5664 3.54114 12.0719 3.43586 11.6474 3.24869C10.8141 2.88604 11.8149 1.30679 10.6778 1.18591C10.3857 1.15471 9.52515 1.14691 9.24867 1.19371L9.25257 1.19761Z" fill="currentColor"/>
<path d="M14.3301 9.98652C14.3301 12.3807 12.3909 14.3226 9.9999 14.3226C7.60893 14.3226 5.66968 12.3807 5.66968 9.98652C5.66968 7.59229 7.60893 5.65039 9.9999 5.65039C12.3909 5.65039 14.3301 7.59229 14.3301 9.98652ZM13.1619 9.99042C13.1619 8.23959 11.7444 6.82411 9.9999 6.82411C8.25535 6.82411 6.8379 8.24349 6.8379 9.99042C6.8379 11.7373 8.25535 13.1567 9.9999 13.1567C11.7444 13.1567 13.1619 11.7373 13.1619 9.99042Z" fill="currentColor"/>
</g>
<defs>
<clipPath id="clip0_450_1684">
<rect width="20" height="20" fill="currentColor"/>
</clipPath>
</defs>
</svg>
