<svg width="36" height="38" viewBox="0 0 36 38" fill="none" xmlns="http://www.w3.org/2000/svg">
<path d="M14.6723 0.152484C15.901 -0.050828 19.4847 -0.050828 20.8157 0.152484C23.785 0.457452 22.6587 3.81211 23.3755 5.84523L26.3448 7.67504C28.2902 7.57338 30.8499 4.82866 32.5905 6.76013C34.3312 8.6916 35.867 12.2496 35.9694 12.7578C36.2766 14.9943 33.512 15.6042 32.2834 16.9257C31.0547 18.2473 32.0786 17.739 32.0786 18.4506C32.0786 19.1622 31.9762 19.8738 32.0786 20.687C33.512 22.2119 36.6861 22.9234 35.867 25.5665C35.0479 28.2096 33.3072 30.3443 32.7953 30.9543C31.1571 33.0891 28.8021 30.8526 26.8567 30.2427C26.14 30.141 24.297 31.6659 23.4778 32.0725C22.7611 33.9023 23.785 37.3586 21.0205 37.7652C18.256 38.1719 16.3106 37.9686 15.0819 37.7652C12.1126 37.4603 13.2389 34.1056 12.5222 32.0725C11.8054 31.6659 9.96241 30.141 9.1433 30.2427C7.40267 30.751 4.94532 32.8857 3.40948 31.1576C1.87363 29.4294 0.133011 25.6682 0.0306215 25.1599C-0.276547 23.0251 2.48797 22.3135 3.71665 20.992C4.94532 19.6705 3.92143 20.1787 3.92143 19.4671C3.92143 18.7555 4.02382 18.044 3.92143 17.2307C2.48797 15.7059 -0.686107 14.8926 0.13301 12.3512C0.952127 9.80981 3.2047 6.96344 3.51187 6.65848C4.43337 5.84523 5.04771 6.15019 6.07161 6.45516C7.0955 6.76013 8.73374 7.77669 9.24569 7.77669C9.75764 7.77669 11.9078 6.45516 12.215 6.1502C13.5461 5.03198 11.9078 0.762423 14.7747 0.254143L14.6723 0.152484ZM25.3209 18.8572C25.3209 14.791 21.942 11.4363 17.8464 11.4363C13.7508 11.4363 10.372 14.791 10.372 18.8572C10.372 22.9235 13.7508 26.2781 17.8464 26.2781C21.942 26.2781 25.3209 22.9235 25.3209 18.8572Z" fill="currentColor"/>
</svg>
