<svg width="15" height="17" viewBox="0 0 15 17" fill="none" xmlns="http://www.w3.org/2000/svg">
<path d="M12.5 16.6667C11.8056 16.6667 11.2153 16.4236 10.7292 15.9375C10.2431 15.4514 10 14.8611 10 14.1667C10 14.0833 10.0208 13.8889 10.0625 13.5833L4.20833 10.1667C3.98611 10.375 3.72917 10.5382 3.4375 10.6563C3.14583 10.7743 2.83333 10.8333 2.5 10.8333C1.80556 10.8333 1.21528 10.5903 0.729167 10.1042C0.243056 9.61806 0 9.02778 0 8.33333C0 7.63889 0.243056 7.04861 0.729167 6.5625C1.21528 6.07639 1.80556 5.83333 2.5 5.83333C2.83333 5.83333 3.14583 5.89236 3.4375 6.01042C3.72917 6.12847 3.98611 6.29167 4.20833 6.5L10.0625 3.08333C10.0347 2.98611 10.0174 2.89236 10.0104 2.80208C10.0035 2.71181 10 2.61111 10 2.5C10 1.80556 10.2431 1.21528 10.7292 0.729167C11.2153 0.243056 11.8056 0 12.5 0C13.1944 0 13.7847 0.243056 14.2708 0.729167C14.7569 1.21528 15 1.80556 15 2.5C15 3.19444 14.7569 3.78472 14.2708 4.27083C13.7847 4.75694 13.1944 5 12.5 5C12.1667 5 11.8542 4.94097 11.5625 4.82292C11.2708 4.70486 11.0139 4.54167 10.7917 4.33333L4.9375 7.75C4.96528 7.84722 4.98264 7.94097 4.98958 8.03125C4.99653 8.12153 5 8.22222 5 8.33333C5 8.44444 4.99653 8.54514 4.98958 8.63542C4.98264 8.72569 4.96528 8.81944 4.9375 8.91667L10.7917 12.3333C11.0139 12.125 11.2708 11.9618 11.5625 11.8438C11.8542 11.7257 12.1667 11.6667 12.5 11.6667C13.1944 11.6667 13.7847 11.9097 14.2708 12.3958C14.7569 12.8819 15 13.4722 15 14.1667C15 14.8611 14.7569 15.4514 14.2708 15.9375C13.7847 16.4236 13.1944 16.6667 12.5 16.6667Z" fill="currentColor"/>
</svg>
