<svg width="20" height="16" viewBox="0 0 20 16" fill="none" xmlns="http://www.w3.org/2000/svg">
<path d="M5.42847 5.35515V10.1305L5.43921 10.1706L10.2615 13.4538V2.05827L5.42847 5.35515ZM1.60522 9.80339H3.92847V5.69987H1.60522V9.80339ZM11.6843 14.9557C11.6843 14.9716 11.6808 14.9875 11.6736 15.0016C11.5119 15.3156 11.1118 15.5229 10.7214 15.3561C10.7165 15.354 10.7113 15.3512 10.7068 15.3483C8.56546 13.9889 6.516 12.4912 4.41968 11.1022C3.93241 11.0509 3.41626 11.0631 2.89429 11.0807C2.36692 11.0986 1.83224 11.1208 1.32983 11.0817H1.32886C0.733138 11.0263 0.263006 10.5968 0.159912 10.0925L0.144287 9.99089C0.0726618 9.27829 0.102391 8.52 0.134521 7.76726C0.166776 7.01164 0.201612 6.26139 0.144287 5.55339C0.143873 5.54828 0.143913 5.54288 0.144287 5.53777C0.187129 4.95365 0.695743 4.46882 1.3689 4.42155L1.74976 4.403C2.13433 4.39281 2.52875 4.40628 2.91968 4.41862C3.43466 4.43488 3.94425 4.44701 4.4314 4.40105L10.7048 0.157883L10.7273 0.146164C10.9558 0.0657184 11.2384 0.0899273 11.4373 0.230148C11.4536 0.233466 11.469 0.24134 11.4822 0.252609C11.5099 0.27636 11.5542 0.327316 11.5896 0.372726C11.6083 0.396723 11.6271 0.421977 11.6423 0.444992C11.6551 0.464281 11.6724 0.493052 11.6804 0.520187C11.6831 0.529304 11.6843 0.539009 11.6843 0.548508V14.9557Z" fill="#3C3D3F" stroke="#414141" stroke-width="0.2" stroke-linejoin="round"/>
<path d="M15.6089 2.3364C15.813 2.18391 16.1261 2.11048 16.4165 2.20358C16.564 2.25087 16.7217 2.35681 16.8745 2.48581C17.0292 2.61644 17.1872 2.77763 17.3345 2.94186C17.4817 3.10605 17.6206 3.27529 17.7378 3.42526L18.0122 3.79245C19.9714 6.58424 19.67 10.1489 17.23 12.6479C17.1255 12.755 16.8842 13.0165 16.5981 13.187C16.4545 13.2726 16.2917 13.3402 16.1235 13.3501C15.9519 13.3601 15.7799 13.3094 15.6245 13.1704C15.612 13.1591 15.6037 13.1445 15.5981 13.1294C15.4831 13.0135 15.4222 12.894 15.4175 12.7671C15.4125 12.6287 15.4734 12.5041 15.5513 12.3979C15.6291 12.2918 15.7322 12.1926 15.8296 12.103C15.9303 12.0103 16.0235 11.9289 16.0933 11.851L16.0942 11.8491C17.2634 10.5994 17.8433 9.17586 17.8433 7.75729C17.8432 6.33872 17.2635 4.91514 16.0942 3.6655C15.8966 3.45429 15.8185 3.39089 15.7515 3.33054C15.6781 3.26448 15.62 3.20407 15.4702 3.00925L15.4692 3.00729C15.3814 2.88775 15.3587 2.75705 15.3921 2.63425C15.4245 2.51531 15.5064 2.41308 15.6089 2.3364Z" fill="#3C3D3F" stroke="#414141" stroke-width="0.2" stroke-linejoin="round"/>
<path d="M14.0037 3.76784C14.2162 3.65152 14.495 3.6341 14.7507 3.76003L14.8591 3.82253C15.1956 4.05267 15.542 4.44949 15.8328 4.86745C16.1242 5.28642 16.3669 5.73737 16.4929 6.08327C17.1632 7.93747 16.6126 10.2845 14.9294 11.6223C14.6573 11.8427 14.2195 11.9058 13.9167 11.6751C13.896 11.6728 13.8754 11.6648 13.8591 11.6497C13.6751 11.4789 13.6143 11.206 13.6912 10.9827C13.7327 10.8622 13.8353 10.7591 13.9265 10.677C13.9732 10.635 14.0238 10.5926 14.0662 10.5559C14.1102 10.5178 14.1469 10.4841 14.1746 10.4534L14.1755 10.4524C14.9466 9.60941 15.3236 8.67807 15.322 7.75221C15.3204 6.82622 14.9405 5.89431 14.1755 5.05104H14.1746C14.1469 5.02034 14.1088 4.98512 14.0623 4.9446C14.0173 4.90548 13.9642 4.86075 13.9148 4.81569C13.8651 4.77034 13.8149 4.72109 13.7732 4.6692C13.7319 4.61784 13.6945 4.5586 13.6765 4.49342L13.6755 4.48952C13.5995 4.17011 13.7593 3.90181 14.0037 3.76784Z" fill="#3C3D3F" stroke="#414141" stroke-width="0.2" stroke-linejoin="round"/>
</svg>
