<svg width="53" height="52" viewBox="0 0 53 52" fill="none" xmlns="http://www.w3.org/2000/svg">
<defs>
<mask id="maskTop">
<rect x="0" y="0" width="53" height="52" fill="white"/>
<rect x="-4" y="-4" width="61" height="8" fill="black"/>
</mask>
</defs>
<g filter="url(#filter0_d_3499_1223)">
<path d="M47.668 1C46.168 35 15.668 46 15.668 46C20.868 23.6 9.16797 6.66667 2.66797 1H47.668Z" fill="currentColor"/>
<path d="M47.668 1L48.667 1.04407L48.7131 0H47.668V1ZM15.668 46L14.6939 45.7739L14.2782 47.5643L16.0072 46.9407L15.668 46ZM2.66797 1V0H-0.000846991L2.01083 1.75377L2.66797 1ZM47.668 1L46.6689 0.955925C45.9334 17.6272 38.1 28.6402 30.4382 35.5052C26.6024 38.9421 22.811 41.3367 19.9805 42.8708C18.5661 43.6375 17.394 44.1879 16.5797 44.5452C16.1726 44.7238 15.8551 44.854 15.6417 44.9388C15.5351 44.9811 15.4544 45.0121 15.4017 45.0321C15.3753 45.0421 15.3558 45.0493 15.3436 45.0538C15.3375 45.0561 15.3332 45.0577 15.3307 45.0586C15.3294 45.059 15.3286 45.0593 15.3283 45.0595C15.3281 45.0595 15.3282 45.0595 15.3282 45.0595C15.3284 45.0594 15.3287 45.0593 15.668 46C16.0072 46.9407 16.0078 46.9405 16.0085 46.9402C16.0089 46.9401 16.0097 46.9398 16.0104 46.9395C16.0119 46.939 16.0139 46.9383 16.0164 46.9374C16.0213 46.9356 16.028 46.9331 16.0366 46.93C16.0537 46.9236 16.078 46.9146 16.1094 46.9027C16.1721 46.879 16.2629 46.844 16.38 46.7975C16.6141 46.7046 16.9534 46.5653 17.3832 46.3767C18.2427 45.9996 19.4652 45.425 20.9335 44.6292C23.8687 43.0383 27.7961 40.5579 31.7728 36.9948C39.7359 29.8598 47.9025 18.3728 48.667 1.04407L47.668 1ZM15.668 46L16.6421 46.2261C21.9478 23.3707 10.0214 6.08398 3.3251 0.246227L2.66797 1L2.01083 1.75377C8.31458 7.24935 19.7882 23.8293 14.6939 45.7739L15.668 46ZM2.66797 1V2H47.668V1V0H2.66797V1Z" fill="black" mask="url(#maskTop)"/>
</g>
<defs>
<filter id="filter0_d_3499_1223" x="0" y="0" width="52.7129" height="51.5642" filterUnits="userSpaceOnUse" color-interpolation-filters="sRGB">
<feFlood flood-opacity="0" result="BackgroundImageFix"/>
<feColorMatrix in="SourceAlpha" type="matrix" values="0 0 0 0 0 0 0 0 0 0 0 0 0 0 0 0 0 0 127 0" result="hardAlpha"/>
<feOffset dx="4" dy="4"/>
<feComposite in2="hardAlpha" operator="out"/>
<feColorMatrix type="matrix" values="0 0 0 0 0 0 0 0 0 0 0 0 0 0 0 0 0 0 1 0"/>
<feBlend mode="normal" in2="BackgroundImageFix" result="effect1_dropShadow_3499_1223"/>
<feBlend mode="normal" in="SourceGraphic" in2="effect1_dropShadow_3499_1223" result="shape"/>
</filter>
</defs>
</svg>
