<svg width="64" height="67" viewBox="0 0 64 67" fill="none" xmlns="http://www.w3.org/2000/svg">
<path d="M19.0869 46.3042L21.7099 48.3729L58.1033 14.3598L62.4967 0L19.0869 46.3042Z" fill="#87C3DD"/>
<path d="M19.0867 46.3042L16.5293 44.1745L47.808 6.0238L62.4965 0L19.0867 46.3042Z" fill="#A2D5F2"/>
<path d="M2.75879 63.7063L53.0539 11.9868L62.4965 0L2.75879 63.7063Z" fill="#A2D5F2"/>
<path d="M2.75879 63.7063L51.0211 10.3439L62.4965 0L2.75879 63.7063Z" fill="#87C3DD"/>
<path d="M3.80762 59.1428L4.66008 59.8121H9.64368L11.4797 57.8042H5.05352L3.80762 59.1428Z" fill="#035F87"/>
<path d="M5.05371 57.8043H11.4799L13.3816 55.7964H6.95535L5.05371 57.8043Z" fill="#07689F"/>
<path d="M7.47983 62.1244L9.64376 59.8123H4.66016L7.47983 62.1244Z" fill="#07689F"/>
<path d="M12.6604 49.7117L10.7588 51.7196L17.185 51.7805L19.0867 49.7725L12.6604 49.7117Z" fill="#035F87"/>
<path d="M6.95508 55.7963H13.3813L15.2829 53.7884L8.85672 53.7275L6.95508 55.7963Z" fill="#035F87"/>
<path d="M8.85645 53.7274L15.2827 53.7883L17.1843 51.7803L10.7581 51.7195L8.85645 53.7274Z" fill="#07689F"/>
<path d="M20.988 47.7647L14.4962 47.7039L12.6602 49.7118L19.0864 49.7726L20.988 47.7647Z" fill="#07689F"/>
<path d="M20.9879 47.7038L17.3158 44.7832L14.4961 47.7038L20.9879 47.7647V47.7038Z" fill="#035F87"/>
<path d="M8.39826 64.4973C6.62777 66.3836 3.61137 66.5661 1.64416 64.9232C-0.323052 63.2804 -0.585347 60.4815 1.18514 58.6561C2.95564 56.7698 5.97203 56.5873 7.93924 58.2301C9.90646 59.873 10.1688 62.6719 8.39826 64.4973Z" fill="#C9A667"/>
<path d="M24.282 47.9026L16.7102 41.795C16.0542 41.2658 15.0602 41.3303 14.49 41.939L13.8447 42.6279C13.2744 43.2365 13.344 44.1589 13.9999 44.688L21.5718 50.7956C22.2277 51.3247 23.2218 51.2602 23.792 50.6515L24.4373 49.9627C25.0075 49.354 24.938 48.4317 24.282 47.9026Z" fill="#C9A667"/>
<path d="M44.7918 46.3042L42.1689 48.3729L5.77542 14.3598L1.31641 0L44.7918 46.3042Z" fill="#87C3DD"/>
<path d="M44.7918 46.3042L47.3492 44.1745L16.0705 6.0238L1.31641 0L44.7918 46.3042Z" fill="#A2D5F2"/>
<path d="M61.1197 63.7063L10.759 11.9868L1.31641 0L61.1197 63.7063Z" fill="#A2D5F2"/>
<path d="M61.1197 63.7063L12.8574 10.3439L1.31641 0L61.1197 63.7063Z" fill="#87C3DD"/>
<path d="M60.0707 59.1428L59.2183 59.8121H54.2346L52.333 57.8042H58.8248L60.0707 59.1428Z" fill="#035F87"/>
<path d="M58.8249 57.8043H52.3331L50.4971 55.7964H56.9233L58.8249 57.8043Z" fill="#07689F"/>
<path d="M56.3993 62.1244L54.2354 59.8123H59.219L56.3993 62.1244Z" fill="#07689F"/>
<path d="M51.2182 49.7117L53.1199 51.7196L46.6936 51.7805L44.792 49.7725L51.2182 49.7117Z" fill="#035F87"/>
<path d="M56.9236 55.7963H50.4973L48.5957 53.7884L55.0219 53.7275L56.9236 55.7963Z" fill="#035F87"/>
<path d="M55.0222 53.7274L48.596 53.7883L46.6943 51.7803L53.1206 51.7195L55.0222 53.7274Z" fill="#07689F"/>
<path d="M42.8906 47.7647L49.3824 47.7039L51.2185 49.7118L44.7923 49.7726L42.8906 47.7647Z" fill="#07689F"/>
<path d="M42.8906 47.7038L46.5628 44.7832L49.3824 47.7038L42.8906 47.7647V47.7038Z" fill="#035F87"/>
<path d="M55.4801 64.4973C57.2506 66.3836 60.267 66.5661 62.2342 64.9232C64.2014 63.2804 64.4637 60.4815 62.6932 58.6561C60.9227 56.7698 57.9063 56.5873 55.9391 58.2301C53.9719 59.873 53.7096 62.6719 55.4801 64.4973Z" fill="#C9A667"/>
<path d="M42.3264 50.7507L49.8982 44.6431C50.5542 44.114 50.6237 43.1916 50.0535 42.5829L49.4081 41.8941C48.8379 41.2854 47.8439 41.2209 47.1879 41.7501L39.6161 47.8577C38.9601 48.3868 38.8906 49.3091 39.4608 49.9178L40.1061 50.6066C40.6764 51.2153 41.6704 51.2798 42.3264 50.7507Z" fill="#C9A667"/>
</svg>
