<svg width="20" height="20" viewBox="0 0 20 20" fill="none" xmlns="http://www.w3.org/2000/svg">
  <g clip-path="url(#clip0_853_147)">
    <path d="M19.2543 0.745919L16.5846 1.24573L5.7196 11.5479C5.64503 11.4583 5.26471 11.1749 5.31691 11.0779C5.36911 10.9809 5.67485 10.7123 5.75688 10.6378C9.2319 7.26587 12.8262 4.02082 16.3087 0.648941C17.3974 0.358004 18.5384 0.231186 19.6495 -7.10866e-05C19.8508 -0.0149909 20.0224 0.156587 20.0074 0.358004C19.7688 1.46207 19.657 2.61089 19.3587 3.70004L8.92616 14.681C8.89633 14.7109 8.88142 14.6959 8.84413 14.681C8.80685 14.6661 8.50856 14.3528 8.48619 14.3229C8.46382 14.2931 8.42653 14.2707 8.46382 14.226L18.7546 3.41656C18.9858 2.54376 19.1275 1.64111 19.2543 0.745919Z" fill="currentColor" />
    <path d="M3.57946 11.0035C3.92249 10.9512 4.24315 11.0258 4.50415 11.2496L8.76962 15.5167C9.58245 16.576 8.24762 17.971 7.11414 17.0907C5.98066 16.2105 6.27894 16.203 6.20437 16.2179L5.32443 17.0907L2.91578 14.6812L3.78826 13.7711C3.22152 13.1221 2.28938 12.6372 2.75918 11.6152C3.22898 10.5932 3.24389 11.0557 3.57946 11.0035Z" fill="currentColor" />
    <path d="M16.344 3.20031L6.85791 12.6899L7.32193 13.1541L16.808 3.66451L16.344 3.20031Z" fill="currentColor" />
    <path d="M2.44614 15.1391L1.27026 16.3154L3.68529 18.7314L4.86116 17.555L2.44614 15.1391Z" fill="currentColor" />
    <path d="M0.820181 16.7775L3.22883 19.187C2.77395 19.657 2.25195 20.306 1.54352 19.836C0.835095 19.3661 0.268354 18.6126 0.156497 18.4336C-0.298388 17.695 0.357839 17.24 0.820181 16.77V16.7775Z" fill="black" />
  </g>
  <defs>
    <clipPath id="clip0_853_147">
      <rect width="20" height="20" fill="currentColor" />
    </clipPath>
  </defs>
</svg>