<svg width="19" height="19" viewBox="0 0 19 19" fill="currentColor" xmlns="http://www.w3.org/2000/svg">
<path d="M16.0094 3.30289C15.9164 3.71158 16.7198 3.90477 16.8091 4.19085C16.9728 4.7147 16.2846 4.79644 16.0094 5.06766C15.7341 5.33887 15.9573 5.1011 15.9722 5.15682C16.1767 5.29429 16.9021 5.72526 16.9765 5.91474L17.0099 14.1107C19.796 14.7943 19.6211 18.6731 16.7347 18.9963H6.18203C3.05752 18.5356 4.01719 14.7497 3.86469 12.5242C3.80517 12.2567 4.75369 11.6512 4.75369 11.5546C4.59002 11.4097 3.86469 11.0641 3.86469 10.8486V4.89304H1.61802C1.3316 4.89304 0.807131 4.54752 0.613709 4.33574C-0.595179 3.0131 0.0483216 0.274932 1.94907 0H14.9121C16.5152 0.13375 17.1848 1.45268 17.0099 2.94994C16.9951 3.0614 16.8314 3.30289 16.731 3.30289H16.0056H16.0094ZM3.86097 4.15741C3.89816 2.83848 3.98372 0.735628 2.13505 0.743058C0.788533 0.743058 0.327296 3.01682 1.20141 3.88619C1.83004 4.51036 2.71159 3.97165 2.42146 3.13199C2.23548 2.59327 1.73705 2.89421 1.55106 2.5524C1.36508 2.2106 1.65521 1.9914 1.98254 2.00626C3.02777 2.06199 3.50016 3.31032 3.04264 4.15741H3.86097ZM14.9865 0.743058H3.89816C4.378 1.28921 4.53051 2.02483 4.6049 2.72702V10.518C4.80948 10.8709 6.12996 11.2127 5.6464 11.7812C5.44926 12.0115 5.02894 12.2939 4.79088 12.5205C4.55282 12.7472 4.6235 12.6617 4.6049 12.7434C4.75369 14.2073 3.9428 18.0972 6.21923 18.2532C7.65874 18.3535 8.18321 15.998 7.25701 15.0989C6.33082 14.1998 5.89934 14.9169 6.01465 15.7454C6.10764 16.4104 6.78834 16.0984 6.94084 16.4885C7.08219 16.8451 6.73254 17.0197 6.40893 16.9826C4.97315 16.808 4.84668 14.642 6.18575 14.1813C6.23411 14.1627 6.44613 14.0995 6.47589 14.0995H16.2623V6.23426C15.8978 5.97419 15.4254 5.70669 15.0943 5.41689C14.4917 4.88932 15.4328 4.59953 15.7787 4.3246L15.3696 3.98279C15.2208 3.79703 15.2282 3.12828 15.2766 2.89421C15.3249 2.66015 15.4403 2.56355 15.5742 2.56355H16.2623C16.3776 1.72018 15.868 0.850802 14.9827 0.746774L14.9865 0.743058ZM7.83728 18.2569H16.731C17.5493 18.2569 18.2821 17.3133 18.2746 16.5293C18.2672 15.7454 17.5307 14.8426 16.731 14.8426H8.01954C8.20181 15.1175 8.3134 15.4222 8.41383 15.7343L14.3988 15.7603C14.7112 15.9497 14.7112 16.2581 14.3988 16.4476L8.4659 16.4773C8.43986 17.1163 8.22784 17.7517 7.83356 18.2569H7.83728Z" fill="currentColor"/>
<path d="M6.97442 4.98234L13.986 4.97119C14.4621 5.02321 14.4807 5.65481 13.986 5.71425H7.04138C6.58758 5.6771 6.53179 5.09008 6.97442 4.97862V4.98234Z" fill="currentColor"/>
<path d="M6.97442 7.059L13.986 7.04785C14.4621 7.09987 14.4807 7.73147 13.986 7.79091H7.04138C6.58758 7.75376 6.53179 7.16674 6.97442 7.05528V7.059Z" fill="currentColor"/>
<path d="M6.97442 9.13615L13.986 9.125C14.4621 9.17701 14.4807 9.80861 13.986 9.86806H7.04138C6.58758 9.83091 6.53179 9.24389 6.97442 9.13243V9.13615Z" fill="currentColor"/>
<path d="M6.97442 11.2162L13.986 11.2051C14.4621 11.2571 14.4807 11.8887 13.986 11.9481H7.04138C6.58758 11.911 6.53179 11.324 6.97442 11.2125V11.2162Z" fill="currentColor"/>
<path d="M8.53299 2.90147L13.986 2.89404C14.4621 2.94606 14.4807 3.57766 13.986 3.6371L8.48092 3.60738C8.14615 3.41047 8.17963 3.0538 8.53671 2.90147H8.53299Z" fill="currentColor"/>
<path d="M7.03377 3.63358C7.23715 3.63358 7.40202 3.4689 7.40202 3.26576C7.40202 3.06263 7.23715 2.89795 7.03377 2.89795C6.8304 2.89795 6.66553 3.06263 6.66553 3.26576C6.66553 3.4689 6.8304 3.63358 7.03377 3.63358Z" fill="currentColor"/>
<path d="M15.7044 16.47C15.9078 16.47 16.0727 16.3053 16.0727 16.1022C16.0727 15.8991 15.9078 15.7344 15.7044 15.7344C15.5011 15.7344 15.3362 15.8991 15.3362 16.1022C15.3362 16.3053 15.5011 16.47 15.7044 16.47Z" fill="currentColor"/>
</svg>
