<svg width="19" height="22" viewBox="0 0 19 22" fill="none" xmlns="http://www.w3.org/2000/svg">
<g clip-path="url(#clip0_582_177)">
<path fill-rule="evenodd" clip-rule="evenodd" d="M14.1096 7.96271C15.4725 8.94779 17.2362 9.6045 18.9999 9.6045V5.99256C18.6793 5.99256 18.2784 5.99256 17.9577 5.91047V8.78361C16.1139 8.78361 14.4303 8.20898 13.0675 7.14182V14.5299C13.0675 18.2239 10.1814 21.1791 6.57378 21.1791C2.96619 21.1791 4.00838 20.7687 2.96619 20.0299C4.16872 21.2612 5.77209 22 7.61598 22C11.2236 22 14.1096 19.0448 14.1096 15.3508V7.96271ZM15.3923 4.26868C14.6708 3.44779 14.1898 2.46271 14.1096 1.31346V0.820923H13.1476C13.3881 2.29853 14.27 3.52988 15.3923 4.26868ZM5.21091 17.1567C4.81007 16.6642 4.56956 16.0075 4.56956 15.2687C4.56956 13.5448 5.93243 12.2314 7.53581 12.2314C7.85648 12.2314 8.17716 12.2314 8.41766 12.3955V8.70152C8.09699 8.70152 7.69614 8.70152 7.37547 8.70152V11.5747C7.05479 11.4926 6.81429 11.4105 6.49361 11.4105C4.81007 11.4105 3.52737 12.806 3.52737 14.4478C3.52737 16.0896 4.16872 16.6642 5.13074 17.1567H5.21091Z" fill="#FF1753"/>
<path fill-rule="evenodd" clip-rule="evenodd" d="M13.0675 7.05973C14.4304 8.0448 16.1941 8.70152 17.9578 8.70152V5.82839C16.9156 5.58212 16.0338 5.08958 15.3122 4.26868C14.1097 3.52988 13.308 2.29853 13.0675 0.820923H10.5021V15.2687C10.5021 16.9926 9.13925 18.306 7.53588 18.306C5.9325 18.306 5.69199 17.8135 5.13081 17.0747C4.16879 16.5821 3.52744 15.515 3.52744 14.3657C3.52744 12.6418 4.89031 11.3284 6.49368 11.3284C8.09706 11.3284 7.13503 11.3284 7.37554 11.4926V8.61943C3.84811 8.61943 0.962036 11.6567 0.962036 15.2687C0.962036 18.8806 1.68356 18.7164 2.80592 19.9478C3.84811 20.6866 5.13081 21.097 6.41351 21.097C10.0211 21.097 12.9072 18.1418 12.9072 14.4478V7.05973H13.0675Z" fill="white"/>
<path fill-rule="evenodd" clip-rule="evenodd" d="M17.9578 5.82836V5.08955C16.9958 5.08955 16.114 4.84328 15.3123 4.35075C16.0338 5.08955 16.9156 5.66418 17.9578 5.91045V5.82836ZM13.1477 0.902985C13.1477 0.738806 13.1477 0.656716 13.1477 0.492537V0H9.62028V14.4478C9.62028 16.1716 8.25741 17.4851 6.65404 17.4851C5.05066 17.4851 5.69201 17.403 5.29117 17.1567C5.85235 17.8955 6.73421 18.3881 7.69623 18.3881C9.37978 18.3881 10.6625 16.9925 10.6625 15.3507V0.902985H13.2279H13.1477ZM7.45573 8.6194V7.79851C7.13505 7.79851 6.89455 7.79851 6.57387 7.79851C2.96628 7.79851 0.0802002 10.7537 0.0802002 14.4478C0.0802002 18.1418 1.20256 18.7985 2.96628 20.0299C1.84391 18.7985 1.12239 17.1567 1.12239 15.3507C1.12239 11.7388 4.00847 8.78358 7.5359 8.70149L7.45573 8.6194Z" fill="#00C9D0"/>
</g>
<defs>
<clipPath id="clip0_582_177">
<rect width="19" height="22" fill="white"/>
</clipPath>
</defs>
</svg>
