<svg width="66" height="41" viewBox="0 0 66 41" fill="none" xmlns="http://www.w3.org/2000/svg">
<g clip-path="url(#clip0_2758_2818)">
<path d="M32.0847 18.9271C41.1004 18.298 49.1879 24.9565 49.7183 33.922C49.7978 35.39 49.8774 38.2475 49.7183 39.6369C49.5592 41.0262 49.0554 41 48.2333 40.9738L17.7392 40.8689C16.9437 40.6068 16.8641 39.8728 16.8111 39.1388C16.0421 28.9412 20.8947 19.7136 32.0847 18.9271Z" fill="currentColor"/>
<path d="M51.3889 37.1726C51.7336 32.0345 50.3548 27.2372 47.0137 23.2788C54.2527 17.9572 65.2306 22.6496 65.8935 31.6413C65.9731 32.6899 66.0526 35.2327 65.8935 36.2027C65.7344 37.1726 65.3367 37.1726 65.0715 37.1726H51.3889Z" fill="currentColor"/>
<path d="M1.19353 38.0639C0.663195 37.959 0.185895 37.5133 0.106345 36.989C-0.158822 35.2064 0.0533118 31.8509 0.583645 30.1208C2.78453 22.6495 12.0654 19.6873 18.615 23.7506L16.9975 26.1623C14.7701 29.8062 14.4519 33.9219 14.611 38.0901H1.19353V38.0639Z" fill="currentColor"/>
<path d="M32.8805 15.624C37.2446 15.624 40.7825 12.1265 40.7825 7.81202C40.7825 3.49756 37.2446 0 32.8805 0C28.5163 0 24.9785 3.49756 24.9785 7.81202C24.9785 12.1265 28.5163 15.624 32.8805 15.624Z" fill="currentColor"/>
<path d="M53.9881 18.5076C57.415 18.5076 60.193 15.7612 60.193 12.3733C60.193 8.98542 57.415 6.23901 53.9881 6.23901C50.5612 6.23901 47.7832 8.98542 47.7832 12.3733C47.7832 15.7612 50.5612 18.5076 53.9881 18.5076Z" fill="currentColor"/>
<path d="M12.0125 19.032C15.4394 19.032 18.2174 16.2856 18.2174 12.8977C18.2174 9.50984 15.4394 6.76343 12.0125 6.76343C8.58565 6.76343 5.80762 9.50984 5.80762 12.8977C5.80762 16.2856 8.58565 19.032 12.0125 19.032Z" fill="currentColor"/>
</g>
<defs>
<clipPath id="clip0_2758_2818">
<rect width="66" height="41" fill="white"/>
</clipPath>
</defs>
</svg>
