<svg xmlns="http://www.w3.org/2000/svg" width="36" height="36" viewBox="0 0 36 36" fill="none">
<g clipPath="url(#clip0_2969_1411)">
<path d="M18 0C8.07367 0 0 8.07367 0 18C0 27.9263 8.07367 36 18 36C27.9263 36 36 27.9263 36 18C36 8.07367 27.9239 0 18 0Z" fill="#6CDE6A"/>
<path d="M24.5038 2.02576C26.5856 4.73161 27.8264 8.11758 27.8264 11.7888C27.8264 15.4599 27.5924 14.9115 27.1609 16.3619C27.2219 16.3936 27.2804 16.4253 27.3413 16.4618C29.1745 17.4735 30.4543 19.3651 30.6054 21.5688C30.6151 21.7151 30.62 21.8638 30.62 22.0125V22.0393C30.62 22.366 30.5956 23.4117 30.5444 24.4258C30.0423 24.5355 29.5231 24.633 28.9916 24.7159C28.9331 23.5677 28.8405 22.2831 28.7771 21.9174C28.7771 21.9418 28.7771 21.9686 28.7771 22.0003C28.7771 22.2806 28.7527 22.8316 28.7162 23.4629C28.6894 23.8822 28.6577 24.3381 28.626 24.7695C28.1043 24.8451 27.5704 24.9085 27.0268 24.9572C26.4832 25.006 25.9274 25.0425 25.3643 25.0645C25.3668 24.9889 25.3692 24.9158 25.3716 24.8451C25.3765 24.7013 25.379 24.5648 25.3838 24.4404C25.3838 24.3771 25.3863 24.3161 25.3887 24.26C25.3911 24.1455 25.3936 24.0407 25.3936 23.9529C25.3936 23.8651 25.3936 23.7896 25.3936 23.7335V23.7091C25.3936 23.6043 25.3911 23.4995 25.3863 23.3947C25.3863 23.3703 25.3863 23.3483 25.3838 23.324C25.379 23.224 25.3716 23.1216 25.3619 23.0217C25.3619 23.0217 25.3619 23.0193 25.3619 23.0168C25.2961 22.3343 25.1303 21.6712 24.8817 21.0472C24.6842 21.3251 24.4794 21.5956 24.2649 21.8589C24.3064 21.9979 24.3454 22.1368 24.3771 22.2782C24.3771 22.2879 24.3819 22.2953 24.3844 22.305C24.399 22.3684 24.4136 22.4342 24.4258 22.5C24.4429 22.5902 24.4599 22.6804 24.4746 22.773C24.4819 22.8169 24.4868 22.8608 24.4916 22.9047C24.5063 23.0168 24.5184 23.129 24.5258 23.2435C24.5258 23.263 24.5258 23.285 24.5282 23.3069C24.5379 23.441 24.5428 23.5751 24.5428 23.7091V23.7335C24.5428 24.0602 24.5184 25.1059 24.4673 26.12C24.2162 26.1736 23.9602 26.2273 23.7018 26.2736C23.4434 26.3223 23.1801 26.3662 22.9144 26.4101C22.8559 25.2619 22.7633 23.9773 22.6999 23.6116C22.6999 23.6604 22.6999 23.7238 22.6999 23.7993C22.695 24.0992 22.6731 24.5989 22.639 25.1596C22.6292 25.2985 22.6219 25.4423 22.6122 25.5886C22.5927 25.8787 22.5707 26.1785 22.5488 26.4662C22.1904 26.5174 21.8248 26.5637 21.4543 26.6027C20.7156 26.6831 19.9551 26.7368 19.1774 26.7636C18.7898 26.7782 18.3974 26.7831 18 26.7831C17.6027 26.7831 17.6661 26.7831 17.4979 26.7782C15.7232 27.4559 13.7999 27.8288 11.7888 27.8288C8.11758 27.8288 4.73161 26.5881 2.02576 24.5063C4.59997 30.8028 10.7893 35.2492 18 35.2492C25.2108 35.2492 35.2492 27.5119 35.2492 18C35.2492 8.48811 30.8004 4.59753 24.5038 2.02576Z" fill="#4ECA4C"/>
<path d="M27.1609 16.3619C27.1316 16.3472 27.1024 16.3302 27.0731 16.3156C26.2735 17.02 25.2253 17.4466 24.0796 17.4466C22.9339 17.4466 22.5585 17.2468 21.9149 16.8957C21.8199 17.0591 21.7126 17.2151 21.598 17.3638C21.6273 17.3808 21.6565 17.3955 21.6858 17.4125C23.163 18.2291 24.2771 19.5236 24.8816 21.0398C25.8811 19.6308 26.6563 18.0536 27.1609 16.3619Z" fill="#F1F0F1"/>
<path d="M22.539 14.5994C22.539 15.1333 22.4463 15.6452 22.2757 16.123C22.8096 16.4228 23.4239 16.5959 24.0772 16.5959C26.1151 16.5959 27.7654 14.9456 27.7654 12.9077C27.7654 10.8697 26.1151 9.21942 24.0772 9.21942C22.0392 9.21942 21.5054 9.97267 20.8716 11.0867C21.8881 11.9204 22.539 13.1856 22.539 14.5994Z" fill="#F1F0F1"/>
<path d="M14.2996 17.4223C14.3337 17.4003 14.3654 17.3833 14.3971 17.3638C14.2825 17.2151 14.1777 17.0615 14.0826 16.8982C13.439 17.2492 12.7004 17.4491 11.9179 17.4491C10.7673 17.4491 9.71667 17.0176 8.91467 16.3107C8.82935 16.357 8.74403 16.4082 8.65627 16.4642C6.70123 17.5417 5.37512 19.6259 5.37512 22.0149V22.0417C5.37512 22.3684 5.3995 23.4141 5.44825 24.4282C5.95042 24.5379 6.47209 24.6354 7.00351 24.7183C7.06201 23.5726 7.15465 22.2855 7.21559 21.9198C7.20096 22.3074 7.27653 23.6213 7.36916 24.7744C8.4125 24.9255 9.50459 25.023 10.6308 25.0669C10.6113 24.4648 10.5991 23.9553 10.5991 23.7359V23.7115C10.5991 21.1032 12.0154 18.6972 14.2947 17.4296L14.2996 17.4223Z" fill="#F1F0F1"/>
<path d="M8.23218 12.9077C8.23218 14.9456 9.8825 16.5959 11.9204 16.5959C13.9583 16.5959 13.1905 16.4228 13.7219 16.123C13.5512 15.6476 13.4586 15.1333 13.4586 14.5994C13.4586 13.1856 14.1095 11.9204 15.126 11.0867C14.4922 9.97267 13.2953 9.21942 11.9204 9.21942C9.8825 9.21942 8.23218 10.8697 8.23218 12.9077Z" fill="#F1F0F1"/>
<path d="M19.1749 26.7587C18.7873 26.7733 18.3949 26.7782 17.9975 26.7782C17.6002 26.7782 17.6635 26.7782 17.4953 26.7733C20.1646 25.7519 22.4951 24.0382 24.2624 21.8516C23.7773 20.2646 22.6876 18.9385 21.2592 18.1511C21.169 18.0975 21.0788 18.0512 20.991 18.0073C20.1914 18.7094 19.1432 19.1384 17.9975 19.1384C16.8518 19.1384 15.7963 18.7069 14.9943 18C14.9089 18.0463 14.8236 18.0975 14.7359 18.1536C12.7808 19.231 11.4547 21.3153 11.4547 23.7042V23.7286C11.4547 24.0553 11.4791 25.101 11.5278 26.1151C12.03 26.2248 12.5517 26.3223 13.0831 26.4052C13.1416 25.2595 13.2342 23.9724 13.2952 23.6067C13.2806 23.9943 13.3561 25.3082 13.4488 26.4613C14.731 26.6465 16.0888 26.7538 17.4929 26.7733C17.6587 26.7757 17.8269 26.7782 17.9951 26.7782C18.3924 26.7782 18.7849 26.7709 19.1725 26.7587H19.1749Z" fill="#F1F0F1"/>
<path d="M19.3924 18.0144C21.2784 17.2448 22.1833 15.092 21.4137 13.206C20.644 11.32 18.4912 10.4151 16.6053 11.1847C14.7193 11.9544 13.8144 14.1072 14.584 15.9931C15.3536 17.8791 17.5064 18.7841 19.3924 18.0144Z" fill="#F1F0F1"/>
<path d="M30.6053 21.5688C30.4517 19.3676 29.1744 17.4735 27.3412 16.4618C27.2803 16.4253 27.2218 16.3936 27.1608 16.3619C26.6562 18.0536 25.8811 19.6308 24.8816 21.0398C25.1302 21.6639 25.296 22.3269 25.3618 23.0095C25.3618 23.0095 25.3618 23.0119 25.3618 23.0144C25.3716 23.1143 25.3789 23.2143 25.3838 23.3166C25.3838 23.341 25.3862 23.363 25.3862 23.3873C25.3911 23.4922 25.3935 23.597 25.3935 23.7018V23.7262C25.3935 23.7822 25.3935 23.8554 25.3935 23.9456C25.3935 24.0333 25.3911 24.1382 25.3886 24.2527C25.3886 24.3112 25.3862 24.3697 25.3838 24.4331C25.3813 24.5599 25.3764 24.6964 25.3716 24.8378C25.3716 24.9085 25.3667 24.9816 25.3643 25.0572C25.9274 25.0352 26.4832 25.0011 27.0268 24.9499C27.5704 24.9012 28.1042 24.8378 28.6259 24.7622C28.66 24.3307 28.6917 23.8749 28.7161 23.4556C28.7551 22.8267 28.7795 22.2733 28.777 21.993C28.777 21.9613 28.777 21.9345 28.777 21.9101C28.8404 22.2733 28.9331 23.5604 28.9916 24.7086C29.523 24.6257 30.0422 24.5282 30.5444 24.4185C30.5931 23.4044 30.6199 22.3586 30.6199 22.032V22.0052C30.6199 21.8565 30.6151 21.7078 30.6053 21.5615V21.5688Z" fill="#D3D1D2"/>
<path d="M17.4978 26.7757C17.6636 26.7782 17.8318 26.7806 18 26.7806C18.3973 26.7806 18.7898 26.7733 19.1774 26.7611C19.955 26.7343 20.7156 26.6807 21.4542 26.6002C21.8247 26.5612 22.1879 26.5149 22.5487 26.4637C22.5707 26.1761 22.5926 25.8787 22.6121 25.5861C22.6219 25.4399 22.6316 25.296 22.6389 25.1571C22.673 24.5964 22.6974 24.0991 22.6999 23.7969C22.6999 23.7213 22.6999 23.6579 22.6999 23.6092C22.7632 23.9724 22.8559 25.2595 22.9144 26.4076C23.1801 26.3662 23.4434 26.3199 23.7018 26.2711C23.9602 26.2224 24.2161 26.1712 24.4672 26.1176C24.516 25.1035 24.5428 24.0577 24.5428 23.731V23.7067C24.5428 23.5702 24.5379 23.4385 24.5281 23.3044C24.5281 23.2849 24.5281 23.263 24.5257 23.2411C24.5184 23.1265 24.5038 23.0144 24.4916 22.9022C24.4867 22.8583 24.4794 22.8145 24.4745 22.7706C24.4599 22.678 24.4453 22.5878 24.4258 22.4976C24.4136 22.4317 24.3989 22.3684 24.3843 22.3025C24.3843 22.2928 24.3794 22.2855 24.377 22.2757C24.3429 22.1343 24.3063 21.993 24.2649 21.8564C22.4975 24.0431 20.1671 25.7568 17.4978 26.7782V26.7757Z" fill="#D3D1D2"/>
</g>
<defs>
<clipPath id="clip0_2969_1411">
<rect width="36" height="36" fill="white"/>
</clipPath>
</defs>
</svg>

