<svg width="22" height="22" viewBox="0 0 22 22" fill="none" xmlns="http://www.w3.org/2000/svg">
<g clip-path="url(#clip0_450_1715)">
<path d="M17.2948 12.6648C17.8001 12.7238 18.2368 12.9844 18.6833 13.2009C18.7765 13.1812 19.2328 12.6205 19.3751 12.5221C19.9491 12.1188 20.7439 12.6205 20.6017 13.3091C20.5133 13.732 20.0423 13.9927 19.797 14.3223C20.008 14.7698 20.2729 15.2076 20.3318 15.7142C20.9844 15.6797 22.0637 15.6305 21.9951 16.5749C21.9264 17.5192 20.9402 17.293 20.3318 17.288C20.2729 17.7946 20.0129 18.2324 19.797 18.68C20.2435 19.1324 21.058 19.8013 20.3563 20.4309C19.6842 21.0359 19.1347 20.2096 18.6833 19.7964C18.2368 20.0079 17.8001 20.2735 17.2948 20.3325C17.3242 21.0014 17.4076 22.0687 16.4362 21.9999C15.5432 21.9359 15.7346 20.9621 15.7248 20.3325C15.2194 20.2735 14.7828 20.0128 14.3363 19.7964C13.8702 20.2292 13.2814 21.0801 12.6142 20.3768C11.9616 19.6931 12.7957 19.1423 13.2225 18.675C13.0116 18.2275 12.7466 17.7897 12.6877 17.2831C12.0843 17.2487 11.1717 17.4946 11.0343 16.6536C10.8675 15.6256 11.9861 15.6601 12.6877 15.7043C12.7564 15.2174 12.9821 14.7698 13.2225 14.3468C13.2373 14.2042 12.4768 13.6829 12.4081 13.3632C12.2805 12.7484 12.8497 12.2073 13.4531 12.4139C14.0566 12.6205 14.0566 12.9992 14.3412 13.1959C14.7877 12.9844 15.2243 12.7189 15.7297 12.6598C15.71 12.0155 15.6021 10.9679 16.5392 10.9876C17.4763 11.0073 17.3095 12.0303 17.2997 12.6598L17.2948 12.6648ZM18.8599 16.4962C18.8599 15.1977 17.81 14.1403 16.5098 14.1403C15.2096 14.1403 14.1596 15.1928 14.1596 16.4962C14.1596 17.7996 15.2096 18.8521 16.5098 18.8521C17.81 18.8521 18.8599 17.7996 18.8599 16.4962Z" fill="currentColor"/>
<path d="M14.1549 4.71183C14.1549 7.31366 12.0501 9.42365 9.45466 9.42365C6.85921 9.42365 4.75439 7.31366 4.75439 4.71183C4.75439 2.10999 6.85921 0 9.45466 0C12.0501 0 14.1549 2.10999 14.1549 4.71183ZM12.5898 4.71183C12.5898 2.97563 11.1866 1.56897 9.44976 1.56897C7.71291 1.56897 6.3097 2.97563 6.3097 4.71183C6.3097 6.44802 7.71291 7.85468 9.44976 7.85468C11.1866 7.85468 12.5898 6.44802 12.5898 4.71183Z" fill="currentColor"/>
<path d="M1.61417 18.8523H9.52318C9.59677 18.8523 9.88134 19.0491 9.94022 19.1228C10.3376 19.6048 10.0678 20.3033 9.46921 20.4213H0.760466C0.338521 20.3721 0.0833915 20.0819 0.0490472 19.6688C-0.206082 16.7817 0.574025 14.0717 2.97322 12.3355C5.2792 10.6681 7.73237 10.9878 10.4358 11.0222C11.2944 11.2485 11.2159 12.4732 10.3082 12.5715C8.90989 12.724 7.38892 12.4043 5.96118 12.6847C3.09588 13.2503 1.32469 15.9947 1.60926 18.8573L1.61417 18.8523Z" fill="currentColor"/>
</g>
<defs>
<clipPath id="clip0_450_1715">
<rect width="22" height="22" fill="currentColor"/>
</clipPath>
</defs>
</svg>
