<svg width="100" height="45" viewBox="0 0 100 45" fill="none" xmlns="http://www.w3.org/2000/svg">
<g filter="url(#filter0_d_2920_11766)">
<path d="M28.4893 34L24.5742 27H18C10.8203 27 5 21.1797 5 14C5 6.8203 10.8203 1 18 1H82C89.1797 1 95 6.8203 95 14C95 21.1797 89.1797 27 82 27H32.4033L28.4893 34Z" fill="white"/>
<path d="M28.4893 34L27.6165 34.4881L28.4894 36.0488L29.3621 34.488L28.4893 34ZM24.5742 27L25.447 26.5119L25.1607 26H24.5742V27ZM18 27V28V27ZM18 1V0V1ZM82 1V0V1ZM82 27V28V27ZM32.4033 27V26H31.8168L31.5305 26.512L32.4033 27ZM28.4893 34L29.362 33.5119L25.447 26.5119L24.5742 27L23.7014 27.4881L27.6165 34.4881L28.4893 34ZM24.5742 27V26H18V27V28H24.5742V27ZM18 27V26C11.3726 26 6 20.6274 6 14H5H4C4 21.732 10.268 28 18 28V27ZM5 14H6C6 7.37258 11.3726 2 18 2V1V0C10.268 3.57628e-07 4 6.26801 4 14H5ZM18 1V2H82V1V0H18V1ZM82 1V2C88.6274 2 94 7.37258 94 14H95H96C96 6.26801 89.732 1.13249e-06 82 0V1ZM95 14H94C94 20.6274 88.6274 26 82 26V27V28C89.732 28 96 21.732 96 14H95ZM82 27V26H32.4033V27V28H82V27ZM32.4033 27L31.5305 26.512L27.6164 33.512L28.4893 34L29.3621 34.488L33.2761 27.488L32.4033 27Z" fill="#FCE38A"/>
</g>
<path d="M18.274 10.862C18.448 10.982 18.544 11.096 18.562 11.204C18.58 11.312 18.538 11.438 18.436 11.582L16.429 14.615V16.55C16.429 16.652 16.417 16.745 16.393 16.829C16.375 16.907 16.327 16.97 16.249 17.018C16.171 17.072 16.048 17.099 15.88 17.099C15.706 17.099 15.58 17.072 15.502 17.018C15.43 16.97 15.382 16.904 15.358 16.82C15.34 16.736 15.331 16.64 15.331 16.532V14.615L13.315 11.591C13.207 11.441 13.165 11.312 13.189 11.204C13.219 11.096 13.318 10.985 13.486 10.871C13.606 10.787 13.708 10.736 13.792 10.718C13.882 10.7 13.963 10.715 14.035 10.763C14.107 10.811 14.176 10.889 14.242 10.997L15.862 13.562L17.509 10.997C17.581 10.889 17.65 10.814 17.716 10.772C17.788 10.724 17.869 10.709 17.959 10.727C18.049 10.739 18.154 10.784 18.274 10.862ZM20.1962 17.144C19.9082 17.144 19.6262 17.09 19.3502 16.982C19.0802 16.868 18.8342 16.709 18.6122 16.505C18.3962 16.301 18.2222 16.061 18.0902 15.785C17.9642 15.509 17.9012 15.206 17.9012 14.876C17.9012 14.558 17.9612 14.261 18.0812 13.985C18.2012 13.709 18.3662 13.466 18.5762 13.256C18.7862 13.046 19.0262 12.884 19.2962 12.77C19.5722 12.65 19.8662 12.59 20.1782 12.59C20.5982 12.59 20.9792 12.692 21.3212 12.896C21.6632 13.094 21.9362 13.364 22.1402 13.706C22.3442 14.048 22.4462 14.435 22.4462 14.867C22.4462 15.209 22.3832 15.521 22.2572 15.803C22.1312 16.079 21.9602 16.319 21.7442 16.523C21.5282 16.721 21.2852 16.874 21.0152 16.982C20.7512 17.09 20.4782 17.144 20.1962 17.144ZM20.1782 16.082C20.3762 16.082 20.5652 16.034 20.7452 15.938C20.9312 15.836 21.0812 15.692 21.1952 15.506C21.3152 15.32 21.3752 15.101 21.3752 14.849C21.3752 14.615 21.3212 14.408 21.2132 14.228C21.1112 14.048 20.9702 13.907 20.7902 13.805C20.6102 13.703 20.4032 13.652 20.1692 13.652C19.9472 13.652 19.7462 13.706 19.5662 13.814C19.3862 13.916 19.2422 14.06 19.1342 14.246C19.0322 14.426 18.9812 14.63 18.9812 14.858C18.9812 15.11 19.0382 15.329 19.1522 15.515C19.2662 15.695 19.4132 15.836 19.5932 15.938C19.7792 16.034 19.9742 16.082 20.1782 16.082ZM24.9895 17.081C24.7135 17.081 24.4585 17.033 24.2245 16.937C23.9965 16.835 23.7955 16.691 23.6215 16.505C23.4475 16.319 23.3125 16.097 23.2165 15.839C23.1205 15.581 23.0725 15.296 23.0725 14.984V13.193C23.0725 13.091 23.0815 13.001 23.0995 12.923C23.1175 12.839 23.1655 12.773 23.2435 12.725C23.3215 12.677 23.4415 12.653 23.6035 12.653C23.7775 12.653 23.9005 12.677 23.9725 12.725C24.0505 12.773 24.0985 12.839 24.1165 12.923C24.1345 13.007 24.1435 13.1 24.1435 13.202V14.984C24.1435 15.2 24.1795 15.386 24.2515 15.542C24.3295 15.698 24.4405 15.821 24.5845 15.911C24.7285 15.995 24.9055 16.037 25.1155 16.037C25.3315 16.037 25.5145 15.995 25.6645 15.911C25.8205 15.821 25.9405 15.698 26.0245 15.542C26.1085 15.38 26.1505 15.194 26.1505 14.984V13.184C26.1505 13.082 26.1595 12.992 26.1775 12.914C26.1955 12.83 26.2435 12.767 26.3215 12.725C26.3995 12.677 26.5225 12.653 26.6905 12.653C26.8585 12.653 26.9785 12.677 27.0505 12.725C27.1225 12.773 27.1675 12.839 27.1855 12.923C27.2095 13.007 27.2215 13.097 27.2215 13.193V16.568C27.2215 16.658 27.2095 16.742 27.1855 16.82C27.1675 16.898 27.1195 16.961 27.0415 17.009C26.9695 17.057 26.8495 17.081 26.6815 17.081C26.5615 17.081 26.4655 17.066 26.3935 17.036C26.3275 17.012 26.2765 16.979 26.2405 16.937C26.2105 16.889 26.1895 16.841 26.1775 16.793C26.1715 16.745 26.1685 16.697 26.1685 16.649L26.2405 16.406C26.2045 16.46 26.1505 16.526 26.0785 16.604C26.0065 16.676 25.9165 16.751 25.8085 16.829C25.7065 16.901 25.5865 16.961 25.4485 17.009C25.3105 17.057 25.1575 17.081 24.9895 17.081ZM32.3092 17.108C32.0212 17.108 31.7392 17.06 31.4632 16.964C31.1932 16.862 30.9472 16.715 30.7252 16.523C30.5092 16.331 30.3352 16.097 30.2032 15.821C30.0772 15.539 30.0142 15.221 30.0142 14.867C30.0142 14.513 30.0772 14.198 30.2032 13.922C30.3352 13.646 30.5092 13.412 30.7252 13.22C30.9412 13.028 31.1842 12.881 31.4542 12.779C31.7242 12.677 32.0032 12.626 32.2912 12.626C32.5012 12.626 32.6992 12.656 32.8852 12.716C33.0772 12.776 33.2422 12.848 33.3802 12.932C33.5182 13.016 33.6172 13.1 33.6772 13.184C33.7552 13.256 33.8212 13.325 33.8752 13.391C33.9292 13.457 33.9472 13.538 33.9292 13.634C33.9112 13.694 33.8842 13.751 33.8482 13.805C33.8122 13.853 33.7672 13.904 33.7132 13.958C33.5692 14.12 33.4282 14.18 33.2902 14.138C33.2122 14.096 33.1342 14.051 33.0562 14.003C32.9782 13.955 32.8972 13.91 32.8132 13.868C32.7352 13.82 32.6542 13.781 32.5702 13.751C32.4862 13.721 32.3932 13.706 32.2912 13.706C32.0632 13.706 31.8592 13.757 31.6792 13.859C31.5052 13.955 31.3672 14.09 31.2652 14.264C31.1692 14.438 31.1212 14.639 31.1212 14.867C31.1212 15.095 31.1692 15.299 31.2652 15.479C31.3672 15.653 31.5052 15.791 31.6792 15.893C31.8532 15.989 32.0512 16.037 32.2732 16.037C32.3812 16.037 32.4832 16.025 32.5792 16.001C32.6812 15.971 32.7712 15.935 32.8492 15.893C32.9272 15.845 32.9902 15.797 33.0382 15.749C33.1042 15.707 33.1642 15.668 33.2182 15.632C33.2722 15.596 33.3292 15.578 33.3892 15.578C33.4612 15.578 33.5302 15.605 33.5962 15.659C33.6682 15.707 33.7462 15.785 33.8302 15.893C33.9082 15.983 33.9502 16.07 33.9562 16.154C33.9682 16.238 33.9502 16.319 33.9022 16.397C33.8602 16.475 33.7882 16.547 33.6862 16.613C33.6142 16.685 33.5062 16.76 33.3622 16.838C33.2242 16.91 33.0622 16.973 32.8762 17.027C32.6962 17.081 32.5072 17.108 32.3092 17.108ZM38.4187 17.072C38.2447 17.072 38.1157 17.039 38.0317 16.973C37.9477 16.907 37.9057 16.817 37.9057 16.703L37.9687 16.406C37.9207 16.484 37.8397 16.577 37.7257 16.685C37.6117 16.787 37.4617 16.88 37.2757 16.964C37.0897 17.042 36.8647 17.081 36.6007 17.081C36.3187 17.081 36.0517 17.024 35.7997 16.91C35.5537 16.79 35.3347 16.628 35.1427 16.424C34.9567 16.214 34.8067 15.977 34.6927 15.713C34.5847 15.443 34.5307 15.155 34.5307 14.849C34.5307 14.555 34.5847 14.279 34.6927 14.021C34.8067 13.757 34.9597 13.523 35.1517 13.319C35.3437 13.115 35.5627 12.956 35.8087 12.842C36.0607 12.722 36.3247 12.662 36.6007 12.662C36.8467 12.662 37.0537 12.695 37.2217 12.761C37.3957 12.827 37.5427 12.911 37.6627 13.013C37.7827 13.109 37.8817 13.211 37.9597 13.319L37.9057 13.058C37.9057 12.926 37.9477 12.827 38.0317 12.761C38.1157 12.689 38.2477 12.653 38.4277 12.653C38.5957 12.653 38.7157 12.68 38.7877 12.734C38.8597 12.782 38.9047 12.851 38.9227 12.941C38.9407 13.025 38.9497 13.121 38.9497 13.229V16.523C38.9497 16.625 38.9407 16.718 38.9227 16.802C38.9047 16.886 38.8567 16.952 38.7787 17C38.7067 17.048 38.5867 17.072 38.4187 17.072ZM36.7627 16.028C36.9667 16.028 37.1497 15.977 37.3117 15.875C37.4737 15.773 37.6027 15.635 37.6987 15.461C37.8007 15.281 37.8517 15.083 37.8517 14.867C37.8517 14.633 37.8007 14.429 37.6987 14.255C37.5967 14.081 37.4617 13.946 37.2937 13.85C37.1317 13.748 36.9487 13.697 36.7447 13.697C36.5227 13.697 36.3247 13.751 36.1507 13.859C35.9767 13.961 35.8387 14.102 35.7367 14.282C35.6407 14.456 35.5927 14.654 35.5927 14.876C35.5927 15.092 35.6437 15.287 35.7457 15.461C35.8477 15.635 35.9857 15.773 36.1597 15.875C36.3397 15.977 36.5407 16.028 36.7627 16.028ZM40.3838 17.081C40.2218 17.081 40.1018 17.054 40.0238 17C39.9518 16.952 39.9068 16.889 39.8888 16.811C39.8708 16.727 39.8618 16.634 39.8618 16.532V13.166C39.8618 13.07 39.8708 12.983 39.8888 12.905C39.9068 12.827 39.9548 12.767 40.0328 12.725C40.1108 12.677 40.2308 12.653 40.3928 12.653C40.5368 12.653 40.6448 12.671 40.7168 12.707C40.7888 12.743 40.8368 12.788 40.8608 12.842C40.8848 12.896 40.8968 12.95 40.8968 13.004C40.9028 13.058 40.9088 13.1 40.9148 13.13L40.8788 13.418C40.9148 13.322 40.9748 13.229 41.0588 13.139C41.1428 13.049 41.2448 12.968 41.3648 12.896C41.4848 12.818 41.6138 12.758 41.7518 12.716C41.8958 12.668 42.0428 12.644 42.1928 12.644C42.4748 12.644 42.7268 12.695 42.9488 12.797C43.1708 12.899 43.3598 13.043 43.5158 13.229C43.6778 13.415 43.8008 13.637 43.8848 13.895C43.9688 14.147 44.0108 14.432 44.0108 14.75V16.541C44.0108 16.643 43.9988 16.736 43.9748 16.82C43.9568 16.898 43.9118 16.961 43.8398 17.009C43.7678 17.057 43.6448 17.081 43.4708 17.081C43.3028 17.081 43.1798 17.054 43.1018 17C43.0238 16.952 42.9758 16.889 42.9578 16.811C42.9398 16.727 42.9308 16.634 42.9308 16.532V14.741C42.9308 14.525 42.8918 14.339 42.8138 14.183C42.7418 14.027 42.6338 13.907 42.4898 13.823C42.3518 13.739 42.1748 13.697 41.9588 13.697C41.7488 13.697 41.5658 13.742 41.4098 13.832C41.2538 13.916 41.1338 14.036 41.0498 14.192C40.9658 14.348 40.9238 14.531 40.9238 14.741V16.541C40.9238 16.643 40.9148 16.736 40.8968 16.82C40.8788 16.898 40.8308 16.961 40.7528 17.009C40.6808 17.057 40.5578 17.081 40.3838 17.081ZM49.0293 17.081C48.7533 17.081 48.4923 17.024 48.2463 16.91C48.0003 16.796 47.7843 16.64 47.5983 16.442C47.4123 16.238 47.2653 16.001 47.1573 15.731C47.0493 15.455 46.9953 15.161 46.9953 14.849C46.9953 14.549 47.0493 14.267 47.1573 14.003C47.2653 13.733 47.4123 13.499 47.5983 13.301C47.7903 13.097 48.0093 12.938 48.2553 12.824C48.5013 12.71 48.7593 12.653 49.0293 12.653C49.3173 12.653 49.5753 12.71 49.8033 12.824C50.0313 12.938 50.2233 13.097 50.3793 13.301C50.5413 13.499 50.6643 13.733 50.7483 14.003C50.8323 14.267 50.8773 14.552 50.8833 14.858C50.8833 15.164 50.8413 15.452 50.7573 15.722C50.6793 15.986 50.5593 16.22 50.3973 16.424C50.2413 16.628 50.0463 16.79 49.8123 16.91C49.5843 17.024 49.3233 17.081 49.0293 17.081ZM49.1733 16.028C49.3833 16.028 49.5693 15.98 49.7313 15.884C49.8993 15.782 50.0313 15.644 50.1273 15.47C50.2293 15.296 50.2803 15.098 50.2803 14.876C50.2803 14.648 50.2293 14.447 50.1273 14.273C50.0313 14.099 49.8993 13.961 49.7313 13.859C49.5693 13.757 49.3833 13.706 49.1733 13.706C48.9633 13.706 48.7743 13.757 48.6063 13.859C48.4383 13.955 48.3033 14.093 48.2013 14.273C48.1053 14.447 48.0573 14.648 48.0573 14.876C48.0573 15.098 48.1053 15.296 48.2013 15.47C48.3033 15.644 48.4383 15.782 48.6063 15.884C48.7803 15.98 48.9693 16.028 49.1733 16.028ZM50.8383 17.081C50.6703 17.081 50.5473 17.054 50.4693 17C50.3913 16.94 50.3403 16.847 50.3163 16.721V11.177C50.3163 11.075 50.3223 10.985 50.3343 10.907C50.3523 10.823 50.3973 10.757 50.4693 10.709C50.5473 10.655 50.6673 10.628 50.8293 10.628C51.0033 10.628 51.1263 10.652 51.1983 10.7C51.2703 10.748 51.3153 10.814 51.3333 10.898C51.3573 10.976 51.3693 11.066 51.3693 11.168V16.532C51.3693 16.634 51.3603 16.727 51.3423 16.811C51.3243 16.895 51.2763 16.961 51.1983 17.009C51.1263 17.057 51.0063 17.081 50.8383 17.081ZM54.3241 17.144C54.0361 17.144 53.7541 17.09 53.4781 16.982C53.2081 16.868 52.9621 16.709 52.7401 16.505C52.5241 16.301 52.3501 16.061 52.2181 15.785C52.0921 15.509 52.0291 15.206 52.0291 14.876C52.0291 14.558 52.0891 14.261 52.2091 13.985C52.3291 13.709 52.4941 13.466 52.7041 13.256C52.9141 13.046 53.1541 12.884 53.4241 12.77C53.7001 12.65 53.9941 12.59 54.3061 12.59C54.7261 12.59 55.1071 12.692 55.4491 12.896C55.7911 13.094 56.0641 13.364 56.2681 13.706C56.4721 14.048 56.5741 14.435 56.5741 14.867C56.5741 15.209 56.5111 15.521 56.3851 15.803C56.2591 16.079 56.0881 16.319 55.8721 16.523C55.6561 16.721 55.4131 16.874 55.1431 16.982C54.8791 17.09 54.6061 17.144 54.3241 17.144ZM54.3061 16.082C54.5041 16.082 54.6931 16.034 54.8731 15.938C55.0591 15.836 55.2091 15.692 55.3231 15.506C55.4431 15.32 55.5031 15.101 55.5031 14.849C55.5031 14.615 55.4491 14.408 55.3411 14.228C55.2391 14.048 55.0981 13.907 54.9181 13.805C54.7381 13.703 54.5311 13.652 54.2971 13.652C54.0751 13.652 53.8741 13.706 53.6941 13.814C53.5141 13.916 53.3701 14.06 53.2621 14.246C53.1601 14.426 53.1091 14.63 53.1091 14.858C53.1091 15.11 53.1661 15.329 53.2801 15.515C53.3941 15.695 53.5411 15.836 53.7211 15.938C53.9071 16.034 54.1021 16.082 54.3061 16.082ZM61.8269 17.081C61.5329 17.081 61.2689 17.024 61.0349 16.91C60.8069 16.79 60.6119 16.628 60.4499 16.424C60.2939 16.22 60.1739 15.986 60.0899 15.722C60.0119 15.452 59.9729 15.164 59.9729 14.858C59.9789 14.552 60.0239 14.267 60.1079 14.003C60.1919 13.733 60.3119 13.499 60.4679 13.301C60.6299 13.097 60.8249 12.938 61.0529 12.824C61.2809 12.71 61.5389 12.653 61.8269 12.653C62.1029 12.653 62.3609 12.71 62.6009 12.824C62.8469 12.938 63.0629 13.097 63.2489 13.301C63.4409 13.499 63.5909 13.733 63.6989 14.003C63.8069 14.267 63.8609 14.549 63.8609 14.849C63.8609 15.161 63.8069 15.455 63.6989 15.731C63.5909 16.001 63.4439 16.238 63.2579 16.442C63.0719 16.64 62.8559 16.796 62.6099 16.91C62.3639 17.024 62.1029 17.081 61.8269 17.081ZM61.6829 16.028C61.8929 16.028 62.0819 15.98 62.2499 15.884C62.4179 15.782 62.5499 15.644 62.6459 15.47C62.7479 15.296 62.7989 15.098 62.7989 14.876C62.7989 14.648 62.7479 14.447 62.6459 14.273C62.5499 14.093 62.4179 13.955 62.2499 13.859C62.0819 13.757 61.8929 13.706 61.6829 13.706C61.4789 13.706 61.2929 13.757 61.1249 13.859C60.9569 13.961 60.8219 14.099 60.7199 14.273C60.6239 14.447 60.5759 14.648 60.5759 14.876C60.5759 15.098 60.6239 15.296 60.7199 15.47C60.8219 15.644 60.9569 15.782 61.1249 15.884C61.2929 15.98 61.4789 16.028 61.6829 16.028ZM60.0179 17.09C59.8559 17.09 59.7359 17.063 59.6579 17.009C59.5799 16.961 59.5319 16.898 59.5139 16.82C59.4959 16.736 59.4869 16.643 59.4869 16.541V11.177C59.4869 11.075 59.4959 10.985 59.5139 10.907C59.5319 10.823 59.5799 10.757 59.6579 10.709C59.7359 10.661 59.8559 10.637 60.0179 10.637C60.1859 10.637 60.3059 10.661 60.3779 10.709C60.4499 10.757 60.4949 10.823 60.5129 10.907C60.5309 10.991 60.5399 11.081 60.5399 11.177V16.721C60.5159 16.853 60.4649 16.946 60.3869 17C60.3149 17.06 60.1919 17.09 60.0179 17.09ZM66.8151 17.144C66.4251 17.144 66.0831 17.081 65.7891 16.955C65.5011 16.829 65.2581 16.658 65.0601 16.442C64.8681 16.22 64.7211 15.974 64.6191 15.704C64.5231 15.428 64.4751 15.143 64.4751 14.849C64.4751 14.417 64.5741 14.033 64.7721 13.697C64.9701 13.361 65.2431 13.097 65.5911 12.905C65.9451 12.713 66.3501 12.617 66.8061 12.617C67.1301 12.617 67.4151 12.668 67.6611 12.77C67.9071 12.872 68.1111 13.007 68.2731 13.175C68.4411 13.337 68.5671 13.517 68.6511 13.715C68.7411 13.913 68.7861 14.105 68.7861 14.291C68.7861 14.609 68.7081 14.84 68.5521 14.984C68.4021 15.128 68.2131 15.2 67.9851 15.2H65.6091C65.6151 15.404 65.6781 15.581 65.7981 15.731C65.9241 15.881 66.0801 15.998 66.2661 16.082C66.4581 16.16 66.6531 16.199 66.8511 16.199C67.0011 16.199 67.1331 16.19 67.2471 16.172C67.3671 16.154 67.4691 16.133 67.5531 16.109C67.6371 16.079 67.7091 16.049 67.7691 16.019C67.8351 15.989 67.8951 15.962 67.9491 15.938C68.0031 15.914 68.0541 15.899 68.1021 15.893C68.1681 15.887 68.2341 15.902 68.3001 15.938C68.3661 15.974 68.4201 16.037 68.4621 16.127C68.4981 16.187 68.5221 16.244 68.5341 16.298C68.5521 16.346 68.5611 16.394 68.5611 16.442C68.5611 16.562 68.4891 16.676 68.3451 16.784C68.2011 16.886 67.9971 16.97 67.7331 17.036C67.4751 17.108 67.1691 17.144 66.8151 17.144ZM65.6091 14.561H67.4541C67.5561 14.561 67.6341 14.546 67.6881 14.516C67.7421 14.48 67.7691 14.408 67.7691 14.3C67.7691 14.162 67.7271 14.039 67.6431 13.931C67.5591 13.817 67.4451 13.73 67.3011 13.67C67.1571 13.604 66.9891 13.571 66.7971 13.571C66.5751 13.571 66.3741 13.616 66.1941 13.706C66.0141 13.79 65.8701 13.907 65.7621 14.057C65.6601 14.207 65.6091 14.375 65.6091 14.561ZM71.6216 17.09C71.2436 17.09 70.9346 17.033 70.6946 16.919C70.4606 16.805 70.2866 16.631 70.1726 16.397C70.0646 16.163 70.0106 15.869 70.0106 15.515V13.769L69.6146 13.787C69.4706 13.787 69.3686 13.745 69.3086 13.661C69.2486 13.577 69.2186 13.439 69.2186 13.247C69.2186 13.061 69.2516 12.926 69.3176 12.842C69.3836 12.758 69.4916 12.716 69.6416 12.716L70.0106 12.734V11.699C70.0106 11.591 70.0196 11.498 70.0376 11.42C70.0616 11.342 70.1096 11.282 70.1816 11.24C70.2596 11.192 70.3796 11.168 70.5416 11.168C70.7096 11.168 70.8296 11.192 70.9016 11.24C70.9796 11.288 71.0276 11.354 71.0456 11.438C71.0696 11.516 71.0816 11.603 71.0816 11.699V12.734C71.1656 12.728 71.2766 12.725 71.4146 12.725C71.5586 12.725 71.6876 12.722 71.8016 12.716C71.9336 12.716 72.0746 12.719 72.2246 12.725C72.3746 12.725 72.4886 12.725 72.5666 12.725V11.699C72.5666 11.591 72.5756 11.498 72.5936 11.42C72.6116 11.342 72.6566 11.282 72.7286 11.24C72.8066 11.192 72.9296 11.168 73.0976 11.168C73.2596 11.168 73.3766 11.192 73.4486 11.24C73.5266 11.288 73.5746 11.354 73.5926 11.438C73.6166 11.516 73.6286 11.603 73.6286 11.699V12.743L74.3576 12.716C74.4596 12.716 74.5496 12.728 74.6276 12.752C74.7116 12.77 74.7776 12.818 74.8256 12.896C74.8736 12.968 74.8976 13.088 74.8976 13.256C74.8976 13.424 74.8736 13.547 74.8256 13.625C74.7776 13.697 74.7116 13.742 74.6276 13.76C74.5496 13.778 74.4626 13.787 74.3666 13.787L73.6286 13.769V15.479C73.6286 15.653 73.6466 15.782 73.6826 15.866C73.7186 15.944 73.7786 15.998 73.8626 16.028C73.9526 16.052 74.0696 16.064 74.2136 16.064C74.3276 16.064 74.4236 16.073 74.5016 16.091C74.5856 16.109 74.6486 16.154 74.6906 16.226C74.7386 16.292 74.7626 16.403 74.7626 16.559C74.7626 16.727 74.7356 16.85 74.6816 16.928C74.6336 17 74.5676 17.045 74.4836 17.063C74.3996 17.081 74.3096 17.09 74.2136 17.09C73.8356 17.09 73.5236 17.033 73.2776 16.919C73.0376 16.805 72.8576 16.631 72.7376 16.397C72.6236 16.163 72.5666 15.869 72.5666 15.515V13.769C72.5426 13.769 72.4856 13.772 72.3956 13.778C72.3116 13.778 72.2156 13.781 72.1076 13.787C71.9996 13.787 71.9066 13.787 71.8286 13.787C71.7206 13.787 71.5916 13.787 71.4416 13.787C71.2976 13.781 71.1776 13.775 71.0816 13.769V15.479C71.0816 15.653 71.0966 15.782 71.1266 15.866C71.1566 15.944 71.2106 15.998 71.2886 16.028C71.3666 16.052 71.4776 16.064 71.6216 16.064C71.7356 16.064 71.8316 16.073 71.9096 16.091C71.9936 16.109 72.0566 16.154 72.0986 16.226C72.1406 16.292 72.1616 16.403 72.1616 16.559C72.1616 16.727 72.1346 16.85 72.0806 16.928C72.0326 17 71.9666 17.045 71.8826 17.063C71.8046 17.081 71.7176 17.09 71.6216 17.09ZM77.6608 17.144C77.2708 17.144 76.9288 17.081 76.6348 16.955C76.3468 16.829 76.1038 16.658 75.9058 16.442C75.7138 16.22 75.5668 15.974 75.4648 15.704C75.3688 15.428 75.3208 15.143 75.3208 14.849C75.3208 14.417 75.4198 14.033 75.6178 13.697C75.8158 13.361 76.0888 13.097 76.4368 12.905C76.7908 12.713 77.1958 12.617 77.6518 12.617C77.9758 12.617 78.2608 12.668 78.5068 12.77C78.7528 12.872 78.9568 13.007 79.1188 13.175C79.2868 13.337 79.4128 13.517 79.4968 13.715C79.5868 13.913 79.6318 14.105 79.6318 14.291C79.6318 14.609 79.5538 14.84 79.3978 14.984C79.2478 15.128 79.0588 15.2 78.8308 15.2H76.4548C76.4608 15.404 76.5238 15.581 76.6438 15.731C76.7698 15.881 76.9258 15.998 77.1118 16.082C77.3038 16.16 77.4988 16.199 77.6968 16.199C77.8468 16.199 77.9788 16.19 78.0928 16.172C78.2128 16.154 78.3148 16.133 78.3988 16.109C78.4828 16.079 78.5548 16.049 78.6148 16.019C78.6808 15.989 78.7408 15.962 78.7948 15.938C78.8488 15.914 78.8998 15.899 78.9478 15.893C79.0138 15.887 79.0798 15.902 79.1458 15.938C79.2118 15.974 79.2658 16.037 79.3078 16.127C79.3438 16.187 79.3678 16.244 79.3798 16.298C79.3978 16.346 79.4068 16.394 79.4068 16.442C79.4068 16.562 79.3348 16.676 79.1908 16.784C79.0468 16.886 78.8428 16.97 78.5788 17.036C78.3208 17.108 78.0148 17.144 77.6608 17.144ZM76.4548 14.561H78.2998C78.4018 14.561 78.4798 14.546 78.5338 14.516C78.5878 14.48 78.6148 14.408 78.6148 14.3C78.6148 14.162 78.5728 14.039 78.4888 13.931C78.4048 13.817 78.2908 13.73 78.1468 13.67C78.0028 13.604 77.8348 13.571 77.6428 13.571C77.4208 13.571 77.2198 13.616 77.0398 13.706C76.8598 13.79 76.7158 13.907 76.6078 14.057C76.5058 14.207 76.4548 14.375 76.4548 14.561ZM80.9013 17.09C80.7393 17.09 80.6193 17.063 80.5413 17.009C80.4693 16.961 80.4243 16.895 80.4063 16.811C80.3883 16.727 80.3793 16.634 80.3793 16.532V13.193C80.3793 13.085 80.3883 12.992 80.4063 12.914C80.4243 12.83 80.4693 12.767 80.5413 12.725C80.6193 12.677 80.7423 12.653 80.9103 12.653C81.0723 12.653 81.1893 12.674 81.2613 12.716C81.3393 12.758 81.3873 12.812 81.4053 12.878C81.4293 12.938 81.4413 12.998 81.4413 13.058L81.3693 13.22C81.3993 13.172 81.4413 13.115 81.4953 13.049C81.5493 12.977 81.6213 12.908 81.7113 12.842C81.8013 12.77 81.9093 12.713 82.0353 12.671C82.1613 12.623 82.3113 12.599 82.4853 12.599C82.5573 12.599 82.6323 12.608 82.7103 12.626C82.7943 12.638 82.8753 12.659 82.9533 12.689C83.0373 12.713 83.1123 12.746 83.1783 12.788C83.2443 12.83 83.2953 12.881 83.3313 12.941C83.3673 12.995 83.3853 13.058 83.3853 13.13C83.3853 13.322 83.3373 13.484 83.2413 13.616C83.1453 13.748 83.0313 13.814 82.8993 13.814C82.8093 13.814 82.7433 13.805 82.7013 13.787C82.6593 13.769 82.6233 13.748 82.5933 13.724C82.5693 13.7 82.5303 13.679 82.4763 13.661C82.4283 13.643 82.3503 13.634 82.2423 13.634C82.1523 13.634 82.0593 13.649 81.9633 13.679C81.8733 13.709 81.7893 13.754 81.7113 13.814C81.6333 13.874 81.5703 13.952 81.5223 14.048C81.4743 14.138 81.4503 14.243 81.4503 14.363V16.55C81.4503 16.652 81.4413 16.745 81.4233 16.829C81.4053 16.907 81.3573 16.97 81.2793 17.018C81.2013 17.066 81.0753 17.09 80.9013 17.09ZM84.7087 15.173C84.5407 15.173 84.4177 15.152 84.3397 15.11C84.2617 15.062 84.2137 15.002 84.1957 14.93C84.1777 14.852 84.1687 14.768 84.1687 14.678V11.285C84.1687 11.195 84.1777 11.111 84.1957 11.033C84.2137 10.955 84.2617 10.895 84.3397 10.853C84.4177 10.805 84.5407 10.781 84.7087 10.781C84.8767 10.781 84.9967 10.805 85.0687 10.853C85.1467 10.895 85.1947 10.955 85.2127 11.033C85.2367 11.111 85.2487 11.195 85.2487 11.285V14.669C85.2487 14.765 85.2367 14.852 85.2127 14.93C85.1947 15.002 85.1467 15.062 85.0687 15.11C84.9967 15.152 84.8767 15.173 84.7087 15.173ZM84.7087 17.09C84.4687 17.09 84.3067 17.045 84.2227 16.955C84.1447 16.865 84.1057 16.709 84.1057 16.487C84.1057 16.379 84.1177 16.28 84.1417 16.19C84.1657 16.094 84.2197 16.019 84.3037 15.965C84.3877 15.911 84.5227 15.884 84.7087 15.884C84.9487 15.884 85.1077 15.929 85.1857 16.019C85.2637 16.109 85.3027 16.265 85.3027 16.487C85.3027 16.595 85.2907 16.697 85.2667 16.793C85.2487 16.883 85.1977 16.955 85.1137 17.009C85.0297 17.063 84.8947 17.09 84.7087 17.09Z" fill="#2B3B58"/>
<defs>
<filter id="filter0_d_2920_11766" x="0" y="0" width="100" height="44.0488" filterUnits="userSpaceOnUse" color-interpolation-filters="sRGB">
<feFlood flood-opacity="0" result="BackgroundImageFix"/>
<feColorMatrix in="SourceAlpha" type="matrix" values="0 0 0 0 0 0 0 0 0 0 0 0 0 0 0 0 0 0 127 0" result="hardAlpha"/>
<feOffset dy="4"/>
<feGaussianBlur stdDeviation="2"/>
<feComposite in2="hardAlpha" operator="out"/>
<feColorMatrix type="matrix" values="0 0 0 0 0 0 0 0 0 0 0 0 0 0 0 0 0 0 0.15 0"/>
<feBlend mode="normal" in2="BackgroundImageFix" result="effect1_dropShadow_2920_11766"/>
<feBlend mode="normal" in="SourceGraphic" in2="effect1_dropShadow_2920_11766" result="shape"/>
</filter>
</defs>
</svg>
